<svg xmlns="http://www.w3.org/2000/svg" width="649" height="468"><path fill="#0EBEB9" d="M0 0h649v468H0V0Z"/><path fill="#00666B" d="M491 0h158v468H354c0-6.532 7.451-12.498 11.953-17.004 1.531-1.513 3.07-3.018 4.61-4.522a106.951 106.951 0 0 0 8.75-9.724c5.554-6.986 11.745-13.359 17.878-19.833 11.812-12.522 23.24-25.405 34.434-38.48 2.124-2.48 4.25-4.958 6.375-7.437l1.62-1.89A810.333 810.333 0 0 1 463 343c-1.466-3.43-3.361-5.514-6.063-8.063-4.313-4.202-8.06-8.686-11.82-13.382a72.494 72.494 0 0 0-5.617-6.055c-2.805-2.709-5.246-5.583-7.688-8.625-4.447-5.527-9.2-10.7-14.035-15.883-2.715-2.912-5.34-5.895-7.941-8.91-1.91-2.166-3.866-4.284-5.83-6.4-3.856-4.159-7.586-8.324-11.068-12.807-3.54-4.525-7.465-8.497-11.567-12.512-2.649-2.64-5.096-5.396-7.527-8.234-2.238-2.584-4.539-5.105-6.844-7.629a664.873 664.873 0 0 1-10.242-11.492 635.209 635.209 0 0 0-13.684-15.149c-4.636-4.968-9.203-9.922-13.449-15.234-5.317-6.623-11.179-12.716-17-18.892-4.792-5.112-9.441-10.35-14-15.67-3.341-3.847-6.944-7.412-10.569-10.988-3.317-3.288-6.416-6.697-9.447-10.247-2.172-2.468-4.512-4.743-6.859-7.043-2.4-2.449-4.594-5.056-6.781-7.695L263 120l-1.347-1.493c-4.26-4.23-7.43-5.2-13.378-5.254l-2.984.066-3.195-.003c-3.469.004-6.936.051-10.405.098-2.411.011-4.822.02-7.234.026-6.334.023-12.668.082-19.002.148-6.469.061-12.937.089-19.406.119-12.683.064-25.366.165-38.049.293l-.924 1.89c-1.057 2.073-2.233 3.794-3.642 5.641l-1.471 1.957c-1.018 1.343-2.04 2.684-3.063 4.024l-1.466 1.957-1.342 1.763c-1.218 1.972-1.827 3.463-2.092 5.768a51.185 51.185 0 0 0 4.875 5.563 1008.86 1008.86 0 0 1 3.07 3.21l1.564 1.632c2.977 3.185 5.684 6.586 8.405 9.99a204.426 204.426 0 0 0 4.234 5.117l1.977 2.363 1.758 2.055c1.117 2.07 1.117 2.07.969 4.488-2.01 6.093-5.322 12.05-9.54 16.894-2.365 2.75-3.823 5.397-5.312 8.688-3.605-.56-4.985-1.739-7.262-4.54-3.703-4.427-7.588-8.638-11.55-12.835l-2.104-2.232A589.12 589.12 0 0 0 109 161c-6.454 1.722-12.42 3.954-18.457 6.816-3.83 1.783-7.756 3.268-11.71 4.749l-2.177.815L75 174c-.811-15.672-1.389-31.343-1.57-47.036a537.012 537.012 0 0 0-.164-7.492 568.982 568.982 0 0 1-.18-11.019l-.131-3.346c.015-6.466 1.068-9.824 5.426-14.705A182.567 182.567 0 0 1 83 86a447.12 447.12 0 0 0 2.82-2.883l2.305-2.242a172.774 172.774 0 0 0 9.832-10.547c2.782-3.17 5.664-6.245 8.543-9.328 3.502-3.755 6.997-7.508 10.375-11.375l1.501-1.676c1.661-1.9 1.661-1.9 2.903-4.02 2.543-3.742 4.483-5.652 8.976-6.658 4.223-.273 8.38-.285 12.607-.21 1.618-.002 3.237-.006 4.855-.014 4.383-.011 8.764.028 13.146.076 4.59.043 9.18.041 13.77.045 7.706.013 15.41.056 23.116.119 9.888.08 19.775.115 29.663.134 8.507.017 17.013.051 25.52.09l5.473.023c5.2.02 10.401.048 15.601.093 1.575.013 3.15.022 4.725.027 2.15.008 4.3.028 6.45.052l3.646.026c3.125.264 5.355.934 8.173 2.268l-.773-2.18C296 35 296 35 297.773 32.492l2.602-2.617a808.97 808.97 0 0 0 2.8-2.91l1.44-1.489c2.108-2.247 4.022-4.636 5.947-7.038C315.44 12.398 320.507 6.492 326 1l1.688 1.941c4.164 4.72 8.356 9.094 13.152 13.164 7.434 6.52 13.96 13.685 20.113 21.41A69.855 69.855 0 0 0 366.5 43.5c5.557 5.391 10.354 11.533 14.91 17.781C387.576 69.686 394.261 77.584 404 82c-4.826 5.768-9.96 11.056-15.36 16.285-3.497 3.596-6.637 7.446-9.798 11.338-1.239 1.495-2.536 2.94-3.842 4.377h-2l-1 6c1.695 1.668 1.695 1.668 4 3 6.382-.327 10.55-4.31 14.656-8.787l1.594-1.775 1.64-1.788c2.877-3.094 2.877-3.094 5.11-6.65h2l.652-1.621c1.84-3.248 4.346-5.763 6.91-8.442 3.821-4.057 7.51-8.149 11-12.5 3.61-4.496 7.433-8.746 11.359-12.963 2.93-3.168 5.7-6.415 8.392-9.787 5.33-6.62 11.186-12.728 17.015-18.906a541.125 541.125 0 0 0 15.297-16.968c2.322-2.687 4.75-5.168 7.313-7.625C484.007 10.159 484.007 10.159 491 0Z"/><path fill="#FBFBFB" d="M0 0h491c-4.38 8.759-11.342 15.432-18.277 22.215-2.594 2.653-4.915 5.383-7.223 8.285-3.161 3.971-6.505 7.635-10.125 11.188C451.019 45.965 446.93 50.331 443 55l-2.414 2.855a9456.589 9456.589 0 0 0-4.115 4.87c-8.218 9.724-16.556 19.322-25.178 28.69-3.072 3.464-5.9 7.096-8.7 10.784L401 104h-2l-.637 1.59c-1.936 3.423-4.506 6.103-7.175 8.972l-1.58 1.749c-2.937 3.178-5.648 5.79-9.608 7.689-3.87-.189-6.085-1.517-9-4 .593-3.434 1.78-5.204 4.125-7.75l1.906-2.098L379 108c1.211-1.393 2.42-2.79 3.625-4.188 2.66-3.081 5.481-5.948 8.375-8.812l3.113-3.113L403 83l-1.668-1.242c-6.914-5.212-13.33-10.202-18.457-17.238-2.335-3.138-4.84-6.106-7.375-9.082l-1.449-1.704c-5.85-6.862-11.82-13.607-17.867-20.297A387.353 387.353 0 0 1 350.562 27c-5.818-6.669-12.063-13.032-18.992-18.55-2.117-1.955-3.81-4.175-5.57-6.45-6.916 7.322-13.714 14.646-19.988 22.531-2.455 3.013-5.09 5.83-7.797 8.617-1.57 2.392-1.441 4.05-1.215 6.852l-2.076-.487c-3.283-.576-6.381-.673-9.715-.714l-2.031-.028c-2.24-.03-4.478-.053-6.718-.075l-4.825-.059c-14.671-.173-29.344-.267-44.016-.34A3952.93 3952.93 0 0 1 195.112 38c-7.63-.098-15.26-.15-22.89-.17a876.056 876.056 0 0 1-13.654-.13c-4.288-.077-8.571-.098-12.859-.076a171.27 171.27 0 0 1-4.698-.068c-9.322-.273-9.322-.273-17.3 4.028-2.866 2.93-5.27 6.128-7.711 9.416a301.38 301.38 0 0 1-4.625 5.125 5870.63 5870.63 0 0 0-6.512 7.262c-17.01 18.964-17.01 18.964-26.12 27.808-3.885 4.024-4.037 7.148-4.03 12.458l-.02 2.356c-.014 1.687-.023 3.375-.029 5.063-.008 2.668-.028 5.336-.052 8.004-.057 6.626-.092 13.251-.128 19.877-.03 5.6-.07 11.2-.12 16.8-.02 2.633-.028 5.266-.036 7.9l-.04 4.824.002 2.23c-.062 5.065-.062 5.065-2.29 7.293h-3l-1-83a1583.98 1583.98 0 0 0-14.974-6.587C46.241 85.475 39.57 82.399 33 79c-1.332-.669-2.665-1.336-4-2 .563-1.875.563-1.875 2-4 3.625-1.25 3.625-1.25 7-2v-5c-1.29-.113-1.29-.113-2.813 1.68L33 69.875l-2.188 2.18c-2.77 2.974-2.942 4.72-2.98 8.687l-.034 3.033-.023 3.34-.034 3.51a5631.327 5631.327 0 0 0-.186 32.063c-.027 7.897-.078 15.792-.16 23.689-.056 5.556-.085 11.111-.094 16.668a883.877 883.877 0 0 1-.072 9.947c-.046 3.706-.048 7.41-.04 11.116l-.071 3.303c.074 6.766 1.324 10.26 6.166 15.055L35 204l2.188 2.066L39 207.562c5.126 4.366 9.81 9.008 14.188 14.125 3.554 4.132 7.385 7.947 11.285 11.75a134.132 134.132 0 0 1 7.808 8.344c4.167 4.817 8.682 9.254 13.219 13.719 5.185 5.103 10.256 10.195 14.912 15.791 2.4 2.582 4.334 4.52 7.908 5.06l2.605-.033 3.002-.015 3.276-.061 3.466-.028c2.485-.02 4.97-.046 7.456-.078 3.94-.046 7.878-.067 11.818-.078a74813.939 74813.939 0 0 0 6.104-.018c9.168-.03 18.334-.087 27.5-.208 6.853-.09 13.703-.115 20.555-.106 2.607-.007 5.213-.037 7.819-.088 21.488-.413 21.488-.413 27.014 3.94 2.86 2.817 4.923 6.033 7.065 9.422a142.15 142.15 0 0 0 5 5.125l2.125 2.133c1.96 1.914 1.96 1.914 4.875 3.742-1.507 5.812-4.475 9.278-8.646 13.363-3.178 3.154-5.783 6.192-8.111 10.022-4.146 6.117-8.96 11.364-16.418 13.13-13.526 2.12-27.6 1.092-41.221.594-5.293-.179-10.587-.271-15.881-.367l-6.278-.12-3.123-.06c-3.1-.062-6.198-.132-9.297-.204-12.522-.29-25.042-.536-37.567-.383-1.672.017-3.343.021-5.015.013-10.396-.25-10.396-.25-19.357 4.44A76.782 76.782 0 0 0 74 344l-2.285 2.152-1.778 1.786-1.785 1.777c-1.822 1.935-3.551 3.908-5.28 5.926-4.332 4.979-9.039 9.552-13.747 14.171-6.105 6.04-11.92 12.024-17.188 18.81-2.943 3.614-6.278 6.8-9.609 10.054a101.797 101.797 0 0 0-5.703 6.199c-3.173 3.707-6.558 7.17-10 10.625l-1.626 1.64C1.124 421 1.124 421 0 421V0Z"/><path fill="#005E64" d="M258 172c3.014 1.342 5.007 2.793 7.25 5.203l1.824 1.95L269 181.25l2.024 2.178c4.57 4.95 8.945 10.037 13.268 15.203 4.883 5.743 10.252 10.968 15.626 16.248a153.077 153.077 0 0 1 13.039 14.637c2.99 3.636 6.341 6.863 9.703 10.152 2.66 2.65 5.12 5.42 7.563 8.27 2.057 2.387 4.164 4.724 6.277 7.062a595.524 595.524 0 0 1 7.875 8.875c3.409 3.914 6.915 7.736 10.43 11.553a813.97 813.97 0 0 1 8.882 9.822c4.683 5.218 9.613 10.153 14.665 15.012 3.147 3.254 5.95 6.702 8.773 10.238a733.546 733.546 0 0 0 14.36 17.338c2.269 2.656 4.458 5.338 6.515 8.162-.75 1.938-.75 1.938-2 4l-4 1-.871 1.746c-1.368 2.731-3.107 4.585-5.192 6.817a209.995 209.995 0 0 0-9.25 10.75c-4.807 5.936-9.966 11.498-15.182 17.073-2.372 2.544-4.72 5.11-7.067 7.676l-2.72 2.97-1.355 1.48c-1.844 2.013-3.69 4.025-5.537 6.037a5460.54 5460.54 0 0 0-4.135 4.514 1952.43 1952.43 0 0 1-5.289 5.75c-4.044 4.4-7.973 8.838-11.714 13.5-4.636 5.746-9.644 11.096-14.692 16.476-2.783 2.969-5.468 6.009-8.125 9.09-3.052 3.46-6.2 6.829-9.346 10.203l-1.462 1.574-1.432 1.511c-1.67 1.815-1.67 1.815-3.103 3.875-4.137 5.504-4.137 5.504-7.783 6.695-2.67.276-5.24.301-7.923.238l-3.062.025c-3.379.018-6.755-.02-10.133-.06-2.425.001-4.85.005-7.275.013-5.897.01-11.794-.017-17.691-.061-6.87-.05-13.74-.055-20.611-.059-12.26-.008-24.519-.053-36.778-.12a8625.273 8625.273 0 0 0-35.674-.123l-2.22-.003-8.834-.011c-11.34-.015-22.679-.046-34.018-.081l-10.272-.029c-7.807-.02-15.615-.048-23.422-.093-2.367-.013-4.733-.022-7.1-.027a2008.8 2008.8 0 0 1-9.68-.052l-2.845.001c-4.73-.048-8.855-.205-13.207-2.295-1.29-3.87-.563-6.37 1-10 1.856-3.06 3.968-5.897 6.125-8.75l3.55-4.781 1.738-2.32a179.977 179.977 0 0 0 3.942-5.555c3.436-4.992 6.57-8.607 11.575-12.012 4.262-3.257 7.59-7.528 11.07-11.582a3199.43 3199.43 0 0 1 3.5-4l1.691-1.941c2.817-3.207 5.681-6.37 8.54-9.54 2.178-2.418 4.352-4.84 6.519-7.269.603-.675 1.207-1.35 1.828-2.047 2.072-2.23 2.072-2.23 3.702-5.31 1.92-2.274 2.951-2.842 5.913-3.405 3.597-.148 7.149-.1 10.748.009 1.383.02 2.767.036 4.15.05 2.978.035 5.955.088 8.932.153a968 968 0 0 0 14.166.174c13.429.095 26.856.243 40.282.506 7.419.145 14.835.228 22.255.245 3.92.01 7.834.054 11.752.174 17.686 1.11 17.686 1.11 33.375-5.453 3.525-3.428 6.42-7.144 9.159-11.219 2.315-3.309 5.072-6.157 7.863-9.065.962-1.042 1.922-2.086 2.879-3.132 3.4-3.661 6.96-7.158 10.516-10.668 2.594-2.631 4.987-5.392 7.386-8.2 2.996-3.351 6.233-6.458 9.43-9.617 2.692-2.726 5.187-5.574 7.676-8.484 3.083-3.479 6.414-6.714 9.738-9.961-1.456-4.758-4.306-7.811-7.688-11.313-1.097-1.16-2.193-2.322-3.289-3.484l-1.594-1.682a174.34 174.34 0 0 1-4.991-5.584c-2.407-2.787-4.878-5.505-7.382-8.205a311.958 311.958 0 0 1-13.993-16.193c-3.598-4.429-7.242-8.807-11.38-12.742-3.342-3.483-6.078-7.243-8.87-11.172l-1.707-2.392A2007.06 2007.06 0 0 1 252 223l-1.56-2.19a572.412 572.412 0 0 1-4.19-5.998l-1.266-1.776c-2.729-4.023-4.173-7.148-3.984-12.036 1.233-2.365 2.68-4.427 4.259-6.578 2.942-4.093 5.224-8.555 7.616-12.984l1.508-2.768c1.21-2.221 2.415-4.445 3.617-6.67Z"/><path fill="#FBFBFB" d="M612 0h37v427a331.931 331.931 0 0 1-10.313-10.75 861.77 861.77 0 0 0-10.71-11.492c-6.516-6.854-12.892-13.677-18.774-21.086-2.617-3.175-5.39-6.17-8.203-9.172-3.59-3.833-7.039-7.7-10.313-11.813-8.2-10.202-17.472-19.567-26.78-28.753-2.485-2.52-4.8-5.163-7.102-7.848-2.022-2.336-4.099-4.616-6.18-6.899-3.11-3.44-6.09-6.95-9-10.562-4.953-6.116-10.272-11.863-15.625-17.625-4.944-5.345-9.81-10.7-14.375-16.375-4.388-5.439-9.09-10.532-13.852-15.64-4.338-4.655-8.476-9.472-12.617-14.301l-1.562-1.821c-1.056-1.235-2.11-2.47-3.163-3.708-3.362-3.946-6.808-7.786-10.42-11.507C469 226 469 226 469.138 223.992c1.007-2.324 2.13-3.526 3.988-5.242 3.191-3.055 6.108-6.239 8.992-9.582 2.851-3.283 5.777-6.497 8.692-9.723a437.084 437.084 0 0 0 5.753-6.57c2.381-2.738 4.855-5.327 7.438-7.875 3.171-3.129 6.125-6.371 9.031-9.746 2.384-2.73 4.829-5.4 7.282-8.066l1.424-1.552c2.288-2.491 4.58-4.98 6.876-7.464 3.98-4.333 7.846-8.694 11.512-13.297 4.71-5.846 9.845-11.259 15.028-16.686a350.747 350.747 0 0 0 11.235-12.334 349.003 349.003 0 0 1 20.128-21.308 133.803 133.803 0 0 0 5.718-6.281c4.745-5.472 9.933-10.48 15.094-15.555 4.157-4.115 8.14-8.297 11.952-12.733 3.022-3.475 6.189-6.813 9.345-10.166l1.945-2.076c1.803-1.919 3.614-3.83 5.43-5.736l1.503-1.6c1.126-1.173 2.306-2.293 3.497-3.4h2c-2.133-3.899-4.552-6.739-7.75-9.813A193.402 193.402 0 0 1 623 14a8182.23 8182.23 0 0 0-2.875-3.352l-3.063-3.585-1.507-1.76C612 1.115 612 1.115 612 0Z"/><path fill="#00474F" d="m642 37-2.816 2.781-3.746 3.719c-.61.6-1.219 1.201-1.846 1.82-3.788 3.768-7.37 7.65-10.861 11.693-2.835 3.254-5.778 6.403-8.731 9.55l-1.938 2.068c-5.219 5.54-10.582 10.924-15.991 16.279-3.59 3.567-7.007 7.2-10.27 11.07-2.487 2.79-5.143 5.394-7.801 8.02-3.883 3.84-7.622 7.724-11.168 11.883-2.348 2.714-4.776 5.352-7.207 7.992-6.934 7.545-13.797 15.131-20.438 22.938-5.411 6.354-11.019 12.502-16.712 18.604-2.441 2.62-4.866 5.257-7.288 7.895l-1.388 1.512a371.936 371.936 0 0 0-7.486 8.426c-2.29 2.649-4.678 5.122-7.188 7.563-4.002 3.932-7.455 8.215-10.965 12.585-2.34 2.82-4.828 5.366-7.46 7.907-2.55 2.542-4.876 5.266-7.22 7.996A73.982 73.982 0 0 1 470 223c.333 3.372 1.752 5.18 4 7.625l1.906 2.102L478 235c1.501 1.665 3.001 3.332 4.5 5l2.324 2.578a696.473 696.473 0 0 1 11.926 13.645c4.74 5.558 9.49 11.086 14.438 16.464a207.203 207.203 0 0 1 9.312 10.875A117.45 117.45 0 0 0 530 294c4.258 4.16 7.997 8.557 11.71 13.203 3.176 3.88 6.558 7.552 9.95 11.242a342.898 342.898 0 0 1 5.903 6.618c5.8 6.652 11.631 13.192 17.937 19.375 4.341 4.293 8.19 8.773 11.988 13.546 3.034 3.643 6.254 7.075 9.512 10.516a249.717 249.717 0 0 1 13.727 15.754c4.074 4.922 8.484 9.537 12.845 14.204 2.11 2.279 4.175 4.598 6.24 6.917 2.506 2.803 5.05 5.51 7.75 8.125l1.564 1.61c1.862 1.926 1.862 1.926 3.96 3.694 4.765 4.758 6.382 8.693 6.52 15.29-.074 4.52-.32 9.02-.606 13.531-.088 1.881-.173 3.763-.254 5.645-.205 4.58-.461 9.154-.746 13.73-13.5.209-27 .369-40.501.466-6.27.047-12.539.11-18.808.213-6.056.098-12.111.152-18.168.175-2.305.016-4.61.049-6.914.098-20.316.412-20.316.412-27.409-5.33A97.659 97.659 0 0 1 532 458a117.297 117.297 0 0 0-3.242-2.828C521.3 448.312 514.112 441.215 507 434l-2.29 2.293a679.708 679.708 0 0 1-4.483 4.445c-2.928 2.878-5.765 5.805-8.477 8.887l-1.742 1.883c-2.146 2.49-2.146 2.49-3.666 5.734-2.39 4.261-4.953 7.464-9.342 9.758-9.57 2.11-19.76 1.287-29.496.893-3.666-.134-7.334-.193-11.002-.258-7.17-.139-14.335-.36-21.502-.635 4.173-6.403 4.173-6.403 6.77-9.148l1.492-1.595 1.55-1.632c1.077-1.149 2.152-2.299 3.227-3.45l1.556-1.66c2.295-2.474 4.501-5.02 6.71-7.57 5.177-5.94 10.512-11.746 15.82-17.57 2.803-3.078 5.585-6.168 8.313-9.313 2.923-3.363 5.92-6.656 8.937-9.937a402390.506 402390.506 0 0 0 8.05-8.766c3.587-3.938 7.048-7.909 10.325-12.109 3.87-4.92 8.096-9.439 12.386-13.99 4.198-4.477 8.082-9.112 11.919-13.905 2.476-2.997 5.126-5.68 7.945-8.355 4.256 1.605 6.859 4.822 9.813 8.125l1.618 1.78a505.402 505.402 0 0 1 8.256 9.345c3.23 3.742 6.726 7.18 10.243 10.648a75.937 75.937 0 0 1 4.82 5.352c2.185 2.776 2.185 2.776 4.688 5.125 2.65 2.716 4.779 5.57 7.003 8.633 1.525 1.95 3.138 3.606 4.934 5.305C574 405 574 405 574 408h3c1.613 1.54 1.613 1.54 3.313 3.625 2.271 2.726 4.561 5.296 7.125 7.75C590 422 590 422 590 424l5 2c-3.382-3.958-6.784-7.851-10.5-11.5-4.649-4.587-8.841-9.53-13.047-14.523-10.789-12.77-22.24-24.886-34.13-36.635-3.484-3.456-6.794-7.004-9.956-10.756-1.353-1.636-1.353-1.636-3.035-3.098C523 348 523 348 522.812 344.813L523 342h-2c-1.27-1.223-1.27-1.223-2.813-3.063l-1.89-2.218L514 334c-8.746-10.25-17.751-20.202-27-30-2.606-2.769-5.21-5.54-7.813-8.313l-1.926-2.051a746.827 746.827 0 0 1-12.042-13.167 879.849 879.849 0 0 0-7.906-8.656l-1.494-1.622a938.744 938.744 0 0 0-8.698-9.285l-1.952-2.065a864.503 864.503 0 0 0-3.8-3.992l-1.728-1.83-1.546-1.621C437 250 437 250 437 248h-2c-1.414-1.573-2.756-3.211-4.063-4.875-6.976-9.758-6.976-9.758-15.937-17.125 1.562-3.68 3.836-6.165 6.563-9.063 3.394-3.648 6.637-7.353 9.75-11.25 4.632-5.743 9.638-11.09 14.683-16.468 2.828-3.017 5.565-6.1 8.266-9.23 2.21-2.53 4.474-5.008 6.738-7.489 3.456-3.79 6.865-7.61 10.23-11.48 3.546-4.047 7.166-8.026 10.77-12.02l2.188-2.438c4.118-4.588 8.263-9.15 12.437-13.687 2.977-3.237 5.935-6.486 8.813-9.813 3.58-4.13 7.298-8.128 11.012-12.137 5.268-5.69 10.452-11.451 15.612-17.237 5.137-5.74 10.37-11.384 15.633-17.008 18.145-17.853 18.145-17.853 33.553-37.757C583 37 583 37 585.51 36.474l3.03-.036 3.438-.07 3.712-.013 3.807-.057c2.658-.036 5.314-.066 7.971-.082 3.41-.02 6.818-.063 10.227-.114 3.248-.048 6.497-.085 9.745-.122l3.719-.043 3.428-.022 3.028-.024C640 36 640 36 642 37Z"/><path fill="#FAFBFA" d="m156.349 112.806 2.615-.053 2.847-.041 3.017-.054a2930.81 2930.81 0 0 1 27.559-.31c6.165-.046 12.33-.114 18.494-.233 5.97-.115 11.938-.175 17.91-.198 2.267-.017 4.535-.054 6.802-.11 19.59-.466 19.59-.466 26.049 4.928 2.324 2.272 4.346 4.716 6.358 7.265 1.743 1.924 3.528 3.802 5.313 5.687.902.996 1.801 1.994 2.695 2.997 3.506 3.905 7.09 7.737 10.68 11.566l1.962 2.097c3.182 3.388 6.392 6.725 9.725 9.965 2.908 2.852 5.453 5.884 8 9.063A116.036 116.036 0 0 0 316 176c4.195 4.098 7.856 8.426 11.512 13.004 3.451 4.156 7.134 8.074 10.829 12.012 3.34 3.56 6.6 7.166 9.788 10.863 2.575 2.919 5.224 5.767 7.871 8.621 3.83 4.131 7.613 8.291 11.3 12.55 3.514 4.031 7.117 7.981 10.7 11.95l6.742 7.492c1.525 1.694 3.051 3.387 4.578 5.078 3.36 3.724 6.71 7.451 9.993 11.242 3.158 3.63 6.417 7.16 9.687 10.688a560.983 560.983 0 0 1 15.703 17.676l3.047 3.574 1.56 1.83c3.82 4.457 7.756 8.789 11.753 13.087 2.973 3.218 5.764 6.537 8.5 9.958 4.445 5.532 9.325 10.455 14.437 15.375-1.314 2.89-2.74 5.005-4.941 7.285l-1.755 1.841-1.866 1.936c-5.005 5.27-9.749 10.637-14.29 16.317-3.13 3.818-6.468 7.433-9.808 11.066-2.568 2.804-5.069 5.658-7.563 8.528-2.833 3.231-5.721 6.412-8.601 9.601a465.707 465.707 0 0 0-5.488 6.238c-3.102 3.562-6.293 7.035-9.5 10.5l-1.567 1.695-7.3 7.888c-4.05 4.41-7.964 8.86-11.696 13.542-3.322 4.127-6.843 7.87-10.625 11.563-5.427 5.305-10.595 10.793-15 17v2h-64c6.7-8.934 6.7-8.934 9.938-12 3.184-3.1 6.128-6.31 9.023-9.68 2.074-2.36 4.204-4.66 6.349-6.956 4.214-4.513 8.321-9.046 12.19-13.864 4.341-5.407 9.007-10.454 13.734-15.52a225.515 225.515 0 0 0 6.141-6.855c3.397-3.93 6.949-7.71 10.5-11.5a879.375 879.375 0 0 0 24.24-27.01A473.254 473.254 0 0 1 392.5 353c2.665-2.894 5.116-5.737 7.313-9 2.184-2.996 3.884-4.396 7.187-6-1.729-4.024-4.42-7.288-7.125-10.688l-1.493-1.891c-3.35-4.212-6.856-8.235-10.487-12.206-2.144-2.506-4.006-5.137-5.895-7.84-2.949-4.137-5.95-7.357-9.863-10.57-6.254-5.282-11.856-11.34-17.168-17.555-2.55-2.915-5.2-5.732-7.844-8.563-4.59-4.924-8.889-10.012-13.105-15.261-2.306-2.769-4.774-5.27-7.36-7.774-2.327-2.316-4.436-4.799-6.578-7.285-3.16-3.593-6.427-7.085-9.683-10.59-2.65-2.86-5.253-5.74-7.774-8.715-3.299-3.832-6.9-7.33-10.5-10.875a168.14 168.14 0 0 1-14.043-15.664c-2.708-3.281-5.673-6.222-8.746-9.16C267 181 267 181 265.579 179.047c-3.184-4.274-3.184-4.274-7.753-6.755-2.52-.222-4.93-.2-7.458-.086l-2.851.03c-2.034.026-4.068.07-6.1.13-3.227.092-6.45.13-9.676.152-9.169.072-18.335.243-27.501.45-5.617.124-11.232.184-16.85.206-2.133.022-4.266.069-6.397.141-16.26.551-16.26.551-20.852-2.585-3.553-3.438-5.799-7.416-8.141-11.73a80.194 80.194 0 0 0-3.355-4.05l-1.437-1.666-1.395-1.597-1.517-1.752A1634.158 1634.158 0 0 0 140 145l-2.316-2.66A1401.262 1401.262 0 0 0 133 137c1.4-3.979 3.288-7.006 5.813-10.375 2.395-3.206 4.725-6.415 6.937-9.75 3.132-4.002 5.724-3.982 10.599-4.07Z"/><path fill="#32D7D0" d="M114.002-1.323a861.53 861.53 0 0 0 4.887-.028c4.461-.025 8.92.019 13.381.074 4.816.048 9.631.032 14.447.023 8.34-.005 16.678.029 25.017.091 12.056.09 24.112.118 36.168.132 19.562.024 39.123.097 58.685.201a19960.401 19960.401 0 0 0 60.55.235l17.632.041C393.513-.44 442.256-.246 491 0c-4.25 8.773-11.388 15.477-18.277 22.215-2.594 2.653-4.915 5.383-7.223 8.285-3.161 3.971-6.505 7.635-10.125 11.187C451.019 45.965 446.93 50.332 443 55l-2.414 2.855a9456.674 9456.674 0 0 0-4.115 4.87c-8.218 9.724-16.556 19.322-25.178 28.69-3.072 3.464-5.9 7.096-8.7 10.784L401 104h-2l-.637 1.59c-1.936 3.423-4.506 6.103-7.175 8.972l-1.58 1.749c-2.937 3.178-5.648 5.79-9.608 7.689-3.87-.189-6.085-1.517-9-4 .593-3.434 1.78-5.204 4.125-7.75l1.906-2.098L379 108a1338 1338 0 0 0 3.625-4.188c2.66-3.081 5.481-5.948 8.375-8.812l3.113-3.113L403 83l-1.668-1.242c-6.914-5.212-13.33-10.202-18.457-17.238-2.335-3.138-4.84-6.106-7.375-9.083l-1.449-1.703c-5.85-6.862-11.82-13.607-17.867-20.297A387.353 387.353 0 0 1 350.563 27c-5.819-6.669-12.064-13.032-18.993-18.55-2.117-1.955-3.81-4.175-5.57-6.45-6.916 7.322-13.714 14.646-19.988 22.531-2.455 3.013-5.09 5.83-7.797 8.617-1.57 2.392-1.441 4.05-1.215 6.852l-2.076-.487c-3.283-.576-6.381-.673-9.715-.714l-2.031-.028c-2.24-.03-4.478-.053-6.718-.075l-4.825-.059c-14.671-.173-29.344-.267-44.016-.34A3952.93 3952.93 0 0 1 195.112 38c-7.63-.098-15.26-.15-22.89-.17a876.056 876.056 0 0 1-13.654-.13c-4.288-.077-8.571-.098-12.859-.076a171.27 171.27 0 0 1-4.698-.068c-9.322-.273-9.322-.273-17.3 4.028-2.866 2.93-5.27 6.128-7.711 9.416a301.381 301.381 0 0 1-4.625 5.125c-2.173 2.419-4.343 4.84-6.512 7.262-17.01 18.964-17.01 18.964-26.12 27.808-3.885 4.024-4.037 7.148-4.03 12.458l-.02 2.356c-.014 1.687-.023 3.375-.029 5.063-.008 2.668-.028 5.336-.052 8.004-.057 6.626-.092 13.251-.128 19.877-.03 5.6-.07 11.2-.12 16.8-.02 2.633-.028 5.266-.036 7.9l-.04 4.824.002 2.23c-.062 5.065-.062 5.065-2.29 7.293h-3l-1-83a1583.98 1583.98 0 0 0-14.974-6.587C46.241 85.475 39.57 82.399 33 79a1405.55 1405.55 0 0 0-4-2c.563-1.875.563-1.875 2-4 3.625-1.25 3.625-1.25 7-2l-.312-2c.774-7.44 6.649-12.627 11.835-17.531a91.224 91.224 0 0 0 5.336-5.824c3.511-4.055 7.263-7.83 11.07-11.602l1.935-1.918c2.67-2.643 5.345-5.283 8.024-7.917 1.977-1.946 3.947-3.9 5.917-5.853l1.78-1.74 1.75-1.74 1.709-1.692c2.054-2.177 2.054-2.177 3.72-4.921 6.345-9.433 12.686-9.816 23.238-9.585Z"/><path fill="#2FD4CD" d="M517.934-1.426c2.68-.005 5.36-.013 8.04-.024 5.61-.016 11.22.014 16.832.07 6.469.066 12.934.055 19.403.005 6.245-.047 12.49-.037 18.735-.002 2.646.01 5.293.004 7.94-.017 3.707-.02 7.408.024 11.114.084l3.292-.056c4.743.138 7.611.454 11.333 3.543C616.91 4.696 618.97 7.274 621 10a259.627 259.627 0 0 0 3.375 3.875l1.668 1.914a686.4 686.4 0 0 0 7.644 8.461l1.406 1.539A223.312 223.312 0 0 0 643 34l-1 3-2.06-.007c-11.736-.036-23.472-.07-35.209-.035l-2.203.007c-2.976.008-5.95.017-8.926.027-9.27.03-18.534-.015-27.802-.17-5.003-.073-10.004-.096-15.007-.108a352.896 352.896 0 0 1-7.03-.122c-13.095-.825-13.095-.825-24.69 4.14-3.15 3.123-5.585 6.606-8.073 10.268a103.327 103.327 0 0 1-3.7 3.945c-5.548 5.898-10.853 11.874-15.917 18.2-3.94 4.722-8.182 9.162-12.387 13.648-4.388 4.683-8.567 9.531-12.73 14.414l-3.079 3.606-1.567 1.837a417.77 417.77 0 0 1-9.808 11.037 208.087 208.087 0 0 0-9.125 10.626c-4.073 5.054-8.437 9.766-12.883 14.488-4.085 4.363-7.892 8.889-11.628 13.554-3.092 3.758-6.4 7.302-9.696 10.88-2.485 2.77-4.834 5.616-7.168 8.515a116.193 116.193 0 0 1-9.87 10.813c-1.685 1.68-3.105 3.47-4.442 5.437-1.875-.125-1.875-.125-4-1-1.905-4.468-2.248-8.43-2.375-13.25-.356-8.939-1.72-17.667-3.166-26.487l-.522-3.197-.508-3.093c-.41-2.839-.655-5.648-.863-8.508-.338-3.696-.841-5.83-3.628-8.465-1-.979-1.985-1.975-2.938-3v-2l-2.64-.633c-4.03-1.64-6.327-4.027-9.11-7.242l-1.457-1.605c-2.415-2.711-4.197-5.285-5.793-8.52l-3-2v-2h-2c-3-5.75-3-5.75-3-8l-1.805-.297c-2.659-.852-3.538-1.822-5.32-3.953l-1.809-2.156a475.218 475.218 0 0 1-8.514-11.025C322.216 72.475 319.76 69.717 317 67l-1.313-2.313c-1.93-3.074-4.198-5.283-6.792-7.8-3.148-3.135-6.009-6.513-8.895-9.887l-1.773-2.063c-1.412-1.643-2.82-3.29-4.227-4.937h3l-.773-2.18C296 35 296 35 297.773 32.492l2.602-2.617a808.97 808.97 0 0 0 2.8-2.91l1.44-1.489c2.108-2.247 4.022-4.636 5.947-7.038C315.44 12.398 320.507 6.492 326 1l1.688 1.941c4.164 4.72 8.356 9.094 13.152 13.164 7.434 6.52 13.96 13.685 20.113 21.41A69.855 69.855 0 0 0 366.5 43.5c5.557 5.391 10.354 11.533 14.91 17.781C387.576 69.686 394.261 77.584 404 82c-4.826 5.768-9.96 11.056-15.36 16.285-3.497 3.596-6.637 7.446-9.798 11.338-1.239 1.495-2.536 2.94-3.842 4.377h-2l-1 6c1.695 1.668 1.695 1.668 4 3 6.382-.327 10.55-4.31 14.656-8.787l1.594-1.775 1.64-1.788c2.877-3.094 2.877-3.094 5.11-6.65h2l.652-1.621c1.84-3.248 4.346-5.763 6.91-8.442 3.821-4.057 7.51-8.149 11-12.5 3.61-4.496 7.433-8.746 11.359-12.963 2.93-3.168 5.7-6.415 8.392-9.787 5.33-6.62 11.186-12.728 17.015-18.906a541.125 541.125 0 0 0 15.297-16.968c2.917-3.375 6.046-6.445 9.309-9.485 2.193-2.228 2.193-2.228 3.266-5.093 6.132-13.008 21.45-9.794 33.734-9.66Z"/><path fill="#00525A" d="m152.37 78.956 3.846-.148c4.217-.157 8.433-.258 12.651-.351l2.188-.05c6.841-.154 13.682-.287 20.525-.372 7.905-.099 15.799-.254 23.698-.573 57.37-2.267 57.37-2.267 72.73 11.03 6.208 5.941 11.227 12.684 15.886 19.87 3.793 5.619 8.773 10.419 13.606 15.138a181.271 181.271 0 0 1 10.758 11.54c1.996 2.246 4.102 4.349 6.242 6.46a165.644 165.644 0 0 1 9.355 10.07c2.98 3.375 6.064 6.648 9.145 9.93 4.167 4.444 8.305 8.896 12.27 13.523 3.176 3.63 6.496 7.133 9.789 10.657C377 188 377 188 377 190l1.875.75C381 192 381 192 381.934 193.906c1.165 2.288 2.244 3.28 4.253 4.844 7.543 6.257 13.272 14.286 19.262 21.98l1.334 1.701a201.2 201.2 0 0 1 3.049 4.057c2.469 2.86 5.193 5.184 8.058 7.637 3.447 3.063 6.545 6.429 9.672 9.812l4.208 4.516 2.13 2.295a994.096 994.096 0 0 0 6.05 6.424c6.472 6.832 12.769 13.75 18.833 20.948 3.773 4.447 7.8 8.564 11.97 12.642 3.849 3.834 7.327 7.968 10.833 12.113 2.179 2.566 4.345 5.056 6.726 7.437 3.295 3.295 6.34 6.78 9.407 10.286 2.277 2.398 4.69 4.356 7.281 6.402a381.113 381.113 0 0 1 5 6 90.82 90.82 0 0 0 8.312 7.75L521 343v1c-7.311.055-14.621.066-21.933.023-3.396-.018-6.79-.022-10.186.008-3.91.034-7.818.003-11.729-.031l-3.668.059c-8.284-.141-8.284-.141-11.747-2.79-1.767-2.008-3.25-4.05-4.737-6.269-1-1.133-2.019-2.25-3.063-3.344l-1.463-1.575L451 328.5c-3.832-4.131-7.616-8.29-11.3-12.555-1.994-2.282-4.035-4.517-6.075-6.758a223.967 223.967 0 0 1-8.813-10.375c-4.905-6.069-10.242-11.7-15.59-17.378-4.42-4.696-8.636-9.531-12.765-14.485-4.924-5.897-9.907-11.543-15.414-16.914-2.525-2.515-4.844-5.168-7.164-7.87-2.252-2.594-4.563-5.129-6.879-7.665a664.873 664.873 0 0 1-10.242-11.492 635.209 635.209 0 0 0-13.684-15.149c-4.636-4.968-9.203-9.922-13.449-15.234-5.317-6.623-11.179-12.716-17-18.892-4.792-5.112-9.441-10.35-14-15.67-3.341-3.847-6.944-7.412-10.569-10.988-3.317-3.288-6.416-6.697-9.447-10.247-2.172-2.468-4.512-4.743-6.859-7.043-2.4-2.449-4.594-5.056-6.781-7.695L263 120l-1.347-1.493c-4.26-4.23-7.43-5.2-13.378-5.254l-2.984.066-3.195-.003c-3.469.004-6.936.051-10.405.098-2.411.011-4.822.02-7.234.026-6.334.023-12.668.082-19.002.148-6.469.061-12.937.089-19.406.119-12.683.064-25.366.165-38.049.293l-.93 1.893c-1.717 3.38-4.012 6.313-6.258 9.357l-1.384 1.91c-6.195 8.438-13.31 15.924-20.678 23.34l-2.43 2.492-2.336 2.352-2.102 2.13C110 159 110 159 107 159a704.456 704.456 0 0 1-.494-15.686c-.045-1.775-.107-3.55-.185-5.324-.716-16.63-.716-16.63 4.906-22.822A185.118 185.118 0 0 1 116 111a61.01 61.01 0 0 0 2.715-3.363c1.572-2.086 3.148-4.17 4.726-6.25l1.267-1.679c2.205-2.915 4.437-5.81 6.667-8.708l2.398-3.125L136 85l1.366-2.614c4.344-3.935 9.335-3.292 15.005-3.43Z"/><path fill="#008688" d="M142.703 36.854c1.602-.023 3.205-.048 4.807-.077a870.54 870.54 0 0 1 13.024-.082c3.635-.005 7.27-.032 10.905-.058 8.587-.06 17.173-.075 25.76-.064 8.829.01 17.653-.066 26.48-.183 7.602-.096 15.202-.134 22.804-.127 4.53.004 9.058-.016 13.588-.093 31.159-.499 31.159-.499 39.61 7.087a58.162 58.162 0 0 1 6.169 7.98c1.562 2.395 3.449 4.43 5.4 6.513l1.453 1.734c1.301 1.565 1.301 1.565 2.887 3.078C317 64 317 64 318.313 66.25c1.757 2.865 3.735 5.209 5.945 7.727 1.995 2.316 3.9 4.693 5.805 7.085l2.046 2.563c1.141 1.433 2.278 2.87 3.407 4.312 2.125 2.664 3.174 3.96 6.484 5.063 3 5.222 3 5.222 3 8h2c1.193 1.364 2.377 2.737 3.508 4.152 2.203 2.728 4.543 5.332 6.867 7.957 1.299 1.511 2.51 3.097 3.688 4.703 1.832 2.374 1.832 2.374 4.75 3.438 4.808 2.64 7.585 5.923 10.187 10.75 1.358 5.395 1.886 10.782 2.375 16.312.222 2.182.453 4.363.684 6.543.203 1.964.388 3.93.571 5.896.29 2.542.726 4.791 1.37 7.249.202 2.794.37 5.577.5 8.375.232 4.952.57 9.741 1.5 14.625l3 1-2 3c-3.263-1.088-3.878-1.75-6-4.313a342.726 342.726 0 0 0-9.188-10.375l-1.403-1.527c-2.507-2.727-5.02-5.447-7.538-8.164l-1.58-1.706a2092.82 2092.82 0 0 0-2.968-3.199 366.738 366.738 0 0 1-7.749-8.642c-3.417-3.921-6.941-7.729-10.512-11.512l-1.931-2.052a3581.99 3581.99 0 0 1-10.38-11.045L320.562 128l-1.932-2.064a367.296 367.296 0 0 0-11.463-11.686 162.159 162.159 0 0 1-5.18-5.652l-1.894-2.155a216.835 216.835 0 0 1-4.315-5.204c-8.834-10.888-17.125-20.95-31.701-22.885-6.092-.396-12.113-.443-18.21-.279-3.678.079-7.355.037-11.034.015a757.98 757.98 0 0 0-18.478.186c-7.085.15-14.157.153-21.243.078-6.88-.07-13.756-.037-20.636.043-2.9.031-5.798.029-8.698-.003-16.5-.662-16.5-.662-30.542 6.516-3.133 3.68-5.61 7.597-7.929 11.827-2.065 3.573-4.642 6.698-7.246 9.888a383.135 383.135 0 0 0-3.682 4.769C115 113 115 113 113.16 114.489c-4.45 3.92-5.585 7.352-5.974 13.1-.153 4.305-.153 8.603-.124 12.911-.014 1.794-.03 3.589-.05 5.383-.04 4.373-.038 8.744-.013 13.117 3.867-2.127 6.767-4.532 9.863-7.668l2.686-2.705 2.763-2.815 2.823-2.85c2.293-2.316 4.58-4.637 6.865-6.962 3.851 3.078 7.065 6.043 10.125 9.937 4.18 5.233 8.5 10.322 12.89 15.38 2.154 2.493 4.154 4.936 5.985 7.683-.605 6.995-5.152 14.101-9.688 19.312-2.365 2.75-3.823 5.397-5.312 8.688-3.605-.56-4.985-1.739-7.262-4.54-3.703-4.427-7.588-8.638-11.55-12.835l-2.104-2.232A589.12 589.12 0 0 0 109 161c-6.454 1.722-12.42 3.954-18.457 6.816-3.83 1.783-7.756 3.268-11.71 4.749l-2.177.815L75 174c-.811-15.672-1.389-31.343-1.57-47.036a537.012 537.012 0 0 0-.164-7.492 568.982 568.982 0 0 1-.18-11.019l-.131-3.346c.015-6.466 1.068-9.824 5.426-14.705A182.567 182.567 0 0 1 83 86a447.12 447.12 0 0 0 2.82-2.883l2.305-2.242a172.774 172.774 0 0 0 9.832-10.547c2.782-3.17 5.664-6.245 8.543-9.328 3.502-3.755 6.997-7.508 10.375-11.375l1.5-1.676c1.661-1.901 1.661-1.901 2.91-4.013 5.38-7.87 12.754-7.117 21.418-7.082Z"/><path fill="#013039" d="M376 300h3a72.063 72.063 0 0 1 4.438 5.625 237.035 237.035 0 0 0 11.75 14.625c4.447 5.122 8.735 10.324 12.812 15.75-.875 1.969-.875 1.969-2 4l-4 1-.871 1.746c-1.368 2.731-3.107 4.585-5.192 6.817a209.995 209.995 0 0 0-9.25 10.75c-4.807 5.936-9.966 11.498-15.182 17.073-2.372 2.544-4.72 5.11-7.067 7.676l-2.72 2.97-1.355 1.48c-1.844 2.013-3.69 4.025-5.537 6.037a5460.54 5460.54 0 0 0-4.135 4.514 1952.43 1952.43 0 0 1-5.289 5.75c-4.044 4.4-7.973 8.838-11.714 13.5-4.636 5.746-9.644 11.096-14.692 16.476-2.783 2.969-5.468 6.009-8.125 9.09-3.052 3.46-6.2 6.829-9.346 10.203l-1.462 1.574-1.432 1.511c-1.67 1.815-1.67 1.815-3.103 3.875-4.137 5.504-4.137 5.504-7.783 6.695-2.67.276-5.24.301-7.923.238l-3.062.025c-3.379.018-6.755-.02-10.133-.06-2.425.001-4.85.005-7.275.013-5.897.01-11.794-.017-17.691-.061-6.87-.05-13.74-.055-20.611-.059-12.26-.008-24.519-.053-36.778-.12a8625.273 8625.273 0 0 0-35.674-.123l-2.22-.003-8.834-.011c-11.34-.015-22.679-.046-34.018-.081l-10.272-.029c-7.807-.02-15.615-.048-23.422-.093-2.367-.013-4.733-.022-7.1-.027a2008.8 2008.8 0 0 1-9.68-.052l-2.845.001c-4.73-.048-8.855-.205-13.207-2.295-1.29-3.87-.563-6.37 1-10 1.856-3.06 3.968-5.896 6.125-8.75l1.763-2.383c1.16-1.568 2.325-3.134 3.494-4.697 2.154-2.889 4.26-5.81 6.368-8.733 3.123-4.31 3.123-4.31 4.25-5.437 2.657-.1 5.288-.133 7.945-.125l2.554-.004c2.845-.004 5.691 0 8.537.003a13121.322 13121.322 0 0 1 19.252-.012 9960.87 9960.87 0 0 0 20.798-.03l3.54-.007 7.17-.016c16.147-.035 32.294-.062 48.442-.06 10.88.002 21.762-.014 32.642-.05 5.762-.019 11.524-.028 17.286-.016 5.421.012 10.841 0 16.262-.03 1.99-.006 3.982-.004 5.973.007 2.716.014 5.43-.003 8.146-.027.79.01 1.58.022 2.394.034 4.063-.071 5.826-.474 8.996-3.106L272 420l1.463-1.615 1.193-1.408 1.389-1.631 1.455-1.721 3.191-3.742 1.653-1.94c8.079-9.478 16.294-18.78 24.8-27.877 3.835-4.104 7.516-8.326 11.163-12.596l4.568-5.345 1.576-1.845a456.717 456.717 0 0 1 9.236-10.467 225.587 225.587 0 0 0 8.688-10.188c4.16-5.143 8.569-10 13.063-14.848a359.608 359.608 0 0 0 7.8-8.77c2.888-3.29 5.87-6.496 8.844-9.71 1.714-2.053 2.86-3.857 3.918-6.297Z"/><path fill="#02464D" d="M71 181c1.798 1.42 1.798 1.42 3.46 3.254.63.682 1.26 1.364 1.907 2.067l2.008 2.242 4.273 4.656 2.187 2.406c3.353 3.679 6.758 7.308 10.165 10.938l1.898 2.029a407.852 407.852 0 0 0 11.422 11.701c1.757 1.785 3.411 3.63 5.055 5.52l1.644 1.86a103.136 103.136 0 0 1 4.054 5.1c4.576 5.811 4.576 5.811 10.956 9.218 3.478.342 6.804.346 10.296.223l3.93-.005c2.803-.003 5.603-.04 8.405-.105 4.434-.102 8.867-.121 13.303-.13 8.61-.027 17.218-.136 25.827-.254 10.97-.148 21.938-.26 32.908-.294a791.51 791.51 0 0 0 13.21-.165c2.08-.037 4.16-.055 6.24-.066 2.53-.013 5.06-.055 7.588-.132 8.077.026 8.077.026 11.524 2.672 1.771 2.007 3.26 4.039 4.74 6.265 1.66 1.839 3.327 3.673 5 5.5a634.4 634.4 0 0 1 10.297 11.55c1.84 2.106 3.709 4.183 5.578 6.262 2.963 3.317 5.78 6.719 8.563 10.188 3.65 4.525 7.554 8.573 11.812 12.527 1.86 2.098 2.192 3.294 2.75 5.973-10.172.093-20.259.127-30.402-.738-3.974-.283-7.932-.294-11.914-.305-2.028-.02-4.055-.043-6.083-.068-1.998-.014-3.995.008-5.993.031-10.559-.147-10.559-.147-15.12-4.084A119.99 119.99 0 0 1 239 293a331.386 331.386 0 0 0-3.336-3.203 834.83 834.83 0 0 1-3.039-3.047l-1.574-1.563c-2.297-2.302-4.24-4.471-6.051-7.187-2.16-.443-2.16-.443-4.704-.352l-3.008-.007-3.312.038-3.48.003c-2.5.004-5 .014-7.501.03-3.96.022-7.919.024-11.878.018-11.26-.013-22.52.004-33.781.06-6.217.031-12.433.037-18.65.016-3.288-.01-6.575-.003-9.863.028-3.675.033-7.348.024-11.023.005l-3.275.062c-6.69-.09-10.17-1.33-14.916-6.113L98 270l-1.455-1.508c-1.358-1.427-2.67-2.897-3.983-4.367-5.626-6.228-11.525-12.155-17.511-18.037a206.251 206.251 0 0 1-11.405-12.22C61.22 231.116 58.626 228.56 56 226c-3.283-3.234-6.48-6.46-9.438-10-3.684-4.364-7.935-8.103-12.208-11.877-4.249-3.808-4.249-3.808-5.354-7.123a25228.936 25228.936 0 0 1 15.358-7.144c3.095-1.44 6.192-2.877 9.294-4.303 2.04-.946 4.073-1.91 6.09-2.903l2.356-1.134 1.957-.976c2.67-.741 4.321-.387 6.945.46Z"/><path fill="#00313A" d="m642 37-2.816 2.781-3.746 3.719c-.61.6-1.219 1.201-1.846 1.82-3.788 3.768-7.37 7.65-10.861 11.693-2.835 3.254-5.778 6.403-8.731 9.55l-1.938 2.068c-5.219 5.54-10.582 10.924-15.991 16.279-3.59 3.567-7.007 7.2-10.27 11.07-2.487 2.79-5.143 5.394-7.801 8.02-3.883 3.84-7.622 7.724-11.168 11.883-2.348 2.714-4.776 5.352-7.207 7.992-6.934 7.545-13.797 15.131-20.438 22.938-5.411 6.354-11.019 12.502-16.712 18.604-2.441 2.62-4.866 5.257-7.288 7.895l-1.388 1.512a371.936 371.936 0 0 0-7.486 8.426c-2.29 2.649-4.678 5.122-7.188 7.563-4.002 3.932-7.455 8.215-10.965 12.585-2.34 2.82-4.828 5.366-7.46 7.907-2.55 2.542-4.876 5.266-7.22 7.996A73.982 73.982 0 0 1 470 223a88.982 88.982 0 0 0-2 4l-2.938-.063c-2.937-.293-2.937-.293-4.062 1.063a55.836 55.836 0 0 1-4.013.145l-2.58.02-2.805.003-2.867.01c-2.006.005-4.011.007-6.017.007-3.073.002-6.145.02-9.218.04-1.945.003-3.89.005-5.836.005l-2.794.022-2.598-.01-2.286.005C418 228 418 228 415 226c1.562-3.68 3.836-6.165 6.563-9.063 3.394-3.648 6.637-7.353 9.75-11.25 4.632-5.743 9.638-11.09 14.683-16.468 2.828-3.017 5.565-6.1 8.266-9.23 2.21-2.53 4.474-5.008 6.738-7.489 3.456-3.79 6.865-7.61 10.23-11.48 3.546-4.047 7.166-8.026 10.77-12.02l2.188-2.438c4.118-4.588 8.263-9.15 12.437-13.687 2.977-3.237 5.935-6.486 8.813-9.813 3.58-4.13 7.298-8.128 11.012-12.137 5.268-5.69 10.452-11.451 15.612-17.237 5.137-5.74 10.37-11.384 15.633-17.008 18.145-17.853 18.145-17.853 33.553-37.757C583 37 583 37 585.51 36.474l3.03-.036 3.438-.07 3.712-.013 3.807-.057c2.658-.036 5.314-.066 7.971-.082 3.41-.02 6.818-.063 10.227-.114 3.248-.048 6.497-.085 9.745-.122l3.719-.043 3.428-.022 3.028-.024C640 36 640 36 642 37Z"/><path fill="#008889" d="M416.82 227.117c3.19 1.292 4.801 3.431 7.055 6.008l2.64 3.004L429 239l1.984 2.215C435 245.737 435 245.737 435 248h2c1.305 1.293 1.305 1.293 2.875 3.188 3.15 3.701 6.385 7.31 9.688 10.875l1.533 1.658c3.417 3.688 6.849 7.362 10.283 11.033 5.178 5.536 10.317 11.097 15.371 16.746a947.771 947.771 0 0 0 7.875 8.625l1.506 1.633c2.865 3.1 5.75 6.179 8.654 9.242 6.373 6.732 12.573 13.46 18.34 20.723 1.716 2.084 3.497 3.966 5.438 5.84L521 340v2h2l.5 3c1.233 4.346 3.862 6.729 7.137 9.715 2.012 1.946 3.81 3.92 5.633 6.039 3.713 4.292 7.68 8.273 11.73 12.246a257.308 257.308 0 0 1 15 16c1.496 1.67 2.995 3.338 4.5 5a595.524 595.524 0 0 1 7.875 8.875c3.035 3.482 6.133 6.904 9.25 10.313l1.38 1.513a161.403 161.403 0 0 0 6.83 7.037C595 424 595 424 595 426l-7-1 2-1-1.46-1.61-1.915-2.14-1.898-2.11c-1.606-1.99-2.592-3.87-3.727-6.14-2.034-1.268-2.034-1.268-4-2v-2h-3a769.34 769.34 0 0 1-3-5 116.55 116.55 0 0 0-3.5-3.5c-2.744-2.653-4.583-5.189-6.5-8.5a495.853 495.853 0 0 0-5-5c-2.145-2.252-4.259-4.533-6.375-6.813a2581.38 2581.38 0 0 0-11.7-12.515c-.666-.708-1.332-1.416-2.02-2.145-1.279-1.359-2.56-2.716-3.842-4.071-3.497-3.715-6.84-7.501-10.063-11.456-4.044 1.572-6.506 4.452-9.313 7.625l-1.478 1.642a782.27 782.27 0 0 0-9.404 10.682c-2.21 2.511-4.478 4.965-6.743 7.426-3.077 3.368-6.016 6.77-8.812 10.375-4.642 5.918-9.83 11.303-14.984 16.77a288.21 288.21 0 0 0-8.63 9.593c-2.015 2.324-4.074 4.604-6.136 6.887a557.503 557.503 0 0 0-7.813 8.813c-2.605 2.998-5.286 5.916-7.995 8.82-4.999 5.36-9.804 10.793-14.364 16.539-2.105 2.557-4.27 5.033-6.474 7.505l-2.186 2.454L416 466c7.745.326 15.488.574 23.238.725 3.601.073 7.197.171 10.795.331 16.579 1.506 16.579 1.506 31.334-3.95 2.702-2.845 4.734-5.968 6.632-9.391 1.393-2.387 3.165-4.258 5.095-6.223l1.742-1.86 1.664-1.757 1.758-1.875a373.86 373.86 0 0 1 8.742-9l1.769 1.8a2677 2677 0 0 0 6.654 6.733c1.415 1.43 2.824 2.864 4.233 4.299A180.487 180.487 0 0 0 538 462l2.005 2.076c4.348 2.794 8.132 2.496 13.201 2.47l3.106.031c3.382.03 6.763.031 10.145.032a3989.432 3989.432 0 0 0 25.56.129c6.301.02 12.602.062 18.903.102 12.36.075 24.72.123 37.08.16v-35h1v36H354c0-6.532 7.451-12.498 11.953-17.004 1.531-1.513 3.07-3.018 4.61-4.522a106.951 106.951 0 0 0 8.75-9.724c5.554-6.986 11.745-13.359 17.878-19.833 11.812-12.522 23.24-25.405 34.434-38.48 2.124-2.48 4.25-4.958 6.375-7.437l1.62-1.89c1.624-1.894 3.252-3.783 4.88-5.673l1.432-1.672a118.592 118.592 0 0 1 3.167-3.515c2.064-2.33 2.064-2.33 3.95-5.58 3.403-5.087 6.751-8.94 12.914-10.346 8.75-.962 17.512-.506 26.287-.137 2.691.073 5.383.126 8.074.178 6.562.143 13.118.36 19.676.635l-1.439-1.205-1.897-1.604c-.62-.52-1.238-1.042-1.876-1.58-2.576-2.321-4.608-4.914-6.788-7.611a107.197 107.197 0 0 0-7.363-7.066c-4.99-4.37-8.942-8.445-12.637-13.934a250.744 250.744 0 0 0-5-5c-5.313-5.236-10.516-10.476-15.363-16.148-1.601-1.811-3.274-3.486-5.012-5.164-2.909-2.851-5.454-5.885-8-9.063-3.593-4.467-7.4-8.511-11.504-12.508-2.605-2.6-4.98-5.359-7.375-8.152-2.467-2.776-5.118-5.348-7.766-7.95-2.596-2.641-4.97-5.449-7.375-8.265-1.705-1.954-1.705-1.954-4.48-4-2.305-1.899-2.812-2.828-3.125-5.75 2-1 2-1 3.82-.883Z"/><path fill="#FAFBFB" d="M325 0h166c-4.38 8.759-11.342 15.432-18.277 22.215-2.594 2.653-4.915 5.383-7.223 8.285-3.161 3.971-6.505 7.635-10.125 11.188C451.019 45.965 446.93 50.331 443 55l-2.414 2.855a9456.589 9456.589 0 0 0-4.115 4.87c-8.218 9.724-16.556 19.322-25.178 28.69-3.072 3.464-5.9 7.096-8.7 10.784L401 104h-2l-.637 1.59c-1.936 3.423-4.506 6.103-7.175 8.972l-1.58 1.749c-2.937 3.178-5.648 5.79-9.608 7.689-3.87-.189-6.085-1.517-9-4 .593-3.434 1.78-5.204 4.125-7.75l1.906-2.098L379 108c1.211-1.393 2.42-2.79 3.625-4.188 2.66-3.081 5.481-5.948 8.375-8.812l3.113-3.113L403 83l-1.668-1.242c-6.914-5.212-13.33-10.202-18.457-17.238-2.335-3.138-4.84-6.106-7.375-9.082l-1.449-1.704c-5.85-6.862-11.82-13.607-17.867-20.297A387.353 387.353 0 0 1 350.562 27c-5.353-6.136-11.064-12.032-17.375-17.188C330 7 330 7 325 0Z"/><path fill="#15C4BE" d="M316 304c-1.484 3.487-3.462 5.642-6.188 8.25-2.877 2.809-5.642 5.627-8.25 8.688-2.718 3.172-5.59 6.125-8.562 9.062-2.91 2.876-5.724 5.759-8.375 8.875-3.04 3.558-6.299 6.84-9.625 10.125-3.226 3.191-6.417 6.367-9.375 9.813l-1.583 1.725c-1.666 2.009-2.955 3.91-4.326 6.11-3.906 5.693-8.005 10.395-14.891 12.171-8.877 1.127-17.805.758-26.725.443-3.932-.12-7.865-.14-11.799-.168-9.977-.088-19.95-.305-29.926-.531-10.781-.242-21.56-.457-32.344-.54a451.336 451.336 0 0 1-11.707-.23c-16.855-1.418-16.855-1.418-31.83 4.26-3.172 3.316-5.29 6.943-7.494 10.947-2.07 2.287-2.07 2.287-3.813 3.875-4.155 4.026-7.86 8.402-11.617 12.799l-3.192 3.734c-1.07 1.25-2.137 2.503-3.203 3.756l-1.503 1.762-1.34 1.575c-2.104 2.368-3.819 4.236-6.66 5.69-3.809 2.579-5.886 5.96-8.422 9.747-1.051 1.54-2.105 3.079-3.16 4.617l-1.571 2.292a117.708 117.708 0 0 1-4.265 5.66C38.339 455.904 38.339 455.904 37 465l6 2v1H0c-2.912-44.4-2.912-44.4 3.762-53.848 3.575-3.835 7.574-6.796 11.996-9.587 3.738-2.61 6.375-6.063 9.242-9.565a264.414 264.414 0 0 1 3.063-3.344l1.476-1.59 2.922-3.132a294.174 294.174 0 0 0 7.789-8.715c5.141-5.904 10.793-11.307 16.367-16.797 4.469-4.428 8.78-8.906 12.877-13.68 2-2.314 4.103-4.508 6.256-6.68l2.234-2.277C80 337 80 337 83 336c6.112 4.074 8.713 12.135 11.31 18.803 2.63 6.207 5.437 11.82 10.69 16.197 9.212 3.683 19.765 2.769 29.522 2.433 3.883-.11 7.765-.095 11.649-.093 7.338-.015 14.67-.142 22.006-.31 8.35-.186 16.7-.246 25.053-.296 16.46-.101 32.916-.344 49.374-.688 1.465-.028 2.93-.046 4.396-.046 1.124-1.09 2.24-2.188 3.32-3.32 2.1-2.1 4.324-4.033 6.555-5.993a103.174 103.174 0 0 0 10.281-10.59c2.905-3.304 6.068-6.341 9.219-9.41 2.703-2.767 5.227-5.642 7.76-8.563C289.89 327.57 295.982 321.31 302 315l1.758-1.85a609.712 609.712 0 0 1 4.555-4.712l2.55-2.63C313 304 313 304 316 304Z"/><path fill="#00666D" d="M258 172c3.014 1.342 5.007 2.793 7.25 5.203l1.824 1.95L269 181.25l2.024 2.178c4.57 4.95 8.945 10.037 13.268 15.203 4.883 5.743 10.252 10.968 15.626 16.248a153.077 153.077 0 0 1 13.039 14.637c2.99 3.636 6.341 6.863 9.703 10.152 2.66 2.65 5.12 5.42 7.563 8.27 2.057 2.387 4.164 4.724 6.277 7.062a595.524 595.524 0 0 1 7.875 8.875c3.408 3.913 6.915 7.732 10.426 11.551 6.517 7.09 12.97 14.227 19.199 21.574-1.75 1.75-4.26 1.462-6.645 1.719l-3.49.386-3.678.395c-2.381.258-4.763.518-7.144.781l-3.218.346c-2.36.312-4.526.79-6.825 1.373-2.992.324-5.995.462-9 .625l-2.445.156-2.368.133-2.144.124C325 303 325 303 322.863 302.443c-1.94-.672-1.94-.672-3.863.557l-.996-1.398c-3.649-5.004-7.615-9.602-11.79-14.172a324.371 324.371 0 0 1-5.589-6.305 353.587 353.587 0 0 0-7.576-8.4 312.595 312.595 0 0 1-13.986-16.186c-3.598-4.429-7.242-8.807-11.38-12.742-3.342-3.483-6.078-7.243-8.87-11.172l-1.707-2.392A2007.06 2007.06 0 0 1 252 223l-1.56-2.19a572.412 572.412 0 0 1-4.19-5.998l-1.266-1.776c-2.729-4.023-4.173-7.148-3.984-12.036 1.233-2.365 2.68-4.427 4.259-6.578 2.942-4.093 5.224-8.555 7.616-12.984l1.508-2.768c1.21-2.221 2.415-4.445 3.617-6.67Z"/><path fill="#005158" d="m378 299-2 1-.715 2.117c-1.83 4.105-4.732 6.818-7.848 10.008-4.994 5.223-9.708 10.539-14.222 16.188-3.397 4.121-7.036 8.008-10.664 11.925-4.224 4.574-8.285 9.279-12.328 14.012-5.336 6.245-10.699 12.448-16.22 18.531a398.343 398.343 0 0 0-5.378 6.094 353.767 353.767 0 0 1-7.575 8.4 299.928 299.928 0 0 0-13.788 15.995c-2.416 2.916-4.943 5.698-7.512 8.48-2.768 3-5.37 5.952-7.688 9.313C270 424 270 424 267 426l-3-1v-3a144.486 144.486 0 0 0-2.52-6.355l-.785-1.88c-.83-1.987-1.669-3.97-2.507-5.952-9.74-23.158-9.74-23.158-8.188-27.813l.188-2c.812-2 .812-2 3.812-4.438 3.191-2.178 3.191-2.178 3.43-4.953.742-3.395 2.166-4.577 4.695-6.921 2.874-2.743 5.626-5.464 8.188-8.5 3.062-3.577 6.34-6.882 9.687-10.188 3.92-3.873 7.654-7.808 11.227-12.008 2.966-3.332 6.186-6.412 9.359-9.547 2.103-2.13 4.09-4.3 6.039-6.57 3.565-4.15 7.231-8.293 11.375-11.875h2l1-2 1.996.52c3.74.598 7.31.42 11.067.168l2.297-.145c5.2-.361 10.26-1.059 15.39-1.992 4.217-.715 8.442-1.28 12.688-1.801l2.333-.316c4.327-.51 7.25-.554 11.229 1.566Z"/><path fill="#47E0DA" d="M117.656-1.249c2.002.003 4.003.002 6.004-.005 5.416-.003 10.83.062 16.244.139 5.665.069 11.33.075 16.996.088 10.721.034 21.44.124 32.16.235 12.209.123 24.416.183 36.625.238C250.79-.439 275.895-.245 301 0v1L145 2v1c-1.174.09-1.174.09-2.371.184l-3.066.254c-1.01.08-2.02.162-3.06.246-2.44.048-2.44.048-3.503 1.316-1.854.087-3.71.107-5.566.098l-3.409-.01-3.587-.025-3.6-.014C113.892 5.037 110.946 5.02 108 5c.416 4.954.86 7.616 4.625 10.938 4.75 4.392 9.617 8.993 12.854 14.644 3.826 3.67 7.371 3.116 12.491 3.062l3.079.026c3.388.024 6.774.013 10.162.002 2.398.01 4.797.023 7.195.039 6.368.034 12.736.04 19.104.038 6.257.002 12.514.027 18.771.052a5164913263.78 5164913263.78 0 0 1 11.153.045c3.713.013 7.427.024 11.14.034 25.48.078 50.952.56 76.426 1.12v2h2v3l-2.076-.487c-3.283-.576-6.381-.673-9.715-.714l-2.031-.028c-2.24-.03-4.478-.053-6.718-.075l-4.825-.059c-14.671-.173-29.344-.267-44.016-.34A3952.93 3952.93 0 0 1 195.112 38c-7.63-.098-15.26-.15-22.89-.17a876.056 876.056 0 0 1-13.654-.13c-4.288-.077-8.571-.098-12.859-.076a171.27 171.27 0 0 1-4.698-.068c-9.322-.273-9.322-.273-17.3 4.028-2.866 2.93-5.27 6.128-7.711 9.416a301.38 301.38 0 0 1-4.625 5.125c-2.173 2.419-4.343 4.84-6.512 7.262-17.01 18.964-17.01 18.964-26.12 27.808-3.885 4.024-4.037 7.148-4.03 12.458l-.02 2.356c-.014 1.687-.023 3.375-.029 5.063-.008 2.668-.028 5.336-.052 8.004-.057 6.626-.092 13.251-.128 19.877-.03 5.6-.07 11.2-.12 16.8-.02 2.633-.028 5.266-.036 7.9l-.04 4.824.002 2.23c-.062 5.065-.062 5.065-2.29 7.293h-3l-1-83a1583.98 1583.98 0 0 0-14.974-6.587C46.241 85.475 39.57 82.399 33 79c-1.332-.669-2.665-1.336-4-2 .563-1.875.563-1.875 2-4 3.625-1.25 3.625-1.25 7-2l-.312-2c.774-7.44 6.649-12.627 11.835-17.531a91.224 91.224 0 0 0 5.336-5.824c3.511-4.055 7.263-7.83 11.07-11.602l1.935-1.918c2.67-2.643 5.345-5.283 8.024-7.917 1.977-1.946 3.947-3.9 5.917-5.853l1.78-1.74 1.75-1.74c.569-.558 1.138-1.116 1.723-1.692 2.046-2.162 2.046-2.162 3.578-4.924 6.938-10.876 15.33-9.762 27.02-9.508Z"/><path fill="#003A42" d="m142.6 79.385 3.006.014 3.459-.021 3.782.054 3.992-.002c3.609-.001 7.218.028 10.827.063 3.773.031 7.546.034 11.319.04 7.143.016 14.286.057 21.43.107 8.133.056 16.266.083 24.399.108 16.729.053 33.457.14 50.186.252 0 4.194-.557 4.974-2.879 8.187-1.287 2.081-2.005 4.128-2.809 6.438-2.513 6.676-6.877 11.86-11.312 17.375 2.278 2.328 4.551 4.505 7.125 6.5 2.522 2.193 3.74 3.438 4.875 6.5-2.597-1.05-3.939-1.924-5.713-4.133-3.958-4.824-7.2-7.003-13.358-7.664-6.51-.365-13.015-.216-19.53-.082-2.408.017-4.815.03-7.222.039-6.31.034-12.619.122-18.928.222-6.449.092-12.898.133-19.347.179-12.635.096-25.268.248-37.902.439l-.93 1.893c-1.717 3.38-4.012 6.313-6.258 9.357l-1.384 1.91c-6.195 8.438-13.31 15.924-20.678 23.34l-2.43 2.492-2.336 2.352-2.102 2.13C110 159 110 159 107 159a704.456 704.456 0 0 1-.494-15.686c-.045-1.775-.107-3.55-.185-5.324-.716-16.63-.716-16.63 4.906-22.822A185.118 185.118 0 0 1 116 111a61.01 61.01 0 0 0 2.715-3.363c1.572-2.086 3.148-4.17 4.726-6.25l1.267-1.679c2.205-2.915 4.437-5.81 6.667-8.708l2.398-3.125L136 85l1.789-2.642C140 80 140 80 142.6 79.385Z"/><path fill="#016369" d="M325 1c3.37 2.503 5.951 5.118 8.574 8.383 1.569 1.779 3.245 3.267 5.051 4.805 8.27 7.086 15.548 14.816 22.328 23.328A69.855 69.855 0 0 0 366.5 43.5c5.557 5.391 10.354 11.533 14.91 17.781C387.576 69.686 394.261 77.584 404 82c-4.826 5.768-9.96 11.056-15.36 16.285-3.497 3.596-6.637 7.446-9.798 11.338-1.239 1.495-2.536 2.94-3.842 4.377h-2l-2 4-1.48-1.98c-4.026-4.825-8.578-9.117-13.057-13.518-4.145-4.101-8.115-8.274-11.895-12.716-2.162-2.463-4.499-4.727-6.836-7.022-1.735-1.767-3.344-3.598-4.95-5.483C329.044 72.984 325.063 68.986 321 65c-7.275-7.136-13.943-14.654-20.438-22.5l-1.35-1.625c-1.071-1.29-2.142-2.583-3.212-3.875 1.708-4.152 4.644-7.287 7.563-10.625l1.623-1.877a594.098 594.098 0 0 1 9.689-10.873C318.53 9.605 321.849 5.425 325 1Z"/><path fill="#059999" d="M163.49 334.87c5.313.005 10.625.002 15.938-.004 4.136-.004 8.272-.002 12.409 0 1.963 0 3.927 0 5.89-.002 2.704-.003 5.408.001 8.112.007l2.432-.007c5.5.022 5.5.022 7.729 1.136v2h2c1.629 1.8 1.629 1.8 3.562 4.312A3189791056.213 3189791056.213 0 0 1 226 348c1.452 1.797 2.91 3.588 4.375 5.375l2.238 2.734a909.373 909.373 0 0 0 5.18 6.22l1.399 1.666c1.31 1.558 2.623 3.114 3.937 4.67C245 371 245 371 245 372c-18.115.304-36.23.533-54.347.674-8.412.067-16.823.158-25.235.307-7.334.13-14.666.213-22 .242-3.883.017-7.763.057-11.645.151-3.658.09-7.312.116-10.972.096-1.974.006-3.948.075-5.921.147-3.717-.055-6.421-.24-9.88-1.617-3.567-3.99-5.703-8.16-8-13a218.62 218.62 0 0 0-2.898-4.848c-.827-1.404-1.653-2.809-2.477-4.215l-1.285-2.177c-3.145-5.352-3.145-5.352-4.346-7.863-.96-2.062-.96-2.062-2.994-3.897 26.833-.888 53.644-1.16 80.49-1.13Z"/><path fill="#1ECCC5" d="M39 63c0 2.936-.158 5.192-1 8-2.063 1.813-2.063 1.813-4 3v-2c-2.04 1.363-2.04 1.363-4 3v2l2.098.848a423.644 423.644 0 0 1 17.84 7.777l1.896.875c2.637 1.235 5.182 2.51 7.67 4.023C62.516 92.305 65.784 93.621 69 95l1 84-17 8-6.332 3.004c-1.826.854-3.653 1.707-5.48 2.559l-2.846 1.36-2.737 1.268-2.401 1.132c-2.543.781-3.703.405-6.204-.323a8186.005 8186.005 0 0 1-.363-46.524c-.036-7.201-.085-14.402-.165-21.603a2176.39 2176.39 0 0 1-.13-18.836c-.01-3.323-.035-6.645-.082-9.968-.051-3.715-.058-7.429-.055-11.145l-.076-3.313c.063-6.725 1.255-10.227 6.08-14.987L34 68a617.38 617.38 0 0 0 2.938-3L39 63Z"/><path fill="#005F65" d="M520 348c4.256 1.605 6.859 4.822 9.813 8.125l1.618 1.78a505.402 505.402 0 0 1 8.256 9.345c3.23 3.742 6.726 7.18 10.243 10.648a75.937 75.937 0 0 1 4.82 5.352c2.185 2.776 2.185 2.776 4.688 5.125 2.65 2.716 4.779 5.57 7.003 8.633 1.525 1.95 3.138 3.606 4.934 5.305C574 405 574 405 574 408h3c1.613 1.54 1.613 1.54 3.313 3.625 2.271 2.726 4.561 5.296 7.125 7.75C590 422 590 422 590 424l2 2c-11.529.058-23.056.063-34.585.017a1372.01 1372.01 0 0 0-10.353-.002c-3.712.012-7.421-.01-11.132-.059a345.765 345.765 0 0 0-6.051.015c-8.738-.162-8.738-.162-12.066-2.521C514 419.176 514 419.176 514 416h-2c-1.263-1.454-2.458-2.968-3.625-4.5-6.025-7.563-12.92-14.223-19.822-20.979A484.551 484.551 0 0 1 485 387l2.16-2.344c4.759-5.171 9.493-10.354 14.098-15.664A594.18 594.18 0 0 1 507.5 362a820.656 820.656 0 0 0 10.188-11.504A52.152 52.152 0 0 1 520 348Z"/><path fill="#00767A" d="M71 181c1.798 1.42 1.798 1.42 3.46 3.254.63.682 1.26 1.364 1.907 2.067l2.008 2.242 4.273 4.656 2.187 2.406c3.353 3.679 6.758 7.308 10.165 10.938l1.898 2.029a408.156 408.156 0 0 0 11.426 11.705c2.336 2.374 4.497 4.882 6.668 7.406 4.24 4.85 8.642 9.56 13.008 14.297-4.432 6.862-9.22 13.393-14.188 19.875l-2.154 2.836c-5.727 7.5-5.727 7.5-8.658 10.289a971.564 971.564 0 0 1-3.563-3.5l-2.003-1.969a147.62 147.62 0 0 1-5.618-6.219c-4.205-4.842-8.747-9.315-13.316-13.812-5.161-5.08-10.183-10.182-14.9-15.678-2.406-2.74-4.99-5.278-7.6-7.822-3.283-3.234-6.48-6.46-9.438-10-3.684-4.364-7.935-8.103-12.208-11.877-4.249-3.808-4.249-3.808-5.354-7.123a25228.936 25228.936 0 0 1 15.358-7.144c3.095-1.44 6.192-2.877 9.294-4.303 2.04-.946 4.073-1.91 6.09-2.903l2.356-1.134 1.957-.976c2.67-.741 4.321-.387 6.945.46Z"/><path fill="#08B9B3" d="M290 270c3.517 1.476 5.502 3.393 8 6.25l2.355 2.684c.883 1.021 1.764 2.043 2.645 3.066l1.522 1.758c9.876 11.416 9.876 11.416 14.478 17.242-.688 1.938-.688 1.938-2 4l-2.32.394c-3.308.748-4.504 1.953-6.86 4.36l-2.316 2.342-2.379 2.466-2.355 2.385a277.991 277.991 0 0 0-12.032 13.068c-3.153 3.602-6.45 7.068-9.738 10.548l-2.04 2.17a419.214 419.214 0 0 1-11.472 11.74c-1.394 1.43-2.666 2.977-3.925 4.527-2.665 3.12-5.512 5.667-8.625 8.32-2.441 2.116-4.69 4.362-6.938 6.68l-1.738-2.18c-2.916-3.636-5.87-7.239-8.825-10.843-1.606-1.962-3.21-3.926-4.812-5.891-3.343-4.1-6.688-8.18-10.188-12.149C218 340 218 340 218 338h-2c1.577-3.862 4.04-6.226 7.016-9.105l3.043-2.983c1.588-1.545 3.178-3.087 4.772-4.626 6.696-6.484 12.95-12.848 17.169-21.286 28.939-.19 28.939-.19 40.418.777 7.515.467 15.056.296 22.582.223-2.003-3.615-4.124-6.296-7.125-9.125C292.285 280.57 292.285 280.57 289 274c.438-2.125.438-2.125 1-4Z"/><path fill="#059F9E" d="M501 1a5565.56 5565.56 0 0 1 43.394-.466c6.718-.047 13.434-.11 20.15-.213a1691.14 1691.14 0 0 1 19.453-.175c2.472-.017 4.944-.049 7.415-.098 3.468-.065 6.93-.074 10.399-.07l3.086-.098c4.341.057 7.035.24 10.456 3.058C617.389 5.21 619.204 7.536 621 10a238.878 238.878 0 0 0 3.313 3.813l1.695 1.94a736.86 736.86 0 0 0 7.68 8.497l1.405 1.538A223.35 223.35 0 0 0 643 34l-1 3-1-1c-8.15-1.121-16.427-1.168-24.638-1.331-17.628-.367-35.242-1.116-52.854-1.91-2.918-.132-5.836-.26-8.754-.383-4.145-.176-8.29-.367-12.434-.56l-3.802-.158-3.533-.171-3.076-.14c-6.296-.752-9.727-2.687-14.034-7.285-2.834-2.997-5.572-5.605-8.875-8.062-1.803-2.672-2.98-4.937-4-8l5-5-9-1V1Z"/><path fill="#41DED7" d="m161 170 1 2h96c-1.7 4.248-3.599 8.228-5.75 12.25l-1.069 2c-6.564 12.133-6.564 12.133-11.181 16.75-3.002.204-5.912.283-8.916.275l-2.799.015c-3.064.014-6.127.013-9.191.01l-6.367.014c-4.452.007-8.904.007-13.356.002-5.717-.006-11.434.01-17.151.034-4.384.015-8.767.016-13.15.013-2.11 0-4.218.005-6.326.015-2.943.013-5.885.006-8.828-.006l-2.66.023c-2.422-.02-2.422-.02-6.256-.395-2-3-2-3-2-6h3l.563-2.438c1.32-3.272 2.487-5.02 4.687-7.687 4.212-5.166 6.966-10.849 9.75-16.875Z"/><path fill="#006268" d="M133 242c16.568-.187 33.136-.328 49.705-.414 7.693-.042 15.386-.098 23.08-.19 6.706-.08 13.413-.13 20.12-.149 3.55-.01 7.1-.035 10.65-.093 3.967-.064 7.933-.066 11.9-.062l3.551-.087c7.816.079 7.816.079 11.23 2.735 1.77 2.006 3.272 4.042 4.764 6.26 1.66 1.839 3.327 3.673 5 5.5a634.4 634.4 0 0 1 10.297 11.55c1.84 2.106 3.709 4.183 5.578 6.262 2.963 3.317 5.78 6.719 8.563 10.188 3.65 4.525 7.554 8.573 11.812 12.527 1.86 2.098 2.192 3.294 2.75 5.973-10.172.093-20.259.127-30.402-.738-3.974-.283-7.932-.294-11.914-.305-2.028-.02-4.055-.043-6.083-.068-1.998-.014-3.995.008-5.993.031-10.559-.147-10.559-.147-15.128-4.092A118.762 118.762 0 0 1 239 293a315.102 315.102 0 0 0-3.266-3.133 805.035 805.035 0 0 1-2.984-2.992l-1.523-1.512C223 277.115 223 277.115 223 274c1.477-1.142 3.011-2.211 4.563-3.25 5.728-4.045 10.745-8.602 15.781-13.474 5.024-4.823 10.138-8.862 15.656-13.276l-126-1v-1Z"/><path fill="#016D72" d="m0 421 3 1c3.903.472 7.83.715 11.75 1l3.56.263c14.214.993 28.447 1.383 42.69 1.737-4.195 6.427-8.61 12.653-13.188 18.813l-1.865 2.521c-4.695 6.344-4.695 6.344-6.612 8.797-1.53 2.143-1.806 3.518-2.023 6.119L37 465l6 2v1H0v-47Z"/><path fill="#90F5F0" d="M101 4h2c1.309 1.47 2.545 3.006 3.75 4.563 4.576 5.74 9.492 11.079 14.552 16.396l1.757 1.854 1.572 1.644C126 30 126 30 128 33c1.92.458 1.92.458 4.167.392l2.653.034 2.923-.01c1.016.01 2.032.018 3.078.027 3.398.025 6.796.029 10.195.034 2.4.014 4.802.03 7.203.047 6.385.042 12.769.067 19.153.087 9.995.036 19.99.098 29.984.157 2.48.014 4.962.028 7.443.04 26.739.14 53.469.617 80.201 1.192v2h2v3l-2.076-.487c-3.283-.576-6.381-.673-9.715-.714l-2.031-.028c-2.24-.03-4.478-.053-6.718-.075l-4.825-.059c-14.671-.173-29.344-.267-44.016-.34A3952.93 3952.93 0 0 1 195.112 38c-7.63-.098-15.26-.15-22.89-.17a876.056 876.056 0 0 1-13.654-.13c-4.288-.077-8.571-.098-12.859-.076a171.27 171.27 0 0 1-4.698-.068c-9.322-.273-9.322-.273-17.3 4.028-2.866 2.93-5.27 6.128-7.711 9.416a301.38 301.38 0 0 1-4.625 5.125 5870.63 5870.63 0 0 0-6.512 7.262c-17.01 18.964-17.01 18.964-26.12 27.808-3.885 4.024-4.037 7.148-4.03 12.458l-.02 2.356c-.014 1.687-.023 3.375-.029 5.063-.008 2.668-.028 5.336-.052 8.004-.057 6.626-.092 13.251-.128 19.877-.03 5.6-.07 11.2-.12 16.8-.02 2.633-.028 5.266-.036 7.9l-.04 4.824.002 2.23c-.062 5.065-.062 5.065-2.29 7.293h-3c-.21-11.17-.369-22.34-.466-33.512-.047-5.188-.11-10.376-.213-15.563-.098-5.012-.152-10.023-.175-15.036a338.228 338.228 0 0 0-.098-5.72c-.412-16.791-.412-16.791 5.262-23.171A118.221 118.221 0 0 1 78 81a247.801 247.801 0 0 0 3.914-3.977c1.235-1.218 2.472-2.434 3.711-3.648 4.58-4.52 9.037-9.036 13.078-14.055C100 58 100 58 103 57l.887-1.785c1.469-2.923 3.458-4.518 5.925-6.653 3.524-3.091 6.925-6.2 10.188-9.562l3-3c-1.43-4.29-3.547-7.099-6.5-10.5-.895-1.048-1.788-2.097-2.68-3.148l-1.397-1.648c-2.415-2.892-4.74-5.852-7.048-8.829l-1.326-1.686C101 6.237 101 6.237 101 4Z"/><path fill="#019697" d="M108 118c0 3.87-.115 7.737-.219 11.605l-.067 2.544a38342.777 38342.777 0 0 1-.359 13.49L107 159c3.867-2.127 6.767-4.532 9.863-7.668l2.686-2.705 2.763-2.815 2.823-2.85c2.293-2.316 4.58-4.637 6.865-6.962 3.851 3.078 7.065 6.043 10.125 9.938 4.18 5.232 8.5 10.321 12.89 15.378 2.154 2.494 4.154 4.937 5.985 7.684-.605 6.995-5.152 14.101-9.688 19.313-2.365 2.748-3.823 5.396-5.312 8.687-3.605-.56-4.985-1.739-7.262-4.54C132.498 185 125.707 178.04 119 171l-1.644-1.735A596.314 596.314 0 0 0 113.25 165l-2.234-2.313c-2.113-1.769-3.38-2.132-6.016-2.687-.025-4.09-.043-8.179-.055-12.268a1535.23 1535.23 0 0 0-.02-4.16c-.113-18.285-.113-18.285 1.075-23.572l2-2Z"/><path fill="#39D4CF" d="M316 304c-1.484 3.487-3.462 5.642-6.188 8.25-2.877 2.809-5.642 5.627-8.25 8.688-2.718 3.172-5.59 6.125-8.562 9.062-2.91 2.876-5.724 5.759-8.375 8.875-3.04 3.558-6.299 6.84-9.625 10.125-3.226 3.191-6.417 6.367-9.375 9.813l-1.583 1.725c-1.666 2.009-2.955 3.91-4.326 6.11-3.906 5.693-8.005 10.395-14.891 12.171-8.877 1.127-17.805.758-26.725.443-3.932-.12-7.865-.14-11.799-.168-9.977-.088-19.95-.305-29.926-.531-10.781-.242-21.56-.457-32.344-.54a451.336 451.336 0 0 1-11.707-.23c-16.855-1.418-16.855-1.418-31.83 4.26-3.172 3.316-5.29 6.943-7.494 10.947-2.07 2.287-2.07 2.287-3.813 3.875-4.733 4.586-8.933 9.622-13.156 14.676l-1.604 1.906a524.949 524.949 0 0 0-3.164 3.795C66.686 422.68 66.686 422.68 63 424c1.421-4.549 3.686-6.945 7.125-10.188 4.294-4.138 8.06-8.418 11.71-13.144 2.608-3.214 5.398-6.214 8.228-9.23 3.49-3.751 6.972-7.498 10.25-11.438l1.675-2c1.384-2.735.807-4.078.012-7-1.08-2.159-1.08-2.159-2.477-4.223L98 364.412l-1.624-2.474a3274.256 3274.256 0 0 1-3.277-5.094l-1.61-2.5C88.119 349.036 84.814 343.626 82 338h4c3.13 5.49 6.03 10.903 8.31 16.803 2.63 6.207 5.437 11.82 10.69 16.197 9.212 3.683 19.765 2.769 29.522 2.433 3.883-.11 7.765-.095 11.649-.093 7.338-.015 14.67-.142 22.006-.31 8.35-.186 16.7-.246 25.053-.296 16.46-.101 32.916-.344 49.374-.688 1.465-.028 2.93-.046 4.396-.046 1.124-1.09 2.24-2.188 3.32-3.32 2.1-2.1 4.324-4.033 6.555-5.993a103.174 103.174 0 0 0 10.281-10.59c2.905-3.304 6.068-6.341 9.219-9.41 2.703-2.767 5.227-5.642 7.76-8.563C289.89 327.57 295.982 321.31 302 315l1.758-1.85a609.712 609.712 0 0 1 4.555-4.712l2.55-2.63C313 304 313 304 316 304Z"/><path fill="#EDF3F3" d="M648 432h1v36H476c3.767-5.023 7.21-9.484 11.438-14 6.367-6.85 12.488-13.89 18.562-21 5.058 4.22 9.717 8.66 14.313 13.375 5.59 5.667 11.314 10.84 17.687 15.625l1.996 2.067c4.354 2.802 8.132 2.505 13.21 2.479l3.106.031c3.382.03 6.763.031 10.145.032a3989.432 3989.432 0 0 0 25.56.129c6.301.02 12.602.062 18.903.102 12.36.075 24.72.123 37.08.16v-35Z"/><path fill="#04A8A6" d="M416.82 227.117c3.19 1.292 4.801 3.431 7.055 6.008l2.64 3.004L429 239l1.984 2.215C435 245.737 435 245.737 435 248h2c1.305 1.293 1.305 1.293 2.875 3.188 3.15 3.701 6.385 7.31 9.688 10.875l1.533 1.658c3.417 3.688 6.849 7.362 10.283 11.033 5.178 5.536 10.317 11.097 15.371 16.746a947.771 947.771 0 0 0 7.875 8.625l1.506 1.633c2.865 3.1 5.75 6.179 8.654 9.242 6.373 6.732 12.573 13.46 18.34 20.723 1.716 2.084 3.497 3.966 5.438 5.84L521 340v2h2l.5 3c1.233 4.346 3.862 6.729 7.137 9.715 2.012 1.946 3.81 3.92 5.633 6.039 3.713 4.292 7.68 8.273 11.73 12.246a257.308 257.308 0 0 1 15 16c1.496 1.67 2.995 3.338 4.5 5a595.524 595.524 0 0 1 7.875 8.875c3.035 3.482 6.133 6.904 9.25 10.313l1.38 1.513a161.403 161.403 0 0 0 6.83 7.037C595 424 595 424 595 426l-7-1 2-1-1.46-1.61-1.915-2.14-1.898-2.11c-1.606-1.99-2.592-3.87-3.727-6.14-2.034-1.268-2.034-1.268-4-2v-2h-3a769.34 769.34 0 0 1-3-5 116.55 116.55 0 0 0-3.5-3.5c-2.744-2.653-4.583-5.189-6.5-8.5a495.853 495.853 0 0 0-5-5c-2.145-2.252-4.259-4.533-6.375-6.813a2581.38 2581.38 0 0 0-11.7-12.515c-.666-.708-1.332-1.416-2.02-2.145-1.279-1.359-2.56-2.716-3.842-4.071-3.497-3.715-6.84-7.501-10.063-11.456-4.044 1.572-6.506 4.452-9.313 7.625l-1.478 1.642a782.27 782.27 0 0 0-9.404 10.682c-2.21 2.511-4.478 4.965-6.743 7.426-3.077 3.368-6.016 6.77-8.812 10.375-4.642 5.918-9.83 11.303-14.984 16.77a288.21 288.21 0 0 0-8.63 9.593c-2.015 2.324-4.074 4.604-6.136 6.887-7.317 8.112-7.317 8.112-14.313 16.5L440 439h-2c1.627-3.714 3.947-6.616 6.5-9.75l2.406-2.984L449 424h2l.688-1.61c1.746-3.18 3.993-5.87 6.312-8.64l1.367-1.68c1.164-1.397 2.394-2.739 3.633-4.07h2l.563-2.063c1.679-3.431 3.746-5.415 6.492-8.023 2.684-2.641 5.062-5.513 7.465-8.41L481 388h2l.563-2.063c1.69-3.453 3.812-5.416 6.57-8.042 2.448-2.485 4.412-5.219 6.453-8.04 1.917-2.515 4.15-4.654 6.414-6.855l2-3h2l.25-1.75c.968-2.904 2.437-4.287 4.75-6.25h2l2-6-3.82-.076c-4.704-.095-9.408-.195-14.112-.296-2.031-.043-4.062-.085-6.093-.125-2.93-.058-5.858-.122-8.788-.187l-2.725-.05A129.593 129.593 0 0 1 465 344v-1h55l-7-6a271.992 271.992 0 0 1-5-6 107.197 107.197 0 0 0-7.363-7.066c-4.99-4.37-8.942-8.445-12.637-13.934a250.744 250.744 0 0 0-5-5c-5.313-5.236-10.516-10.476-15.363-16.148-1.601-1.811-3.274-3.486-5.012-5.164-2.909-2.851-5.454-5.885-8-9.063-3.593-4.467-7.4-8.511-11.504-12.508-2.605-2.6-4.98-5.359-7.375-8.152-2.467-2.776-5.118-5.348-7.766-7.95-2.596-2.641-4.97-5.449-7.375-8.265-1.705-1.954-1.705-1.954-4.48-4-2.305-1.899-2.812-2.828-3.125-5.75 2-1 2-1 3.82-.883Z"/><path fill="#43E0DA" d="M492 2c5.592.232 8.215 3.8 11.813 7.625 1.242 1.284 2.487 2.567 3.734 3.848l1.803 1.86c2.554 2.58 5.27 4.938 8.048 7.272C519 24 519 24 521.688 26.875c3.801 3.494 8.185 3.262 13.183 3.498l3.533.172 3.819.174 3.992.19c3.55.167 7.1.33 10.65.49 2.196.1 4.392.203 6.588.305 18.307.85 36.613 1.641 54.938 2.005 7.573.16 15.07.555 22.609 1.291v1l-1.81-.005c-14.575-.037-29.149 0-43.724.114-7.05.053-14.097.083-21.146.056-6.809-.027-13.615.015-20.424.097-2.591.02-5.183.019-7.774-.007-14.465-.732-14.465-.732-27.328 4.614-3.116 3.075-5.432 6.458-7.794 10.131a93.511 93.511 0 0 1-3.7 3.945c-5.548 5.898-10.853 11.874-15.917 18.2-3.94 4.722-8.182 9.162-12.387 13.648-4.388 4.683-8.567 9.531-12.73 14.414l-3.079 3.606-1.567 1.837a417.77 417.77 0 0 1-9.808 11.037 202.777 202.777 0 0 0-9.062 10.563c-5.857 7.271-12.327 13.98-18.75 20.75v-3l1.75-1.688c2.587-2.659 3.765-5.232 5.223-8.605C432 134 432 134 435 133l.875-1.75c1.185-2.37 2.633-3.84 4.523-5.664 6.216-6.155 11.674-12.87 16.938-19.834 3.053-4.016 6.281-7.79 9.676-11.518 2.203-2.475 4.283-5.03 6.363-7.609a214.507 214.507 0 0 1 9.5-10.938c4.239-4.605 8.115-9.397 11.94-14.343 3.212-4.142 6.53-8.172 9.935-12.157.907-1.068 1.813-2.137 2.719-3.207a806.76 806.76 0 0 1 4.812-5.617L514.25 38l1.703-2c1.265-2.002 1.265-2.002.906-4.555-.937-2.666-1.764-3.718-3.859-5.57-4.014-3.775-7.397-7.929-10.852-12.215C498.91 9.65 495.648 5.648 492 2Z"/><path fill="#FAFBFA" d="M0 422c4.545 3.787 7.266 6.36 10.625 10.938 4.095 5.48 8.403 10.714 12.897 15.871 2.49 2.859 4.934 5.734 7.287 8.707l1.345 1.683c1.206 1.517 2.4 3.043 3.592 4.57 2.481 2.456 3.826 2.959 7.254 3.231v1H0v-46Z"/><path fill="#03AEAA" d="M297 38a287.797 287.797 0 0 1 10.375 10.813l1.344 1.462a384.032 384.032 0 0 1 7.633 8.612C320.046 63.122 323.989 67.066 328 71c4.668 4.578 9.164 9.212 13.408 14.19 1.628 1.85 3.332 3.585 5.092 5.31 2.331 2.29 4.51 4.635 6.625 7.125a116.424 116.424 0 0 0 7.137 7.598l1.767 1.73a409.292 409.292 0 0 0 3.528 3.391c3.153 3.067 5.005 5.416 6.443 9.656 2.83 2.681 5.104 4.423 9 5l-1 2-3 1c-1.209 2-1.209 2-2 4a482.758 482.758 0 0 1-3-3.375l-1.688-1.898C369 125 369 125 369 123l-2.64-.633c-4.03-1.64-6.327-4.027-9.11-7.242l-1.457-1.605c-2.415-2.711-4.197-5.285-5.793-8.52l-3-2v-2h-2c-3-5.75-3-5.75-3-8l-1.805-.297c-2.659-.852-3.538-1.822-5.32-3.953l-1.809-2.156a475.218 475.218 0 0 1-8.514-11.025C322.216 72.475 319.76 69.717 317 67l-1.313-2.313c-1.93-3.074-4.198-5.283-6.792-7.8-3.148-3.135-6.009-6.513-8.895-9.887l-1.773-2.063c-1.412-1.643-2.82-3.29-4.227-4.937h3v-2Z"/><path fill="#67EBE5" d="m519 31 5 1c.39 2.063.39 2.063 0 5-1.806 2.597-4.022 4.765-6.25 7l-3.871 4.016-1.976 2.025c-2.782 2.864-5.506 5.778-8.216 8.709l-1.499 1.617c-3.775 4.106-7.28 8.393-10.77 12.742-3.957 4.73-8.205 9.186-12.422 13.684-4.388 4.683-8.567 9.531-12.73 14.414l-3.079 3.606-1.567 1.837a417.77 417.77 0 0 1-9.808 11.037 202.777 202.777 0 0 0-9.062 10.563c-5.857 7.271-12.327 13.98-18.75 20.75v-3l1.75-1.688c2.587-2.659 3.765-5.232 5.223-8.605C432 134 432 134 435 133l.875-1.75c1.185-2.37 2.633-3.84 4.523-5.664 6.216-6.155 11.674-12.87 16.938-19.834 3.053-4.016 6.281-7.79 9.676-11.518 2.203-2.475 4.283-5.03 6.363-7.609a214.507 214.507 0 0 1 9.5-10.938c4.24-4.607 8.12-9.4 11.944-14.35 3.165-4.083 6.44-8.045 9.806-11.962C509.706 43.454 514.401 37.303 519 31Z"/><path fill="#44E8E0" d="M82 338h4l1.07 2c4.312 7.986 8.915 15.772 13.602 23.541l1.695 2.838 1.535 2.549C105 371 105 371 105 373h139v1H107v2h133v1l-2.07-.01a7921.917 7921.917 0 0 0-49.93-.065c-8.049.014-16.097.011-24.146-.031-7.017-.037-14.033-.042-21.05-.01-3.715.016-7.428.017-11.142-.02-4.152-.042-8.3-.013-12.453.022l-3.71-.07c-6.458.103-6.458.103-11.98 3.132C101.49 382.21 99.737 384.51 98 387a187.075 187.075 0 0 1-3.188 3.688l-1.707 1.96c-2.223 2.483-4.494 4.915-6.774 7.346-5.381 5.737-10.543 11.531-15.429 17.701C69.04 419.952 67.173 422.04 65 424h-2c1.421-4.549 3.686-6.945 7.125-10.188 4.294-4.138 8.06-8.418 11.71-13.144 2.608-3.214 5.398-6.214 8.228-9.23 3.49-3.751 6.972-7.498 10.25-11.438l1.675-2c1.384-2.735.807-4.078.012-7-1.08-2.159-1.08-2.159-2.477-4.223L98 364.412l-1.624-2.474a3274.256 3274.256 0 0 1-3.277-5.094l-1.61-2.5C88.119 349.036 84.814 343.626 82 338Z"/><path fill="#8DF9F4" d="M101 4h2c1.309 1.47 2.545 3.006 3.75 4.563 4.576 5.74 9.492 11.079 14.552 16.396l1.757 1.854 1.572 1.644C126 30 126 30 128 33c1.92.458 1.92.458 4.167.392l2.653.034 2.923-.01c1.016.01 2.032.018 3.078.027 3.398.025 6.796.029 10.195.034 2.4.014 4.802.03 7.203.047 6.385.042 12.769.067 19.153.087 9.995.036 19.99.098 29.984.157 2.48.014 4.962.028 7.443.04 26.739.14 53.469.617 80.201 1.192v2h2v3l-2.013-.49c-3.604-.616-7.13-.67-10.775-.684l-2.327-.02c-1.661-.014-3.322-.026-4.983-.036-2.626-.016-5.253-.04-7.879-.065-7.465-.07-14.93-.13-22.394-.182-4.57-.032-9.141-.073-13.712-.12-1.742-.016-3.485-.028-5.228-.037a1198.5 1198.5 0 0 1-7.29-.063l-2.192-.002c-4.98-.073-4.98-.073-7.207-2.301a102.523 102.523 0 0 0-8.03-.319l-2.513-.03c-2.749-.031-5.497-.048-8.246-.065a5278.177 5278.177 0 0 0-20.751-.187c-5.114-.04-10.229-.091-15.343-.141A14868.62 14868.62 0 0 0 126 35v2l-3-1a411.435 411.435 0 0 1-2-5 114.516 114.516 0 0 0-4.5-5.5c-.895-1.048-1.788-2.097-2.68-3.148l-1.397-1.648c-2.415-2.892-4.74-5.852-7.048-8.829l-1.326-1.686C101 6.237 101 6.237 101 4Z"/><path fill="#1ECDC7" d="M325 0c-1.163 3.489-2.14 4.1-5.063 6.188l-2.222 1.605L316 9l-2-1-3.313.063C307 8 307 8 304.634 7.034c-2.898-1.14-5.348-1.436-8.445-1.66l-2.958-.227L291 5V3c-3.626.11-7.25.24-10.875.375l-3.129.094-2.988.117-2.761.095C268.8 3.8 268.8 3.8 267 6c-3.625-.375-3.625-.375-7-1V3l-2.253.003a6067.6 6067.6 0 0 1-57.242-.205c-3.59-.029-7.182-.056-10.773-.084a122489.852 122489.852 0 0 0-43.346-.34C130.589 2.25 114.794 2.125 98.999 2V1A1338367.385 1338367.385 0 0 1 212.886.427a356698.958 356698.958 0 0 1 48.167-.242C305.49-.042 305.49-.042 325 0Z"/><path fill="#7AF3ED" d="M70 95c2.063.438 2.063.438 4 1 .046 10.396.082 20.792.104 31.188.01 4.828.024 9.654.047 14.481.022 4.656.034 9.311.039 13.967.003 1.779.01 3.558.021 5.337.015 2.485.017 4.97.016 7.456l.022 2.245c-.02 5.098-.02 5.098-2.249 7.326h-3c-.023-10.674-.04-21.348-.052-32.023-.005-4.956-.012-9.911-.023-14.867-.011-4.779-.017-9.558-.02-14.336-.002-1.828-.005-3.655-.01-5.482-.008-2.55-.009-5.1-.009-7.651l-.01-2.313c.01-5.214.01-5.214 1.124-6.328Z"/><path fill="#0FB3B0" d="M465 343c6.85-.025 13.7-.043 20.55-.055 2.33-.005 4.658-.012 6.987-.02 3.353-.013 6.707-.018 10.06-.023l3.14-.015c5.2 0 10.14.205 15.263 1.113-.307 5.438-3.51 8.134-7.125 11.813a4114.253 4114.253 0 0 0-3.59 3.757l-1.738 1.806a155.025 155.025 0 0 0-5.235 5.812c-2.688 3.12-5.46 6.156-8.25 9.187-3.077 3.368-6.016 6.77-8.812 10.375-4.642 5.918-9.83 11.303-14.984 16.77a288.21 288.21 0 0 0-8.63 9.593c-2.015 2.324-4.074 4.604-6.136 6.887-7.317 8.112-7.317 8.112-14.313 16.5L440 439h-2c1.627-3.714 3.947-6.616 6.5-9.75l2.406-2.984L449 424h2l.688-1.61c1.746-3.18 3.993-5.87 6.312-8.64l1.367-1.68c1.164-1.397 2.394-2.739 3.633-4.07h2l.563-2.063c1.679-3.431 3.746-5.415 6.492-8.023 2.684-2.641 5.062-5.513 7.465-8.41L481 388h2l.563-2.063c1.69-3.453 3.812-5.416 6.57-8.042 2.448-2.485 4.412-5.219 6.453-8.04 1.917-2.515 4.15-4.654 6.414-6.855l2-3h2l.25-1.75c.968-2.904 2.437-4.287 4.75-6.25h2l2-6-3.82-.076c-4.704-.095-9.408-.195-14.112-.296-2.031-.043-4.062-.085-6.093-.125-2.93-.058-5.858-.122-8.788-.187l-2.725-.05A129.593 129.593 0 0 1 465 344v-1Z"/><path fill="#52E3DE" d="M316 304c-1.484 3.487-3.462 5.642-6.188 8.25-2.877 2.809-5.642 5.627-8.25 8.688-2.718 3.172-5.59 6.125-8.562 9.062-2.91 2.876-5.724 5.759-8.375 8.875-3.04 3.558-6.299 6.84-9.625 10.125-3.829 3.787-7.505 7.62-11.012 11.71a563.682 563.682 0 0 1-8.738 9.79c-.568.637-1.136 1.273-1.72 1.93l-1.64 1.789-1.467 1.623C249 377 249 377 246 377c.413-4.82 2.526-6.953 6-10 5.38-4.744 10.53-9.413 15.156-14.902 2.905-3.305 6.068-6.342 9.219-9.41 2.703-2.768 5.227-5.643 7.76-8.564C289.89 327.57 295.982 321.31 302 315l1.758-1.85a609.712 609.712 0 0 1 4.555-4.712l2.55-2.63C313 304 313 304 316 304Z"/><path fill="#03AEAA" d="M346 95c1.813.75 1.813.75 4 2l2.156 1.117c3.98 2.635 7.173 5.883 10.531 9.258l2.05 2c3.379 3.376 5.782 5.991 7.263 10.625 2.83 2.681 5.104 4.423 9 5l-1 2-3 1c-1.209 2-1.209 2-2 4a482.758 482.758 0 0 1-3-3.375l-1.688-1.898C369 125 369 125 369 123l-2.64-.633c-4.03-1.64-6.327-4.027-9.11-7.242l-1.457-1.605c-2.415-2.711-4.197-5.285-5.793-8.52l-3-2v-2h-2l-1-5 2-1Z"/><path fill="#4B8E91" d="M383 433h2l-2 5h-2v2c-1.875 2.125-1.875 2.125-4 4h-2v2a133.84 133.84 0 0 1-3.297 3.309c-2.203 2.187-4.297 4.46-6.39 6.753l-2.325 2.536c-2.23 2.511-2.23 2.511-3.988 6.402l117 2v1H354c0-6.562 7.53-12.556 12.023-17.11 1.543-1.539 3.093-3.069 4.65-4.594 3.999-3.926 7.709-8.022 11.327-12.296l1-1Z"/><path fill="#022027" d="M640 418c1.129.933 2.253 1.871 3.375 2.813l1.898 1.582c2.078 1.932 3.617 3.582 3.93 6.484l-.068 2.133-.06 2.427-.098 2.604-.076 2.678c-.082 2.822-.18 5.644-.276 8.466-.058 1.914-.116 3.827-.172 5.74-.14 4.692-.293 9.382-.453 14.073-13.5.209-27 .369-40.501.466-6.27.047-12.539.11-18.808.213-6.056.098-12.111.152-18.168.175-2.305.016-4.61.049-6.914.098-20.316.412-20.316.412-27.409-5.33A97.659 97.659 0 0 1 532 458a117.297 117.297 0 0 0-3.242-2.828 632.132 632.132 0 0 1-16.008-15.235l-1.738-1.698c-1.377-1.374-2.7-2.802-4.012-4.239v-2c2.875.688 2.875.688 6 2 1.063 2.313 1.063 2.313 2 5 1.093 1.193 2.2 2.377 3.383 3.48 2.087 1.962 4.058 4.029 6.054 6.082 2.578 2.596 5.029 4.923 8.125 6.875L535 457v2l1.688.75C539 461 539 461 541.024 463.044c4.27 2.807 7.898 2.529 12.907 2.502l3.017.031c3.284.03 6.568.031 9.853.032a3763.986 3763.986 0 0 0 24.826.129c6.12.02 12.24.062 18.36.102 12.004.075 24.008.125 36.013.16.149-5.426.257-10.85.33-16.278.03-1.844.07-3.688.123-5.531.073-2.66.107-5.316.133-7.976.03-.817.062-1.634.094-2.476.002-4.665-.595-7.133-3.717-10.69l-1.671-1.646C640 420 640 420 640 418Z"/><path fill="#A3FCF7" d="M127 35h86v3c-10.918.023-21.835.04-32.753.052-5.07.005-10.138.012-15.207.023-4.89.011-9.778.017-14.667.02-1.868.002-3.737.005-5.605.01-2.61.008-5.22.009-7.83.009l-2.358.01c-5.352-.01-5.352-.01-7.58-1.124v-2Z"/><path fill="#86F2EE" d="M145 200h96l-1 3h-95v-3Z"/><path fill="#05868A" d="M522 342h1l.5 3c1.233 4.346 3.862 6.729 7.137 9.715 2.012 1.946 3.81 3.92 5.633 6.039 3.713 4.292 7.68 8.273 11.73 12.246a257.308 257.308 0 0 1 15 16c1.496 1.67 2.995 3.338 4.5 5a595.524 595.524 0 0 1 7.875 8.875c3.035 3.482 6.133 6.904 9.25 10.313l1.38 1.513a161.403 161.403 0 0 0 6.83 7.037C595 424 595 424 595 426l-7-1 2-1-1.46-1.61-1.915-2.14-1.898-2.11c-1.606-1.99-2.592-3.87-3.727-6.14-2.034-1.268-2.034-1.268-4-2v-2h-3a769.34 769.34 0 0 1-3-5 116.55 116.55 0 0 0-3.5-3.5c-2.744-2.653-4.583-5.189-6.5-8.5a495.853 495.853 0 0 0-5-5c-2.145-2.252-4.259-4.533-6.375-6.813a2581.38 2581.38 0 0 0-11.7-12.515c-.666-.708-1.332-1.416-2.02-2.145-1.279-1.359-2.56-2.716-3.842-4.071A230.091 230.091 0 0 1 522 349l-2-2 2-5Z"/><path fill="#2DB8B6" d="M491 0h121v1l-83 1v1l-1.68.028c-2.525.054-5.047.138-7.57.222l-2.645.043c-5.26.149-5.26.149-9.714 2.754-.46.644-.918 1.289-1.391 1.953l1 1.813C508 12 508 12 508 15l-2.484-2.59a6644.675 6644.675 0 0 0-3.266-3.348l-1.633-1.708-1.601-1.631-1.46-1.508C495.743 2.8 494.244 2.41 492 2v2h-2l-1 2c.506-2.169 1-4 2-6Z"/><path fill="#15C3BD" d="M325 0c-1.163 3.489-2.14 4.1-5.063 6.188l-2.222 1.605L316 9l-2-1-3.313.063C307 8 307 8 304.634 7.034c-2.898-1.14-5.348-1.436-8.445-1.66l-2.958-.227L291 5V3l-60-1V1c8.712-.133 17.425-.263 26.137-.391 4.048-.06 8.097-.12 12.145-.182C287.856.144 306.423-.083 325 0Z"/><path fill="#66E6DF" d="M101 4h2c1.309 1.47 2.545 3.006 3.75 4.563 4.576 5.74 9.492 11.079 14.552 16.396l1.757 1.854 1.572 1.644C126 30 126 30 128 33c2.082.462 2.082.462 4.53.399l2.89.038 3.18-.005 3.34.031c3.659.03 7.316.04 10.974.049l7.592.054c5.989.043 11.977.072 17.966.095 6.818.027 13.635.071 20.452.117 14.025.093 28.05.164 42.076.222v1H126v2l-3-1a411.435 411.435 0 0 1-2-5 114.516 114.516 0 0 0-4.5-5.5c-.895-1.048-1.788-2.097-2.68-3.148l-1.397-1.648c-2.415-2.892-4.74-5.852-7.048-8.829l-1.326-1.686C101 6.237 101 6.237 101 4Z"/><path fill="#038A8D" d="M416.82 227.117c3.19 1.292 4.801 3.431 7.055 6.008l2.64 3.004L429 239l1.984 2.215C435 245.737 435 245.737 435 248h2c1.445 1.434 1.445 1.434 3.125 3.438.612.72 1.225 1.44 1.855 2.183L444 256c1.475 1.67 2.954 3.337 4.438 5a570339735.993 570339735.993 0 0 1 3.562 4l-3 3c-3.975-3.883-7.877-7.783-11.5-12-3.013-3.507-6.223-6.745-9.52-9.984-2.596-2.642-4.97-5.45-7.375-8.266-1.705-1.954-1.705-1.954-4.48-4-2.305-1.899-2.812-2.828-3.125-5.75 2-1 2-1 3.82-.883Z"/><path fill="#0FC1BD" d="M264 243c3.5.389 5.173 1.91 7.527 4.43 1.704 1.816 3.495 3.527 5.286 5.257A112.914 112.914 0 0 1 291 270l-2 4c-6.424-6.208-12.404-12.454-17.93-19.492-2.074-2.623-2.074-2.623-4.828-5.078C264 247 264 247 264 243Z"/><path fill="#60EAE4" d="m467 101-2.527 2.676c-5.96 6.343-11.713 12.738-17.157 19.535-3.193 3.845-6.584 7.49-9.996 11.14a286.813 286.813 0 0 0-9.918 11.16C426 147 426 147 423 149c.953-2.125 1.75-3.762 3.45-5.379 2.216-2.317 3.21-4.97 4.488-7.879C432 134 432 134 435 133l.875-1.75c1.185-2.37 2.633-3.84 4.523-5.664 6.36-6.298 11.98-13.157 17.24-20.383 4.36-5.87 4.36-5.87 9.362-4.203Z"/><path fill="#73EDE8" d="m519 31 5 1c.219 2.791.34 4.466-1.19 6.865l-1.662 1.729-1.832 1.933-1.941 1.973-1.871 1.973A117.73 117.73 0 0 1 504 57c-1-3-1-3 .25-6.375 2.927-5.582 7.255-10.158 11.387-14.867 2.335-2.5 2.335-2.5 3.363-4.758Z"/><path fill="#33BDB9" d="M39 63c0 2.936-.158 5.192-1 8-2.063 1.813-2.063 1.813-4 3v-2c-3.042 2.205-4.72 3.61-5.477 7.362-.18 3.052-.207 6.072-.182 9.13l-.032 3.519c-.029 3.836-.023 7.672-.016 11.509-.013 2.66-.028 5.321-.046 7.982-.037 6.286-.05 12.572-.052 18.859-.005 7.158-.038 14.316-.073 21.475-.072 14.721-.109 29.442-.122 44.164h-1a8186.005 8186.005 0 0 1-.363-46.524c-.036-7.201-.085-14.402-.165-21.603a2176.39 2176.39 0 0 1-.13-18.836c-.01-3.323-.035-6.645-.082-9.968-.051-3.715-.058-7.429-.055-11.145l-.076-3.313c.063-6.725 1.255-10.227 6.08-14.987L34 68a617.38 617.38 0 0 0 2.938-3L39 63Z"/><path fill="#58E6DF" d="M492 2c5.592.232 8.215 3.8 11.813 7.625 1.242 1.284 2.487 2.567 3.734 3.848l1.803 1.86c2.551 2.577 5.273 4.927 8.029 7.28 2.37 2.027 4.547 4.053 6.621 6.387v3l-5-1-1 2-1.148-2.117c-2.157-3.358-4.731-6.138-7.477-9.008a256.027 256.027 0 0 1-13.633-15.73C494.028 3.96 494.028 3.96 492 2Z"/><path fill="#00888A" d="M533 1a2856.43 2856.43 0 0 1 30.878-.466c4.78-.047 9.56-.11 14.339-.213a854.41 854.41 0 0 1 13.85-.175c1.757-.016 3.515-.049 5.271-.098 13.755-.366 13.755-.366 18.454 2.881 2.03 2.26 3.612 4.494 5.208 7.071a133.231 133.231 0 0 0 3.313 3.813l1.69 1.94c3.012 3.39 6.09 6.716 9.178 10.035 2.437 2.636 4.732 5.29 6.819 8.212h-5l-.188-1.75c-1.144-3.17-3.138-4.244-5.812-6.25-2.499-2.32-4.622-4.344-6.328-7.305-1.959-3.157-4.26-5.671-6.797-8.383C613.098 5.197 613.098 5.197 612 3l-79-1V1Z"/><path fill="#9AF7F5" d="M279 343c-1.417 3.252-3.125 5.314-5.688 7.75-2.612 2.547-5.123 5.106-7.5 7.875A639.572 639.572 0 0 1 255.25 370.5l-1.72 1.928c-.54.591-1.082 1.182-1.64 1.79l-1.467 1.624C249 377 249 377 246 377c.413-4.82 2.526-6.953 6-10 5.442-4.797 10.64-9.536 15.34-15.07 1.75-2.034 3.55-3.996 5.41-5.93l1.672-1.75C276 343 276 343 279 343Z"/><path fill="#04ACAB" d="M85 337h44v2l-2.28.076c-3.385.116-6.771.238-10.157.361l-3.588.12-3.409.127-3.158.11c-2.358-.059-2.358-.059-3.408 1.206-1.853.072-3.708.084-5.563.063l-3.066-.028L92 341l1 10c-2.183-2.91-3.953-5.537-5.688-8.688l-1.324-2.386C85 338 85 338 85 337Z"/><path fill="#012630" d="M137 243h118l-1 3-3.07-.254-4.055-.309-2.016-.17c-4.153-.305-7.776.029-11.859.733l-3-1c-2.966-.12-5.91-.185-8.878-.205l-2.75-.03c-3.003-.032-6.006-.057-9.009-.081l-6.242-.063c-5.48-.056-10.959-.105-16.438-.153-5.59-.05-11.18-.106-16.77-.161-10.972-.108-21.942-.21-32.913-.307v-1Z"/><path fill="#07A8A5" d="M480 389v3l-3 3-.371 1.863c-.818 2.778-2.148 3.919-4.254 5.887-3.366 3.24-6.481 6.578-9.527 10.117-2.085 2.407-4.213 4.77-6.348 7.133-7.317 8.112-7.317 8.112-14.313 16.5L440 439h-2c1.627-3.714 3.947-6.616 6.5-9.75l2.406-2.984L449 424h2l.688-1.61c1.746-3.18 3.993-5.87 6.312-8.64l1.367-1.68c1.164-1.397 2.394-2.739 3.633-4.07h2l.563-2.063c1.688-3.45 3.796-5.462 6.55-8.09 2.84-2.78 5.338-5.8 7.887-8.847Z"/><path fill="#2AD4CF" d="M297 38a286.775 286.775 0 0 1 10.375 10.813l1.451 1.585a571.723 571.723 0 0 1 9.736 10.977c1.733 1.959 3.551 3.814 5.438 5.625l-1 2c-4.098-2.227-7.109-4.87-10.375-8.188l-1.456-1.477C307.281 55.358 303.587 51.248 300 47a7507.418 7507.418 0 0 0-3.438-4L294 40h3v-2Z"/><path fill="#021A21" d="m642 37-15 15-2-1 1.934-1.898 2.504-2.477 2.496-2.46c2.1-1.988 2.1-1.988 3.066-4.165-7.146-1.13-14.153-1.08-21.375-1-2.341.025-4.682.046-7.023.063l-3.115.035C601 39 601 39 599 38l-1 2-1.813-.5c-2.3-.611-2.3-.611-5.187-.5v-2c6.942-.168 13.883-.328 20.825-.482 2.363-.054 4.726-.109 7.09-.166 3.39-.082 6.78-.157 10.17-.23l3.218-.083 2.972-.06 2.624-.061C640 36 640 36 642 37Z"/><path fill="#25D1CC" d="M239.938 171.938A5479.708 5479.708 0 0 1 258 172c-1.001 2.999-1.001 2.999-3.063 4.186L253 177l-2-2c-2.007.287-4.009.619-6 1l-1-1c-2.02-.05-4.042-.036-6.063 0-10.99.122-21.962-.487-32.937-1v-1c11.663-.979 23.24-1.121 34.938-1.063Z"/><path fill="#3AD1CB" d="M524 30c2.105.114 4.209.242 6.313.375 1.171.07 2.343.14 3.55.21C537 31 537 31 540 33l-1 2 39 1v1h-54v-7Z"/><path fill="#21C8C3" d="m82 336 3 2-2 1 2 4c-4.75 1-4.75 1-7 1l-.688 1.938C76 348 76 348 73.376 348.75L71 349l-.332 1.934-.48 2.503-.458 2.497L69 358c-3 1-3 1-5 1a89.261 89.261 0 0 0-4 2l3.809-4.297c1.307-1.627 1.307-1.627 1.572-3.596.753-2.565 1.812-3.66 3.709-5.525l1.877-1.861 1.97-1.909 1.96-1.943C79.69 337.155 79.69 337.155 82 336Z"/><path fill="#027377" d="M565 392a286.902 286.902 0 0 1 10.375 10.813l1.458 1.592a507.141 507.141 0 0 1 9.53 10.779c2.329 2.584 4.824 4.982 7.352 7.37C595 424 595 424 595 426l-7-1 2-1-1.46-1.61-1.915-2.14-1.898-2.11c-1.606-1.99-2.592-3.87-3.727-6.14-2.034-1.268-2.034-1.268-4-2v-2h-3a769.34 769.34 0 0 1-3-5 140.602 140.602 0 0 0-5.672-5.254C564 396 564 396 564.297 393.786L565 392Z"/><path fill="#16C6C0" d="M107 160c3.336 1.452 5.525 3.28 8.082 5.852l2.326 2.332c.794.805 1.587 1.61 2.404 2.441l2.37 2.371c4.255 4.288 8.357 8.654 12.274 13.254 1.586 1.798 3.257 3.46 4.982 5.125C142 194 142 194 142 196l2 1-2 2c-11.721-12.626-11.721-12.626-15.688-17.25-3.224-3.737-6.712-7.173-10.234-10.629a66.322 66.322 0 0 1-4.953-5.684L109 163h-3l1-3Z"/><path fill="#049A9A" d="m493 315 1.46 1.277 1.915 1.66 1.898 1.653c1.683 1.48 1.683 1.48 3.727 2.41l1-2c3.007 3.327 6.005 6.662 9 10l2.05 2.27c3.048 3.412 5.789 6.662 7.95 10.73-6.068-2.697-9.859-6.927-14-12-4.067-4.3-8.524-8.134-12.988-12.012L493 317v-2Z"/><path fill="#79F6EF" d="M262 35h33v2h2v3l-2.155-.48c-2.824-.516-5.498-.724-8.365-.836l-3.095-.127-3.197-.12-3.256-.13A3018.38 3018.38 0 0 0 269 38v-2h-7v-1Z"/><path fill="#003E45" d="M421 241c4.094.495 5.767 1.335 8.313 4.563 2.46 2.996 4.976 5.79 7.75 8.5 7.236 7.151 7.236 7.151 9.937 10.937v2c-5.039-1.44-6.866-4.019-10-8l-2-1-1-3c-3.522-3.816-7.315-7.657-12-10-.625-2.063-.625-2.063-1-4Z"/><path fill="#003039" d="M465 412v3l-3 2c1.875-3.875 1.875-3.875 3-5Zm-7 6 3 1-1.828 1.758c-4.934 4.768-4.934 4.768-9.11 10.18-3.343 4.964-7.77 8.917-12.062 13.062l-1-3 2.055-2.238A5114.558 5114.558 0 0 0 458 418Z"/><path fill="#4DE4DF" d="M84 398c.68 1.809.68 1.809 1 4-1.117 1.535-1.117 1.535-2.875 3.063-4.11 3.806-7.526 8.009-11.012 12.386-1.938 2.34-3.854 4.52-6.113 6.551h-2c1.421-4.549 3.686-6.945 7.125-10.188C75.239 408.896 79.713 403.663 84 398Z"/><path fill="#138486" d="M612 1c3.307 2.505 5.901 4.928 8.375 8.25 4.486 5.772 9.475 11.02 14.521 16.304l1.909 2.005 1.718 1.79C640 31 640 31 642 34h-5l-.188-1.75c-1.144-3.17-3.138-4.244-5.812-6.25-2.502-2.323-4.624-4.346-6.328-7.313-2.607-4.19-6.092-7.513-9.492-11.066C613.19 5.23 612.356 4.025 612 1Z"/><path fill="#68EFEA" d="M296 325c-1.373 3.052-2.96 5.248-5.258 7.672l-1.894 2.012-1.973 2.066-1.996 2.113A1485.66 1485.66 0 0 1 280 344l-3-2c1.728-1.897 3.457-3.793 5.188-5.688l1.462-1.607A685.827 685.827 0 0 1 288 330l2.676-2.895C293 325 293 325 296 325Z"/><path fill="#028F91" d="M437 251c4.25 1.598 6.822 4.813 9.75 8.125l1.535 1.707A875.718 875.718 0 0 1 452 265l-3 3c-9.581-9.372-9.581-9.372-12-13v-4Z"/><path fill="#19C9C4" d="M264 243c4.292.477 6.145 2.941 9 6 1.1 1.108 2.204 2.212 3.313 3.313L279 255l-1 3-1-2-2.625-.688c-4.43-1.722-7.608-4.432-10.375-8.312v-4Z"/><path fill="#09AEAB" d="M378 157h1c1.628 7.319 2.33 14.514 2.658 21.984.186 4.078.58 8.005 1.342 12.016l3 1-2 3-3-1c-2.01-4.02-1.705-9.01-2.063-13.438l-.275-3.162A205 205 0 0 1 378 157Z"/><path fill="#05242E" d="M507 432c2.875.688 2.875.688 6 2 1.063 2.313 1.063 2.313 2 5 1.093 1.193 2.2 2.377 3.383 3.48 2.087 1.962 4.058 4.029 6.054 6.082 2.578 2.596 5.029 4.923 8.125 6.875L535 457v2l2 1c-3.475 0-3.75-.355-6.152-2.64l-1.838-1.73-1.947-1.88-2-1.903c-2.03-1.94-4.048-3.892-6.063-5.847l-1.875-1.809a834.478 834.478 0 0 1-5.063-4.941l-1.556-1.517c-1.208-1.205-2.363-2.465-3.506-3.733v-2Z"/><path fill="#06575D" d="M383 433h2l-2 5h-2v2c-1.875 2.125-1.875 2.125-4 4h-2v2c-1.146 1.18-2.3 2.355-3.488 3.492-2.683 2.676-5.079 5.607-7.512 8.508l-2-3 2.598-2.563C370.623 446.469 376.53 440.491 382 434l1-1Z"/><path fill="#12C5C0" d="M273 301c12.508-.25 24.599.34 37 2v1c-25.97.413-25.97.413-37-2v-1Z"/><path fill="#0A9D9E" d="M108 118c0 3.87-.115 7.737-.219 11.605l-.067 2.544a38342.777 38342.777 0 0 1-.359 13.49L107 159l6-1-1 5c-4.75-1.875-4.75-1.875-7-3-.025-4.09-.043-8.179-.055-12.268a1535.23 1535.23 0 0 0-.02-4.16c-.113-18.285-.113-18.285 1.075-23.572l2-2Z"/><path fill="#0C6266" d="M412 401c0 3 0 3-1.46 4.684-.633.578-1.264 1.157-1.915 1.753-2.606 2.398-4.08 4.4-5.625 7.563l-5 4-1.063 2.188L396 423l-4 1a177.537 177.537 0 0 0-2 4c-2.625 2.25-2.625 2.25-5 4 1.603-3.828 4.055-6.425 6.875-9.438l2.957-3.175 1.561-1.667c2.74-2.933 5.452-5.891 8.17-8.845 5.103-5.541 5.103-5.541 7.437-7.875Z"/><path fill="#0CB3AF" d="m495 372 2 3-1.25 1.18a103.177 103.177 0 0 0-9.813 10.945c-3.026 3.87-6.013 6.932-9.937 9.875 1.5-3.114 3.082-6.122 5-9h2l.563-2.063c1.72-3.515 3.943-5.61 6.75-8.289 1.788-1.747 3.281-3.58 4.687-5.648Z"/><path fill="#03434B" d="m317 304 3 1c-3.165 3.889-6.407 7.493-10 11l-1.8 1.867-1.887 1.945-1.762 1.833C303 323 303 323 301 323l-1 2c.46-4.367 3.357-6.912 6.25-9.938l1.45-1.552c3.034-3.237 6.148-6.387 9.3-9.51Z"/><path fill="#07A7A4" d="M19 402c0 4.71-2.928 7.588-6 11l-3.313 2.188c-2.922 1.566-2.922 1.566-3.562 4.562L6 422l3-1 2 2-3.875.188-2.18.105L3 423l-2-3 18-18Z"/><path fill="#4EE4DE" d="m438 128 2 1c-.586 3.563-1.9 5.307-4.379 7.89l-2.04 2.15-2.144 2.21-2.154 2.258A1092.648 1092.648 0 0 1 424 149v-3l1.75-1.688c2.587-2.659 3.765-5.232 5.223-8.605C432 134 432 134 435 133c1.15-1.967 1.15-1.967 2-4l1-1Z"/><path fill="#03666C" d="M420 229h36c-3.247 2.165-4.147 2.248-7.895 2.23l-2.896-.005-3.022-.037-2.986-.002c-4.838-.03-9.447-.177-14.201-1.186v5a282.832 282.832 0 0 1-5-5v-1Z"/><path fill="#047678" d="m104 64 2 1-2 1.813c-2.337 2.062-2.337 2.062-2 5.187-2.16 2.016-2.16 2.016-5.063 4.25C92.3 79.911 88.05 83.702 84 88c0-3 0-3 1.723-4.98l2.34-2.207c3.679-3.553 7.1-7.204 10.43-11.083 1.746-2.005 3.589-3.888 5.507-5.73Z"/><path fill="#037377" d="m325 1 5 5-3.5 1.563c-4.85 2.398-8.594 5.74-12.5 9.437l-2-1 1.32-1.25C317.721 10.483 321.456 5.998 325 1Z"/><path fill="#0DA7A6" d="M87 339h17l-1 2H92l1 10c-6-8-6-8-6-12Z"/><path fill="#7FF2EE" d="M279 343c-1.446 3.339-3.267 5.48-5.875 8l-2.055 2-2.07 2a1424.82 1424.82 0 0 0-4 4v-2l-2-1a1153 1153 0 0 1 6.313-6.5l1.802-1.879 1.748-1.777 1.603-1.65C276 343 276 343 279 343Z"/><path fill="#43E0DB" d="M297 38a234.12 234.12 0 0 1 5 5l1.703 1.75 1.672 1.813 1.586 1.69C308 50 308 50 307 54l-13-13 3-1v-2Z"/><path fill="#10BDB7" d="m371 120 2.188 1.375c2.56 1.48 5.045 2.597 7.812 3.625l-1 2-3 1c-1.209 2-1.209 2-2 4-4.903-5.27-4.903-5.27-5.375-8.813C370 121 370 121 371 120Z"/><path fill="#08B8B3" d="M317 65c4.56 1.788 8.578 3.377 12 7 .813 3.75.813 3.75 1 7-5.32-3.114-9.351-7.013-13-12v-2Z"/><path fill="#26D3CB" d="m232.063 31.375 2.623.172c2.105.14 4.21.295 6.314.453v2h-28v-1c6.547-1.827 12.31-2.149 19.063-1.625Z"/><path fill="#73F1EA" d="M101 4h2a102.636 102.636 0 0 1 4.313 5.125l2.421 3.027L112 15a564.614 564.614 0 0 0 3.063 3.688L117 21l-2 3a2632.385 2632.385 0 0 1-7-8.875l-2.023-2.55-1.915-2.442-1.777-2.254C101 6 101 6 101 4Z"/><path fill="#44D7D0" d="M68 32c0 3.74-.934 4.453-3.375 7.188l-1.898 2.167C61 43 61 43 59 43l-1 5h-3v2c-2 1.625-2 1.625-4 3l-2-1c12.485-13.633 12.485-13.633 19-20Z"/><path fill="#29CEC8" d="M496 5v3h-8l-.75 1.813c-1.414 2.473-2.9 3.62-5.25 5.187l-2-1a468.253 468.253 0 0 1 3.75-4.938l2.11-2.777C489.376 2.53 491.681 2.378 496 5Z"/><path fill="#024F57" d="M297.563 299.5c2.483.216 4.945.382 7.437.5l1-1a99.984 99.984 0 0 1 5 0l1 3c-3.25.058-6.5.094-9.75.125-.92.017-1.84.034-2.79.05l-2.694.02-2.476.032c-2.509-.249-4.124-.97-6.29-2.227 3.084-1.542 6.218-.792 9.563-.5Z"/><path fill="#3EDFD7" d="M126 31c8.717-.144 17.313.28 26 1v1c-5.113 1.023-10.058 1.217-15.25 1.25l-2.469.063c-2.36.015-2.36.015-6.281-.313l-2-3Z"/><path fill="#21CFC8" d="M128 182c3.856 1.586 6.332 4.065 9.25 7l2.703 2.688C142 194 142 194 142 196l2 1-2 2a1733.01 1733.01 0 0 1-5.875-6.25l-1.684-1.777-1.62-1.739-1.492-1.587c-1.437-1.78-2.378-3.572-3.329-5.647Z"/><path fill="#005A62" d="M328 70h2c1.375 1.398 1.375 1.398 3 3.375 3.762 4.454 7.86 8.482 12.059 12.523C347 88 347 88 347 90c-7.312-3.282-13.182-10.74-18-17l-1-3Z"/><path fill="#0BC6BF" d="M114 226h2v2h2c2.127 2.489 4.059 5.099 6.027 7.715 3.17 3.672 6.54 3.5 11.16 3.847l3.293.254L141 240v1c-12.07 1.93-12.07 1.93-16.888-1.244-3.914-3.475-7.145-7.458-10.112-11.756v-2Z"/><path fill="#002F38" d="m239.863 242.902 2.686.01 2.763.025 2.823.014c2.288.012 4.577.028 6.865.049l-1 3-3.07-.254-4.055-.309-2.016-.17c-3.204-.235-5.994-.243-9.164.33C233 246 233 246 230 244c3.35-.754 6.431-1.12 9.863-1.098Z"/><path fill="#013E46" d="m485 388 4 2-1 2-3-1v3l-2.375.75c-3.008 1.432-3.38 2.28-4.625 5.25l-2 1c.487-4.415 1.85-6.304 5.063-9.313l2.222-2.113L485 388Z"/><path fill="#4BE1DC" d="m161 170 1 2h2c1.625 2 1.625 2 3 4l-5-1-1.242 2.371-1.633 3.066-1.617 3.06C156 186 156 186 154 187c.62-4.233 2.105-7.523 4.063-11.313l1.66-3.238L161 170Z"/><path fill="#50E7E1" d="M82 338h4c.99 1.702 1.967 3.412 2.938 5.125l1.652 2.883c1.44 3.055 2.019 5.653 2.41 8.992-2.961-2.607-4.68-5.655-6.625-9.063l-1.852-3.222A112.099 112.099 0 0 1 82 338Z"/><path fill="#09444C" d="M344 207h2v2l3 1c1.52 1.697 2.97 3.457 4.375 5.25 3.016 3.835 6.119 7.355 9.625 10.75l-1 3-1.215-1.398a648.028 648.028 0 0 0-12.867-14.305c-1.714-2.053-2.86-3.857-3.918-6.297Z"/><path fill="#09B9B3" d="M501 344h20l-2 1v3h-2l-2 4c0-3 0-3 1-6l-15-1v-1Z"/><path fill="#015960" d="M595 425c7.247 5.93 7.247 5.93 10 9v2h2a125.024 125.024 0 0 1 4 6c-3.992-1.595-6.632-4.404-9.563-7.438l-1.458-1.486c-1.33-1.355-2.655-2.715-3.979-4.076a771.812 771.812 0 0 0-3-3l2-1Z"/><path fill="#08B6B2" d="M335 80c3.888 3.24 7.668 6.55 11.313 10.063l1.988 1.91c1.87 2.231 2.763 4.286 3.699 7.027-4.775-2.822-6.947-5.282-10-10-1.819-1.89-3.692-3.696-5.61-5.484C335 82 335 82 335 80Z"/><path fill="#30D2CC" d="M39 63c0 2.936-.158 5.192-1 8-2.063 1.813-2.063 1.813-4 3v-2l-5 5-2-1c3.864-4.487 7.748-8.877 12-13Z"/><path fill="#68ECE7" d="M295 35v2h2v3l-1.887-.465c-4.296-.738-8.575-.9-12.925-1.097l-2.678-.131c-2.17-.106-4.34-.207-6.51-.307v-1l3.36-.184 4.39-.254 2.21-.119C287.01 36.204 291.01 35 295 35Z"/><path fill="#0F5A60" d="M22 446c2.438.75 2.438.75 5 2l.438 1.813c.734 2.855 2.144 4.276 4.125 6.437l1.94 2.14L35 460l2-1-1 5a131.419 131.419 0 0 1-9.813-10.688l-2.394-2.886C22 448 22 448 22 446Z"/><path fill="#089D9D" d="m449 424 3 1-1.355 1.54c-.605.687-1.21 1.376-1.832 2.085l-1.93 2.195a192.051 192.051 0 0 0-4.695 5.68L440 439h-2c1.628-3.757 4.014-6.617 6.625-9.75l2.477-2.984L449 424Z"/><path fill="#0CC1BC" d="M250 300h19c-3.904 3.904-5.662 3.562-11 4l-1-3h-7v-1Z"/><path fill="#013B43" d="M473 403c0 3 0 3-2.117 5.156l-2.758 2.344c-2.863 2.447-5.03 4.356-7.125 7.5l-3-1 1.68-1.645 2.195-2.168 2.18-2.144c2.099-2.087 2.099-2.087 3.945-5.043a87.756 87.756 0 0 1 5-3Z"/><path fill="#06999A" d="M435 440h2c-1.615 3.9-4.28 6.713-7.125 9.75l-1.418 1.535A950.215 950.215 0 0 1 425 455l-1-2c1.457-1.793 2.916-3.584 4.375-5.375l2.46-3.023C433 442 433 442 435 440Z"/><path fill="#067C80" d="M522 342h1l.5 3c1.444 5.27 5.55 8.464 9.5 12l-2 2-1.898-2.117-2.477-2.758-2.46-2.742A125.788 125.788 0 0 0 520 347l2-5Z"/><path fill="#058386" d="m117 254 1 2c-1.952 2.65-3.913 5.295-5.875 7.938l-1.684 2.287-1.62 2.177-1.492 2.016C106 272 106 272 104 273c1.557-4.905 4.433-8.38 7.625-12.313l1.563-1.955c1.265-1.581 2.538-3.157 3.812-4.732Z"/><path fill="#40D0CA" d="M433 66c0 3.552-.545 3.934-2.875 6.438-1.712 1.848-3.035 3.38-4.156 5.644-1.385 2.742-3.53 4.12-5.969 5.918l-2-1 2.012-2.195C424.445 75.95 428.859 71.107 433 66Z"/><path fill="#057C7F" d="m0 421 3 1c1.407.145 2.818.246 4.23.316l2.432.127 2.525.12 2.561.13c2.084.106 4.168.207 6.252.307v1l-2.59.148-3.348.227c-1.102.07-2.204.14-3.34.21-.898.138-1.796.274-2.722.415l-1 2c-3.255-.349-4.019-1.021-6.25-3.563L0 421Z"/><path fill="#013B44" d="M130.402 241.691c2.27.284 4.4.684 6.598 1.309v1l-3.063.063c-5.063.66-7.754 4.232-10.937 7.937l-1-2c4.345-7.787 4.345-7.787 8.402-8.309Z"/><path fill="#5FE8E1" d="M496 60c1.13 3.387 1.244 4.682 0 8-3.063 1.813-3.063 1.813-6 3l-1-3c1.434-2.043 1.434-2.043 3.438-4.188l1.996-2.167L496 60Z"/><path fill="#30D5CD" d="M593 33v1h-10v2l-20-1v-1c10.024-.729 19.944-1.141 30-1Z"/><path fill="#9FF7F4" d="M254 369c-.54 3.785-2.076 5.592-5 8h-3c.188-2.313.188-2.313 1-5 4.034-3 4.034-3 7-3Z"/><path fill="#64E6E2" d="m283 335 4 1a707.381 707.381 0 0 1-2.875 3.438l-1.617 1.933C281 343 281 343 279 344l-2-2 6-7Z"/><path fill="#003E45" d="M409 227c3.992 2.167 6.88 4.711 10 8l2 2v3c-3.833-1.506-5.538-3.768-8-7l-2.25-2.188C409 229 409 229 409 227Z"/><path fill="#08424A" d="M288 145c3.277 1.405 5.154 3.03 7.438 5.75l1.812 2.14L299 155l1.563 1.86A695.12 695.12 0 0 1 304 161l-2 1-1.285-1.504c-3.643-4.219-7.378-8.221-11.43-12.05C288 147 288 147 288 145Z"/><path fill="#61EDE7" d="m106 373 2 1c-2.748 4.275-5.693 8.141-9 12l-1-2c2.186-4.372 4.322-7.716 8-11Z"/><path fill="#05555C" d="m470 226 1 2-2.438.375L466 229l-1 2-1.813-.563c-2.351-.658-2.351-.658-5.187.563 0-2 0-2 1.5-3.625 3.62-1.991 6.4-1.58 10.5-1.375Z"/><path fill="#84F2EC" d="M101 57c2 2 2 2 2 5h2l-1 3-4-3-3 3-3-1 7-7Z"/><path fill="#08535B" d="m362 456 1 3-1.438 1.313c-1.799 1.71-1.799 1.71-2.562 4.687h-2v2l-4-1 9-10Z"/><path fill="#0F2E37" d="M521 447c2.927 1.338 5.168 2.857 7.563 5 2.107 1.877 4.07 3.422 6.437 5v2l2 1c-3.447 0-3.741-.342-6.137-2.59l-1.748-1.627-1.803-1.72-1.837-1.71A219.45 219.45 0 0 1 521 448v-1Z"/><path fill="#43DED8" d="m70 414 2 2a563.897 563.897 0 0 1-3.375 4l-1.898 2.25L65 424h-2c1.394-4.435 3.606-6.874 7-10Z"/><path fill="#0C6B6F" d="M428 383c0 3.461-.352 3.745-2.625 6.137l-1.64 1.748-1.735 1.803-1.734 1.837A856.955 856.955 0 0 1 416 399c0-3.461.352-3.745 2.625-6.137l1.64-1.748 1.735-1.803 1.734-1.837A856.955 856.955 0 0 1 428 383Z"/><path fill="#047678" d="M629 21a85.132 85.132 0 0 1 13 13h-5l-.188-1.75c-.676-2.49-.676-2.49-3.25-4.188-2.77-2.23-3.54-3.715-4.562-7.062Z"/><path fill="#0D2E36" d="M640 418c1.129.933 2.253 1.871 3.375 2.813l1.898 1.582C647 424 647 424 649 427c-.375 3.688-.375 3.688-1 7h-1l-.125-3.063c-.559-4.23-2.692-6.47-5.598-9.457C640 420 640 420 640 418Z"/><path fill="#005861" d="M445 257c3.927 1.662 6.928 4.064 10 7 .875 2.813.875 2.813 1 5-4.56-3.613-8.017-6.988-11-12Z"/><path fill="#002931" d="M562 63c0 3 0 3-1.934 4.973l-2.504 2.09c-3.257 2.59-3.257 2.59-5.562 5.937l-3-1c4.152-4.263 8.363-8.268 13-12Z"/><path fill="#035258" d="m97 388 1 2a334.484 334.484 0 0 1-3.25 3.938l-1.828 2.214c-2.03 1.951-3.176 2.465-5.922 2.848 3.208-3.806 6.407-7.546 10-11Z"/><path fill="#002831" d="M548 78c0 3 0 3-1.969 5.262l-2.531 2.425-2.531 2.45L539 90l-1-3 10-9Z"/><path fill="#8CF3EE" d="m122 30 10 4v1h-6v2l-3-1-1-6Z"/><path fill="#039A9A" d="m446 260 6 5-3 3c-2.063-1.75-2.063-1.75-4-4 .25-2.25.25-2.25 1-4Z"/><path fill="#39D8D1" d="m421 82 1 2c-1.313 2.625-1.313 2.625-3 5h-2l-1-4 5-3Zm-6 7 2 1-3 2 1-3Z"/><path fill="#067375" d="M114 52h3c-1.382 3.21-2.924 5.05-5.625 7.25l-1.914 1.578L108 62c.885-4.523 2.843-6.693 6-10Z"/><path fill="#80F0EA" d="m519 31 5 1c-1 3-1 3-4 5h-3c.506-2.169 1-4 2-6Z"/><path fill="#003A43" d="m431 448 2 1a832.31 832.31 0 0 1-3.313 3.875l-1.863 2.18C426 457 426 457 423 459c1.473-5.01 4.275-7.518 8-11Z"/><path fill="#009091" d="m241 368 4 4h-15c3.089-2.06 3.71-2.239 7.188-2.125L241 370v-2Z"/><path fill="#066168" d="m264 360 3 1-2.5 2.938c-2.605 2.532-2.605 2.532-2.5 4.062h-5l2.938-3.438 1.652-1.933A49.663 49.663 0 0 1 264 360Z"/><path fill="#14656C" d="m368 449 2 2-6 7-2-3 6-6Z"/><path fill="#1C767A" d="M68 237h2v2l1.75.688c2.816 1.642 4.33 3.707 6.25 6.312-3 0-3 0-4.824-1.715l-1.864-2.222-1.886-2.215C68 238 68 238 68 237Z"/><path fill="#02242D" d="m502 182 2 1c-.55 3.875-2.276 5.596-5.063 8.25l-2.222 2.14L495 195c0-3.572.588-3.98 2.938-6.5 2.137-2.304 3.045-3.448 4.062-6.5Z"/><path fill="#02525A" d="m519 42 2 1-11 11c0-3 0-3 1.969-5.262l2.531-2.425 2.531-2.45L519 42Z"/><path fill="#0B676C" d="m274 349 1 4-5 4-2-2 6-6Z"/><path fill="#1A686F" d="M227 280c5.011 1.432 6.945 3.984 10 8-3 0-3 0-4.824-1.496l-1.863-1.942-1.887-1.933C227 281 227 281 227 280Z"/><path fill="#17C9C3" d="m317 61 7 6-1 2c-3.265-1.804-4.89-2.834-7-6l1-2Z"/><path fill="#80EEE9" d="M257 362c0 3.38-.875 5.835-2 9l-1-2-4 1 2.938-3.438 1.652-1.933A49.663 49.663 0 0 1 257 362Z"/><path fill="#23B2B1" d="M236 319v2c-2.925 2.681-5.137 4.2-9 5a271.11 271.11 0 0 1 2.813-3.5l1.582-1.969C233 319 233 319 236 319Z"/><path fill="#0C5D63" d="m489 249 6 5-1 3c-1.938-.625-1.938-.625-4-2-.75-3.125-.75-3.125-1-6Z"/><path fill="#42D6D1" d="m441 56 2 3-5 5-2-2 5-6Z"/><path fill="#0E6168" d="M10 432c3.35 1.117 3.793 1.747 5.688 4.563l1.324 1.94L18 440h-3c-5-5.349-5-5.349-5-8Z"/><path fill="#089698" d="M515 336c3.83 1.453 5.12 3.429 7 7-3.366-1.443-5.51-3.333-8-6l1-1Z"/><path fill="#049D9C" d="M490 308c3.875 1.75 3.875 1.75 5 4l-2 1-1 2c-1.563-1.25-1.563-1.25-3-3 .313-2.188.313-2.188 1-4Z"/><path fill="#026C6F" d="m124 42 2 1a417.694 417.694 0 0 1-2.875 3.5l-1.617 1.969L120 50h-2c1.443-3.366 3.333-5.51 6-8Z"/><path fill="#4AE2DD" d="M492 2c3.674.306 4.781.758 7.313 3.563L501 8l-3 1-1.875-2.375C494.101 4.032 494.101 4.032 492 2Z"/><path fill="#3ADBD6" d="M100 364c2.743 3.2 4.63 6.005 6 10l-2 1c-4-6.5-4-6.5-4-11Z"/><path fill="#70F0EB" d="m500 58 2 1c-1.37 3.161-1.99 3.993-5 6l-1-3 4-4Z"/><path fill="#88F1EC" d="m117 41 6 2-4 4c-2-1-2-1-2.688-3L116 42l1-1Z"/><path fill="#08595E" d="M293 332c-1.75 3.875-1.75 3.875-4 5l-2-2c2.625-3 2.625-3 6-3Z"/><path fill="#18C7C1" d="M374 125h7l-1 2-3 1c-1.209 2-1.209 2-2 4l-1-7Z"/><path fill="#1B4148" d="M613 64h2c-1.491 3.795-3.757 5.61-7 8v-3h2l.938-1.938C612 65 612 65 613 64Z"/><path fill="#012128" d="M586.063 36.938 589 37l-2 2-2-1-.875 1.938C583 42 583 42 581 43c1.074-5.981 1.074-5.981 5.063-6.063Z"/><path fill="#04999A" d="M421 456h2c-1.293 2.884-2.66 4.872-5 7l-2-1a158.814 158.814 0 0 1 5-6Z"/><path fill="#0C575F" d="m510 273 6 5-2 2c-2-1.25-2-1.25-4-3v-4Z"/><path fill="#04ACAA" d="m261 235 4 4-1 2-3-1v2h-2l2-7Z"/><path fill="#014850" d="M371 184c3.367 1.393 4.986 2.979 7 6l-1 2c-3.488-2.21-4.73-4.086-6-8Z"/><path fill="#B6F2F0" d="M378 120h7c-1.286 2.572-2.334 3.01-5 4-2.25-.375-2.25-.375-4-1h3l-1-3Z"/><path fill="#004951" d="M292 99c2.468 1.152 4.048 2.048 6 4l-1 3a141.4 141.4 0 0 1-5-5v-2Z"/><path fill="#15787C" d="m325 1 5 5-3 1-3-3 1-3Z"/><path fill="#049D9C" d="m477 293 3 3h-2l-1 3-4-5 4 1v-2Z"/><path fill="#037D82" d="m419 228-3 1c-.733 2.015-.733 2.015-1 4l-2-5c2.49-1.245 3.41-.777 6 0Z"/></svg>