<svg xmlns="http://www.w3.org/2000/svg" width="667" height="526"><path fill="#0EA59E" d="M176.078 1.87c1.772 0 3.544-.003 5.317-.005 4.77-.004 9.54-.003 14.31 0 5.01.003 10.021 0 15.031 0 8.404-.003 16.808 0 25.212.005 9.704.005 19.407.003 29.11-.002 8.355-.005 16.71-.005 25.064-.003 4.98.002 9.96.002 14.94-.001 4.677-.003 9.354-.001 14.03.005 1.713 0 3.425 0 5.138-.002 2.343-.002 4.687.001 7.03.006l3.968.001c10.985.367 10.985.367 14.573 3.83.86 1.165 1.696 2.349 2.511 3.546.938 1.283 1.878 2.564 2.82 3.844l1.431 1.976c2.24 3.01 4.674 5.841 7.124 8.68C368.242 29.077 372.653 34.503 377 40c9.343 11.74 18.82 23.37 28.375 34.937C410.013 80.552 414.601 86.195 419 92c-1.544 3.485-3.625 6.143-6.063 9.062l-2.453 2.954L408 107c-1.439 1.77-2.876 3.54-4.313 5.312-3.453 4.228-6.99 8.373-10.562 12.5a344.073 344.073 0 0 0-11.813 14.438c-5.377 6.94-11.05 13.586-17.312 19.75-5.105-5.554-10.035-11.184-14.707-17.105-2.88-3.636-5.804-7.235-8.73-10.833l-1.714-2.107a4838.76 4838.76 0 0 0-11.462-14.033c-1.878-2.298-3.75-4.6-5.617-6.906l-1.73-2.135a4220.351 4220.351 0 0 1-3.349-4.137 291.458 291.458 0 0 0-9.6-11.29C306 89 306 89 306 87h-2v-2c-4.562-1.739-8.791-2.406-13.632-2.615l-2.336-.113c-11.962-.516-23.943-.437-35.915-.44l-5.982-.007c-6.246-.009-12.492-.011-18.738-.01-6.393 0-12.786-.01-19.178-.026-5.541-.013-11.082-.018-16.624-.018-3.286 0-6.573-.003-9.86-.013-27.011-1.437-27.011-1.437-50.688 8.996-7.886 8.2-10.425 18.464-10.258 29.598.8 10.04 5.336 17.224 12.586 23.96 10.92 8.774 26.562 6.9 39.812 7.25l4.62.131c3.73.106 7.462.208 11.193.307l1-2 1.609.495c2.939.62 5.644.609 8.65.587l3.847-.02 2.05-.017c2.14-.018 4.278-.028 6.417-.036 6.08-.025 12.16-.06 18.241-.105 3.727-.027 7.453-.044 11.18-.055 1.404-.006 2.809-.016 4.214-.03 29.476-.293 51.718 6.714 73.292 27.368 4.19 4.28 7.835 8.92 11.484 13.66 2.566 3.33 5.18 6.545 8.016 9.653 3.803 4.183 7.251 8.596 10.716 13.058a352.936 352.936 0 0 0 9.971 12.192c5.45 6.385 10.707 12.9 15.864 19.523l2.761 3.54c.462.59.923 1.18 1.397 1.789 3.296 4.194 6.699 8.282 10.166 12.335 7.819 9.192 7.819 9.192 10.125 13.063-.543 4.579-3.667 7.384-6.625 10.687a2044.934 2044.934 0 0 0-3.316 3.79l-1.614 1.844c-1.744 2.027-3.39 4.113-5.008 6.241-3.27 4.29-6.75 8.39-10.245 12.496-5.204 6.116-10.273 12.34-15.329 18.579-4.716 5.8-9.533 11.501-14.414 17.162a473.148 473.148 0 0 0-9.137 10.951c-7.719 9.435-15.205 17.311-25.312 24.25l-2.39 1.684c-5.027 3.29-10.304 5.515-15.923 7.566l-2.008.747c-30.938 10.7-70.675 5.077-103.052 5.059l-6.76-.002c-34.522-.009-69.041-.237-103.561-.5-8.253-.062-16.506-.121-24.759-.18C33.698 397.251 16.85 397.126 0 397c.815-3.885 2.25-5.664 5-8.563 3.207-3.458 6.29-6.952 9.25-10.625 3.605-4.45 7.304-8.804 11.062-13.125a2489841381.819 2489841381.819 0 0 0 5.028-5.777c6.12-7.043 12.22-14.1 18.097-21.348 5.129-6.316 10.478-12.439 15.831-18.565 1.705-1.897 1.705-1.897 2.923-3.693 2.735-3.661 4.053-5.134 8.648-6.17a94.69 94.69 0 0 1 4.421.013l2.474-.022c2.727-.016 5.452.018 8.18.052 1.958-.001 3.916-.006 5.875-.013 4.213-.01 8.426.003 12.64.033 6.665.047 13.33.043 19.995.033 11.745-.012 23.49.019 35.234.059 17.676.06 35.351.084 53.027.072 6.623-.003 13.245.015 19.868.05 4.124.02 8.248.022 12.372.02 1.909.002 3.818.012 5.727.029 2.612.022 5.222.02 7.834.012l2.275.038c9.768-.098 16.518-5.709 23.09-12.393 4.34-4.708 8.941-9.96 9.274-16.617-2.363-5.25-6.283-9.531-10-13.875C286 264 286 264 286 262l-3-1a101.567 101.567 0 0 1-4.125-5.063c-6.231-7.763-12.93-15.284-22.875-17.937a45.741 45.741 0 0 0-6.957-.043c-2.043.043-2.043.043-3.905-.446-2.21-.528-4.127-.64-6.396-.644l-2.394-.004-2.473.012-2.496-.012c-4.325-.119-4.325-.119-8.379 1.137a57.721 57.721 0 0 1-4-.5c-5.12-.658-9.907-.191-15 .5v-2h-4l-1 2-1-1a58.389 58.389 0 0 0-4.113-.133l-2.533-.004-2.667.012-2.63-.012-2.545.004-2.33.004c-2.177.129-4.075.594-6.182 1.129l-4-1c-3.486-.194-6.851-.287-10.25.562-1.75.438-1.75.438-3.522-.006-2.562-.64-4.996-.837-7.63-1.02-1.05-.078-2.1-.154-3.182-.233l-3.354-.24C122.467 234.49 122.467 234.49 117 233l-1-2c-1.783-.545-1.783-.545-3.938-.875C91.748 225.909 74.59 212.088 61 197l-2.129-3.27c-1.646-2.99-1.646-2.99-4.871-3.73l-.266-2.043c-.93-3.745-2.674-6.895-4.484-10.27C43.604 166.783 39.817 155.17 38 143l-.336-2.125c-4.074-31.709 2.888-65.254 21.968-91.119 3.043-3.907 6.397-7.503 9.825-11.072a87.031 87.031 0 0 0 5.117-5.899C76.87 30.15 77.928 29.335 81 28a491.838 491.838 0 0 0 4.922-3.376c27.451-19.04 57.515-22.796 90.156-22.753Z"/><path fill="#036062" d="m625 0 3 1c2.947.154 5.875.258 8.824.316l2.61.063c2.751.066 5.502.125 8.254.183l5.595.131c4.572.107 9.145.209 13.717.307-2.009 4.155-3.946 7.332-7.125 10.688-3.182 3.438-6.242 6.918-9.188 10.562-3.51 4.338-7.104 8.589-10.75 12.813a455.152 455.152 0 0 0-12.03 14.53 562.053 562.053 0 0 1-17.095 20.532c-6.493 7.446-12.778 15.053-19.033 22.7a5317.208 5317.208 0 0 1-10.729 13.068 1212.711 1212.711 0 0 1-12.22 14.579 587.372 587.372 0 0 0-8.268 9.966c-3.49 4.293-7.071 8.499-10.687 12.687-3.217 3.728-6.39 7.457-9.375 11.375-3.473 4.558-7.212 8.87-10.955 13.205-3.833 4.445-7.567 8.96-11.268 13.518a685.05 685.05 0 0 1-7.777 9.277 938.94 938.94 0 0 0-12.55 15.11A815.714 815.714 0 0 1 491 215c4.992 8.206 11.147 15.468 17.24 22.86 2.873 3.493 5.722 7.004 8.572 10.515l1.652 2.032a2394.471 2394.471 0 0 1 14.34 17.859c3.588 4.495 7.198 8.969 10.832 13.427 4.653 5.709 9.274 11.436 13.802 17.245 4.68 6.002 9.507 11.875 14.364 17.737a581.436 581.436 0 0 1 10.885 13.575c4.029 5.18 8.2 10.213 12.463 15.201 3.174 3.723 6.22 7.52 9.198 11.4 4.178 5.433 8.507 10.75 12.84 16.06l1.716 2.104c1.116 1.368 2.233 2.735 3.352 4.1 3.705 4.54 7.262 9.172 10.744 13.885l2-1v6c-10.893.171-21.784.271-32.678.282-5.06.008-10.117.039-15.176.126-4.89.083-9.776.102-14.667.078a224.12 224.12 0 0 0-5.574.074c-15.295.372-15.295.372-20.463-4.423-2.873-3.146-5.16-6.547-7.442-10.137a150.96 150.96 0 0 0-2.988-3.734l-2.324-3.016c-4.138-5.328-8.384-10.556-12.688-15.75-5.707-6.892-11.273-13.88-16.776-20.935a1034.378 1034.378 0 0 0-5.786-7.315l-1.88-2.36c-1.57-1.965-1.57-1.965-3.558-3.89a206.878 206.878 0 0 1-2.707-3.617c-3.19-4.289-6.559-8.403-9.98-12.508-4.982-6.009-9.885-12.069-14.673-18.233A974.608 974.608 0 0 0 462 288l-1.347-1.725c-1.172-1.463-2.408-2.874-3.653-4.275h-2l-.621-2.023c-1.885-4.068-4.575-7.18-7.442-10.602l-1.78-2.158c-1.18-1.428-2.36-2.853-3.544-4.277a1074.317 1074.317 0 0 1-6.113-7.44l-2.125-2.594c-2.966-3.63-5.92-7.267-8.875-10.906a5486.69 5486.69 0 0 0-15.5-19l-4.5-5.5-2.25-2.75c-6.75-8.25-6.75-8.25-8.965-10.973a380.434 380.434 0 0 0-4.851-5.773l-2.497-2.941-2.285-2.653C382 190 382 190 382 186a69.57 69.57 0 0 1 5-5.625 978.488 978.488 0 0 0 3.059-3.227l1.526-1.614c2.624-2.846 4.979-5.896 7.36-8.944 1.551-1.955 3.122-3.87 4.735-5.774l1.386-1.638c1.307-1.54 2.619-3.076 3.93-4.612 2.157-2.467 2.157-2.467 3.004-5.566l2 1 .746-1.684c1.494-2.76 3.305-4.97 5.317-7.379l2.449-2.949L425 135c1.46-1.79 2.918-3.582 4.375-5.375 3.795-4.641 7.657-9.22 11.539-13.789A659.649 659.649 0 0 0 449.5 105.5c3.748-4.605 7.57-9.14 11.414-13.664 3.645-4.296 7.214-8.65 10.77-13.02a733.851 733.851 0 0 1 7.878-9.379c3.187-3.746 6.326-7.515 9.375-11.374 3.755-4.742 7.69-9.314 11.64-13.89C503.455 40.831 506.269 37.46 509 34c3.723-4.716 7.631-9.258 11.558-13.804a357.865 357.865 0 0 0 10.82-13.208C532.866 5.165 534.215 3.53 536 2c2.91-.28 5.602-.379 8.51-.34l2.632-.002c2.874.002 5.746.026 8.62.049a3796.847 3796.847 0 0 1 21.701.087c5.349.03 10.698.044 16.047.06 10.497.032 20.993.083 31.49.146V0Z"/><path fill="#01575A" d="M422 301c4.336 1.547 6.527 4.891 9.188 8.438l2.96 3.851 1.472 1.923c3.857 4.998 7.93 9.828 11.955 14.69 7.147 8.635 14.232 17.302 21.12 26.145a106.977 106.977 0 0 0 4.672 5.594C475 364 475 364 474.762 365.949c-.825 2.22-1.733 3.482-3.317 5.23l-1.596 1.795c-.57.627-1.138 1.255-1.724 1.901-4.465 5.026-8.773 10.111-12.875 15.438-3.85 4.984-7.884 9.702-12.148 14.343-2.767 3.085-5.308 6.324-7.872 9.578-2.674 3.317-5.445 6.542-8.23 9.766a417.802 417.802 0 0 0-11.863 14.363c-3.186 3.931-6.505 7.747-9.838 11.553-2.525 2.908-4.857 5.833-7.037 9.01L396 462h-2l-.68 1.617c-1.759 3.175-4.073 5.784-6.445 8.508a2491.916 2491.916 0 0 0-4.501 5.251c-1.82 2.15-3.57 4.35-5.312 6.562-3.781 4.781-7.747 9.392-11.763 13.978-2.525 2.908-4.857 5.833-7.037 9.01L356 510h-2l-.824 1.707c-2.226 4.34-4.417 8.103-8.176 11.293-4.316 1.304-8.464 1.186-12.945 1.09l-3.942.021c-3.605.017-7.207-.025-10.81-.08-3.146-.042-6.29-.054-9.436-.067-10.054-.043-20.105-.19-30.158-.359-4.386-.072-8.772-.136-13.158-.2-8.517-.127-17.034-.263-25.551-.405l2-5h2l.652-1.59c1.877-3.355 4.383-6.1 6.91-8.972a3615.83 3615.83 0 0 0 3.243-3.743l1.628-1.878a542.548 542.548 0 0 0 6.755-8.005l2.167-2.605c1.815-2.194 1.815-2.194 2.645-5.207a363.511 363.511 0 0 1 5-4c1.4-1.586 2.753-3.214 4.063-4.875a456.86 456.86 0 0 1 11-13.188c3.385-3.925 6.723-7.868 9.937-11.937 3.71-4.697 7.597-9.224 11.506-13.756 3.813-4.428 7.53-8.926 11.213-13.463 2.58-3.145 5.207-6.246 7.844-9.344 3.799-4.47 7.51-8.994 11.156-13.59C347.619 390.74 356.776 379.84 366 369c5.89-6.927 11.747-13.872 17.488-20.922 3.768-4.617 7.562-9.212 11.352-13.81 3.294-3.997 6.577-8.002 9.848-12.018 3.831-4.696 7.742-9.322 11.684-13.925 2.028-2.379 3.89-4.72 5.628-7.325Z"/><path fill="#0B6D6B" d="M297 286h2c-.942 6.46-3.77 9.007-8.809 13.008-2.35 2.137-3.567 4.284-5.191 6.992-1.867 1.547-1.867 1.547-3.875 2.75l-1.992 1.234c-4.727 2.251-9.647 2.165-14.789 2.167l-2.312.013c-2.553.013-5.105.02-7.658.025l-5.495.026c-3.941.018-7.882.033-11.824.045-6.226.02-12.452.048-18.677.077-14.335.065-28.67.12-43.004.176-13.148.05-26.295.104-39.443.165-6.196.028-12.392.052-18.588.071-3.843.014-7.687.031-11.53.05-1.79.008-3.58.014-5.37.018-2.431.006-4.863.018-7.295.032h-2.174c-3.268-.254-3.268-.254-5.974 1.151-3.076.072-6.14-.004-9.215-.063-2.742-.136-2.742-.136-4.785 1.063l-1.5 2.875c-2.59 4.727-6.265 8.382-9.922 12.3-2.315 2.537-4.464 5.122-6.578 7.825-11.667 14.833-11.667 14.833-16 17-1.134 2.017-1.134 2.017-2 4h-2l-.125 1.688c-1.092 2.885-2.843 4.096-5.305 5.87-2.06 1.892-3.148 4.03-4.57 6.442-1.748 2.447-3.587 4.817-5.438 7.188l-1.447 1.904c-2.552 3.274-4.39 5.05-8.115 6.908a87.777 87.777 0 0 0-2 5c16.667.024 33.335.041 50.002.052 7.744.005 15.488.012 23.232.023a20785.232 20785.232 0 0 0 29.076.023c18.39.004 36.762-.143 55.145-.74a398.905 398.905 0 0 1 31.788.224c12.167.576 24.328.568 36.507.548 3.935-.005 7.87 0 11.805.007 2.536 0 5.073-.002 7.61-.004l3.512.006c6.195-.018 12.18-.333 18.323-1.139 4.813-.438 4.813-.438 6.957-.621 2.295-.426 3.964-1.337 6.043-2.379 2.664-.515 5.295-.73 8-1l1-3a220.523 220.523 0 0 1 7-2l1-2 2.938-.938c3.33-.81 3.33-.81 5.062-4.062l1.875-.875c2.334-1.054 2.334-1.054 4.063-3.563C319 370 319 370 321.313 368.688c4.71-2.957 8.917-7.376 10.687-12.687 1.381-1.105 2.762-2.21 4.145-3.313 3.163-2.877 5.701-6.26 8.367-9.593 2.61-3.246 5.287-6.424 7.988-9.594a732.447 732.447 0 0 0 10-12c3.452-4.232 6.928-8.44 10.438-12.625l1.433-1.725c3.398-4.034 3.398-4.034 5.629-5.15-1.363 4.038-3.14 6.544-6.063 9.625-4.886 5.277-9.422 10.78-13.937 16.375a834.132 834.132 0 0 1-16.551 19.8 473.148 473.148 0 0 0-9.137 10.95c-7.719 9.435-15.205 17.311-25.312 24.25l-2.39 1.684c-5.027 3.29-10.304 5.515-15.923 7.566l-2.008.747c-30.938 10.7-70.675 5.077-103.052 5.059l-6.76-.002c-34.522-.009-69.041-.237-103.561-.5-8.253-.062-16.506-.121-24.759-.18C33.698 397.251 16.85 397.126 0 397c.815-3.885 2.25-5.664 5-8.563 3.207-3.458 6.29-6.952 9.25-10.625 3.605-4.45 7.304-8.804 11.063-13.125l1.67-1.92 3.357-3.857c6.12-7.043 12.22-14.1 18.098-21.348 5.128-6.316 10.477-12.439 15.83-18.565 1.705-1.897 1.705-1.897 2.923-3.693 2.735-3.661 4.053-5.134 8.648-6.17a94.69 94.69 0 0 1 4.421.013l2.474-.022c2.727-.016 5.452.018 8.18.052 1.958-.001 3.916-.006 5.875-.013 4.213-.01 8.426.003 12.64.033 6.665.047 13.33.043 19.995.033 11.745-.012 23.49.019 35.234.059 17.676.06 35.351.084 53.027.072 6.623-.003 13.245.015 19.868.05 4.124.02 8.248.022 12.372.02 1.909.002 3.818.012 5.727.029 2.612.022 5.222.02 7.834.012l2.275.038c8.725-.088 15.19-4.543 21.239-10.51 3.889-4.098 7.113-8.138 10-13Z"/><path fill="#053A3A" d="M422 301c4.336 1.547 6.527 4.891 9.188 8.438l2.96 3.851 1.472 1.923c3.857 4.998 7.93 9.828 11.955 14.69 7.147 8.635 14.232 17.302 21.12 26.145a106.977 106.977 0 0 0 4.672 5.594C475 364 475 364 474.762 365.949c-.825 2.22-1.733 3.482-3.317 5.23l-1.596 1.795c-.57.627-1.138 1.255-1.724 1.901-4.465 5.026-8.773 10.111-12.875 15.438-3.85 4.984-7.884 9.702-12.148 14.343-2.767 3.085-5.308 6.324-7.872 9.578-2.674 3.317-5.445 6.542-8.23 9.766a417.802 417.802 0 0 0-11.863 14.363c-3.186 3.931-6.505 7.747-9.838 11.553-2.525 2.908-4.857 5.833-7.037 9.01L396 462h-2l-.68 1.617c-1.759 3.175-4.073 5.784-6.445 8.508a2491.916 2491.916 0 0 0-4.501 5.251c-1.82 2.15-3.57 4.35-5.312 6.562-3.781 4.781-7.747 9.392-11.763 13.978-2.525 2.908-4.857 5.833-7.037 9.01L356 510h-2l-.824 1.707c-2.226 4.34-4.417 8.103-8.176 11.293-4.316 1.304-8.464 1.186-12.945 1.09l-3.942.021c-3.605.017-7.207-.025-10.81-.08-3.146-.042-6.29-.054-9.436-.067-10.054-.043-20.105-.19-30.158-.359-4.386-.072-8.772-.136-13.158-.2-8.517-.127-17.034-.263-25.551-.405l2-5h2l.652-1.59c1.877-3.355 4.383-6.1 6.91-8.972a3615.83 3615.83 0 0 0 3.243-3.743l1.628-1.878a542.548 542.548 0 0 0 6.755-8.005l2.167-2.605c1.815-2.194 1.815-2.194 2.645-5.207a363.511 363.511 0 0 1 5-4c1.4-1.586 2.753-3.214 4.063-4.875a456.86 456.86 0 0 1 11-13.188c3.385-3.925 6.723-7.868 9.937-11.937 3.71-4.697 7.597-9.224 11.506-13.756 3.813-4.428 7.53-8.926 11.213-13.463 2.58-3.145 5.207-6.246 7.844-9.344 3.799-4.47 7.51-8.994 11.156-13.59C347.619 390.74 356.776 379.84 366 369c5.89-6.927 11.747-13.872 17.488-20.922 3.768-4.617 7.562-9.212 11.352-13.81 3.294-3.997 6.577-8.002 9.848-12.018 3.831-4.696 7.742-9.322 11.684-13.925 2.028-2.379 3.89-4.72 5.628-7.325Zm0 3c-1.375 1.508-2.674 3.085-3.938 4.688l-2.43 3.039-1.295 1.622c-2.25 2.78-4.578 5.493-6.9 8.214a509.506 509.506 0 0 0-11.355 13.859c-2.413 2.988-4.9 5.909-7.394 8.828a376.657 376.657 0 0 0-11.313 13.938c-3.826 4.932-7.832 9.593-12.063 14.187-2.74 3.11-5.277 6.347-7.812 9.625-3.866 4.999-7.904 9.724-12.188 14.375-3.244 3.683-6.216 7.56-9.217 11.442-3.491 4.486-7.202 8.707-11.048 12.894-2.573 2.877-4.912 5.895-7.254 8.96-5.85 7.597-12.092 14.872-18.348 22.134-3.796 4.415-7.497 8.898-11.168 13.418-3.021 3.685-6.107 7.313-9.194 10.944a618.54 618.54 0 0 0-8.52 10.27c-3.456 4.247-6.99 8.416-10.563 12.563-3.74 4.349-7.463 8.71-11.125 13.125l-2.133 2.57c-1.557 2.06-2.63 3.99-3.742 6.305 12.96.325 25.92.574 38.885.725 6.02.073 12.039.172 18.058.331 5.816.153 11.63.236 17.448.272 2.212.026 4.424.076 6.635.152 12.818.818 12.818.818 23.921-4.494 2.67-2.862 4.867-5.932 6.935-9.247 1.68-2.612 3.675-4.936 5.68-7.301l2.176-2.68c2.47-3.012 4.987-5.98 7.512-8.945 4.136-4.86 8.18-9.786 12.188-14.75 4.7-5.82 9.502-11.536 14.394-17.196 3.452-4.002 6.768-8.093 10.043-12.242 2.644-3.266 5.38-6.445 8.125-9.625 4.09-4.74 8.069-9.542 11.953-14.453 4.238-5.274 8.661-10.396 13.047-15.547 5.953-7.001 11.867-14.026 17.66-21.16a412.523 412.523 0 0 1 5.274-6.274l1.511-1.765a695.367 695.367 0 0 1 2.926-3.387c2.29-2.669 4.257-5.16 5.629-8.414-4.991-6.615-10.043-13.145-15.438-19.438-4.308-5.025-8.434-10.166-12.498-15.39-3.815-4.892-7.77-9.652-11.767-14.395-2.753-3.329-5.358-6.754-7.922-10.23L424 304h-2Z"/><path fill="#053738" d="m528 167 1 2a461.781 461.781 0 0 1-14 17 432.857 432.857 0 0 0-11.977 14.469c-3.925 4.91-7.984 9.713-12.023 14.531 4.992 8.206 11.147 15.468 17.24 22.86 2.873 3.493 5.722 7.004 8.572 10.515l1.652 2.032a2394.471 2394.471 0 0 1 14.34 17.859c3.588 4.495 7.198 8.969 10.832 13.427 4.653 5.709 9.274 11.436 13.802 17.245 4.68 6.002 9.507 11.875 14.364 17.737a581.436 581.436 0 0 1 10.885 13.575c4.029 5.18 8.2 10.213 12.463 15.201 3.174 3.723 6.22 7.52 9.198 11.4 4.178 5.433 8.507 10.75 12.84 16.06l1.716 2.104c1.116 1.368 2.233 2.735 3.352 4.1 3.705 4.54 7.262 9.172 10.744 13.885l2-1v6c-10.893.171-21.784.271-32.678.282-5.06.008-10.117.039-15.176.126-4.89.083-9.776.102-14.667.078a224.12 224.12 0 0 0-5.574.074c-15.295.372-15.295.372-20.463-4.423-2.873-3.146-5.16-6.547-7.442-10.137a150.96 150.96 0 0 0-2.988-3.734l-2.324-3.016c-4.138-5.328-8.384-10.556-12.688-15.75-5.707-6.892-11.273-13.88-16.776-20.935a1034.378 1034.378 0 0 0-5.786-7.315l-1.88-2.36c-1.57-1.965-1.57-1.965-3.558-3.89a206.878 206.878 0 0 1-2.707-3.617c-3.19-4.289-6.559-8.403-9.98-12.508-4.982-6.009-9.885-12.069-14.673-18.233A974.608 974.608 0 0 0 462 288l-1.347-1.725c-1.172-1.463-2.408-2.874-3.653-4.275h-2l-.621-2.023c-1.885-4.068-4.576-7.18-7.442-10.602l-1.757-2.134a1204.848 1204.848 0 0 0-7.97-9.557l-2.397-2.872-2.106-2.48c-1.736-2.372-2.748-4.564-3.707-7.332 3.404 1.135 3.874 1.821 5.938 4.625a529.701 529.701 0 0 0 9.937 12.75l1.573 1.964c4.479 5.586 9.006 11.13 13.552 16.661 3.004 3.664 6.003 7.33 9 11l1.485 1.817c6.165 7.548 12.279 15.127 18.271 22.812 4.343 5.544 8.83 10.965 13.32 16.39 3.532 4.274 7.003 8.581 10.381 12.977 5.296 6.878 10.825 13.565 16.356 20.254 16.28 19.702 16.28 19.702 19.533 24.901 1.495 2.033 1.495 2.033 3.8 2.323l2.524-.036 2.883-.01 3.13-.073 3.26-.025c3.499-.03 6.996-.087 10.495-.142 4.743-.047 9.486-.08 14.23-.114l3.52-.03c12.623-.098 25.206.293 37.812.956-5.092-6.978-10.359-13.713-15.975-20.275-4.123-4.82-8.089-9.752-12.025-14.725-1.27-1.584-2.541-3.167-3.813-4.75a890.268 890.268 0 0 1-6.785-8.57c-4.394-5.626-8.81-11.213-13.402-16.68-3.998-4.76-7.86-9.607-11.684-14.508-4.089-5.231-8.275-10.38-12.475-15.523a752.21 752.21 0 0 1-10.466-13.156c-3.98-5.11-8.106-10.071-12.32-14.99-3.584-4.205-6.952-8.547-10.288-12.95-2.953-3.875-6.035-7.612-9.205-11.31-4.84-5.65-9.476-11.438-14.03-17.32a220.303 220.303 0 0 0-4.813-5.985l-1.969-2.383-1.703-2.008C488 217 488 217 488.043 215.078c1.35-2.932 3.293-4.871 5.52-7.203 3.99-4.252 7.71-8.631 11.312-13.215 2.463-3.083 5.004-6.093 7.563-9.097a873.025 873.025 0 0 0 12.882-15.516C527 168 527 168 528 167Z"/><path fill="#063E3E" d="M422 301c3.002 1.316 4.766 2.595 6.762 5.188l1.45 1.867 1.476 1.945 1.51 1.945c3.628 4.708 3.628 4.708 4.802 7.055-4.735-.818-6.46-3.776-9.125-7.5C426 307.134 426 307.134 422 304l-.66 1.602c-1.838 3.29-4.293 5.965-6.777 8.773-4.233 4.852-8.315 9.78-12.25 14.875-3.87 4.999-7.921 9.736-12.2 14.395-2.837 3.162-5.464 6.471-8.097 9.804-6.032 7.634-12.292 15.062-18.644 22.429-3.516 4.09-6.904 8.263-10.247 12.497-2.644 3.266-5.38 6.445-8.125 9.625a433.916 433.916 0 0 0-12.02 14.523c-2.222 2.78-4.503 5.503-6.793 8.227-3.678 4.39-7.238 8.85-10.75 13.375-3.897 5.013-7.967 9.782-12.265 14.46-3.057 3.399-5.914 6.946-8.79 10.497a613.9 613.9 0 0 1-7.882 9.418 736.123 736.123 0 0 0-10 12c-6.022 7.393-12.21 14.644-18.398 21.898-5.185 6.088-10.274 12.225-15.102 18.602l-3-1 1-2h2l.652-1.59c1.877-3.355 4.383-6.1 6.91-8.972a3615.83 3615.83 0 0 0 3.243-3.743l1.628-1.878a542.548 542.548 0 0 0 6.755-8.005l2.167-2.605c1.815-2.194 1.815-2.194 2.645-5.207a363.511 363.511 0 0 1 5-4c1.4-1.586 2.753-3.214 4.063-4.875a456.86 456.86 0 0 1 11-13.188c3.385-3.925 6.723-7.868 9.937-11.937 3.71-4.697 7.597-9.224 11.506-13.756 3.813-4.428 7.53-8.926 11.213-13.463 2.58-3.145 5.207-6.246 7.844-9.344 3.799-4.47 7.51-8.994 11.156-13.59C347.619 390.74 356.776 379.84 366 369c5.89-6.927 11.747-13.872 17.488-20.922 3.768-4.617 7.562-9.212 11.352-13.81 3.294-3.997 6.577-8.002 9.848-12.018 3.831-4.696 7.742-9.322 11.684-13.925 2.028-2.379 3.89-4.72 5.628-7.325Z"/><path fill="#043E3F" d="M429 245c3.404 1.135 3.874 1.821 5.938 4.625a529.701 529.701 0 0 0 9.937 12.75l1.573 1.964c4.479 5.586 9.006 11.13 13.552 16.661 3.004 3.664 6.003 7.33 9 11l1.485 1.817c6.165 7.548 12.279 15.127 18.271 22.812 4.343 5.544 8.83 10.965 13.32 16.39 3.532 4.274 7.003 8.581 10.381 12.977 5.296 6.878 10.825 13.565 16.356 20.254 17.06 20.646 17.06 20.646 19.339 24.9 2.353 2.355 4.117 2.322 7.362 2.348l2.262-.044 2.396.002c2.613-.003 5.226-.034 7.84-.065 1.811-.008 3.623-.014 5.435-.018 4.77-.015 9.538-.054 14.308-.098 4.866-.041 9.732-.06 14.599-.08 9.549-.043 19.097-.11 28.646-.195v2l2 1 2-4v6c-10.893.171-21.784.271-32.678.282-5.06.008-10.117.039-15.176.126-4.89.083-9.776.102-14.667.078a224.12 224.12 0 0 0-5.574.074c-15.295.372-15.295.372-20.463-4.423-2.873-3.146-5.16-6.547-7.442-10.137a150.96 150.96 0 0 0-2.988-3.734l-2.324-3.016c-4.138-5.328-8.384-10.556-12.688-15.75-5.707-6.892-11.273-13.88-16.776-20.935a1034.378 1034.378 0 0 0-5.786-7.315l-1.88-2.36c-1.57-1.965-1.57-1.965-3.558-3.89a206.878 206.878 0 0 1-2.707-3.617c-3.19-4.289-6.559-8.403-9.98-12.508-4.982-6.009-9.885-12.069-14.673-18.233A974.608 974.608 0 0 0 462 288l-1.347-1.725c-1.172-1.463-2.408-2.874-3.653-4.275h-2l-.621-2.023c-1.885-4.068-4.576-7.18-7.442-10.602l-1.757-2.134a1204.848 1204.848 0 0 0-7.97-9.557l-2.397-2.872-2.106-2.48c-1.736-2.372-2.748-4.564-3.707-7.332Z"/><path fill="#0C6C67" d="M379 302c0 3.946-1.282 4.889-3.813 7.875l-2.484 2.957L370 316a7449.507 7449.507 0 0 0-4.16 4.908c-.94 1.11-1.882 2.218-2.824 3.326a359.039 359.039 0 0 0-7.954 9.704c-3.732 4.711-7.636 9.261-11.563 13.81a462.589 462.589 0 0 0-9.187 11.002c-7.719 9.435-15.205 17.311-25.312 24.25l-2.39 1.684c-12.575 8.233-27.702 12.8-42.61 10.316 2.982-1.727 4.949-2.192 8.375-2 3.967.098 6.895-.559 10.625-2 3.64-.819 7.318-1.4 11-2l1-3a220.523 220.523 0 0 1 7-2l1-2 2.938-.938c3.33-.81 3.33-.81 5.062-4.062l1.875-.875c2.334-1.054 2.334-1.054 4.063-3.563C319 370 319 370 321.313 368.688c4.71-2.957 8.917-7.376 10.687-12.687 1.381-1.105 2.762-2.21 4.145-3.313 3.163-2.877 5.701-6.26 8.367-9.593 2.61-3.246 5.287-6.424 7.988-9.594a732.447 732.447 0 0 0 10-12 862.243 862.243 0 0 1 10.5-12.625l1.459-1.725c3.406-4.015 3.406-4.015 4.541-5.15Z"/><path fill="#063F3F" d="m528 167 1 2a461.781 461.781 0 0 1-14 17 432.857 432.857 0 0 0-11.977 14.469c-3.925 4.91-7.984 9.713-12.023 14.531 4.992 8.206 11.147 15.468 17.24 22.86 2.873 3.493 5.722 7.004 8.572 10.515l1.652 2.032c4.205 5.177 8.38 10.376 12.536 15.593 1.312 1.646 2.624 3.292 3.938 4.938l1.964 2.464a465.981 465.981 0 0 0 4.602 5.602L544 282l2.313 2.75C548 287 548 287 548 289c-3.495-1.449-5.217-3.199-7.5-6.188l-2.094-2.699L536 277c-1.99-2.507-3.996-5.003-6-7.5l-3.133-3.914-1.5-1.876c-1.143-1.43-2.283-2.863-3.422-4.296a674.274 674.274 0 0 0-9.09-11.207c-6.164-7.423-12.26-14.889-18.168-22.52L493 223.534l-1.55-2.021-1.364-1.767c-1.22-1.963-1.825-3.445-2.085-5.745a52.617 52.617 0 0 1 4.938-5.625 977.934 977.934 0 0 0 3.09-3.23l1.546-1.615c2.63-2.821 4.96-5.872 7.336-8.905 2.448-3.075 4.98-6.07 7.527-9.063a872.543 872.543 0 0 0 12.883-15.515C527 168 527 168 528 167Z"/><path fill="#159C8E" d="M233 80c8.337-.116 16.673-.205 25.01-.26 3.872-.025 7.744-.06 11.615-.117 3.742-.055 7.483-.084 11.224-.097 1.423-.01 2.845-.028 4.267-.055 8.187-.15 14.605-.162 20.884 5.529 2.089 2.046 3.973 4.165 5.813 6.438l1.525 1.83c4.532 5.472 8.907 11.072 13.267 16.681a202.056 202.056 0 0 0 6.957 8.371c1.763 2.06 3.442 4.18 5.125 6.305 3.181 4 6.441 7.92 9.75 11.813l2.793 3.3a828.518 828.518 0 0 0 5.508 6.43l2.512 2.957 2.266 2.633L363 154l-1 3a334.415 334.415 0 0 1-12.637-15.035 1439.514 1439.514 0 0 0-8.8-10.903l-1.714-2.107a4873.303 4873.303 0 0 0-11.462-14.033c-1.878-2.298-3.75-4.6-5.617-6.906l-1.73-2.135a4220.34 4220.34 0 0 1-3.349-4.137 291.458 291.458 0 0 0-9.6-11.29C306 89 306 89 306 87h-2v-2c-4.625-1.77-8.927-2.41-13.836-2.621l-2.337-.114c-10.81-.47-21.634-.371-32.452-.328-2.182.006-4.365.01-6.547.014-5.276.011-10.552.028-15.828.049v-2Z"/><path fill="#0E7E74" d="M304 167c4.214.5 6.673 3.078 9.625 5.875l1.59 1.486a180.876 180.876 0 0 1 19.875 22.194c2.387 3.055 4.892 5.997 7.41 8.945 3.703 4.341 7.294 8.736 10.766 13.266 4.185 5.392 8.579 10.621 12.921 15.886 4.609 5.604 9.113 11.278 13.573 17 3.276 4.18 6.663 8.25 10.115 12.286 7.819 9.19 7.819 9.19 10.125 13.062-.364 3.146-1.499 4.915-3.582 7.242l-1.576 1.793-1.654 1.84c-4.52 5.057-4.52 5.057-8.45 10.57L383 301h-2c1.583-3.607 3.798-6.358 6.313-9.375l2.417-2.934a161.626 161.626 0 0 1 4.008-4.601c2.51-2.531 2.51-2.531 3.188-5.844-1.378-3.344-3.603-5.964-5.863-8.746l-1.499-1.875c-3.942-4.914-7.983-9.744-12.037-14.566-2.716-3.287-5.346-6.631-7.964-9.996-4.09-5.253-8.31-10.37-12.633-15.432-4.088-4.791-8.025-9.69-11.93-14.631l-2.223-2.656C341 208 341 208 341 206h-2c-1.198-1.323-1.198-1.323-2.547-3.191l-1.54-2.093-1.663-2.279c-4.59-6.138-9.34-12.011-14.563-17.625L317.022 179c-3.543-3.748-7.3-6.845-11.507-9.83L304 168v-1Z"/><path fill="#064A48" d="M297 286h2c-.942 6.46-3.77 9.007-8.809 13.008-2.35 2.137-3.567 4.284-5.191 6.992-1.867 1.547-1.867 1.547-3.875 2.75l-1.992 1.234c-4.884 2.326-9.981 2.157-15.29 2.136l-2.475.003c-2.734.001-5.469-.004-8.203-.01l-5.884.001c-5.324 0-10.648-.006-15.972-.013-5.564-.006-11.128-.006-16.692-.008a48101.07 48101.07 0 0 1-31.608-.021c-11.995-.011-23.99-.017-35.985-.022-24.675-.01-49.35-.028-74.024-.05v-1l3.049-.002c24.496-.014 48.993-.057 73.49-.13 11.846-.035 23.693-.06 35.54-.064 10.326-.003 20.653-.023 30.98-.065 5.467-.02 10.933-.033 16.4-.025 5.15.007 10.3-.008 15.449-.042a603.29 603.29 0 0 1 5.657.001c12.747.058 22.003-1.038 31.775-10.001 4.535-4.567 8.372-9.134 11.66-14.672Z"/><path fill="#11857B" d="M39 140h1l.38 1.721c6.877 30.859 18.96 56.995 46.432 74.466 6.488 4 12.977 7.288 20.188 9.813 1.174.43 2.349.859 3.559 1.3 10.907 3.804 22 5.36 33.441 6.7v1c-9.06.244-18.164.283-27-2l-1-2c-1.783-.545-1.783-.545-3.938-.875C91.749 225.909 74.59 212.088 61 197l-2.129-3.27c-1.646-2.99-1.646-2.99-4.871-3.73l-.266-2.043c-.93-3.745-2.673-6.895-4.484-10.27-4.142-7.966-6.886-16.044-9.25-24.687l-.625-2.156c-.454-2.235-.471-4.316-.438-6.594l.028-2.422L39 140Z"/><path fill="#095051" d="m625 0 3 1a197.9 197.9 0 0 0 7.074.316l2.072.063c2.18.066 4.361.125 6.542.183l4.439.131c3.624.107 7.249.209 10.873.307l1 2H536c3.803-2.535 6.832-2.267 11.235-2.227h2.543c2.776 0 5.552.016 8.327.032l5.772.008c5.065.008 10.13.028 15.195.05 5.168.02 10.336.03 15.504.04 10.141.02 20.283.055 30.424.097V0Z"/><path fill="#032A2B" d="M239 521h105v2c-22.1 1.075-44.106.977-66.222.605-4.393-.072-8.786-.136-13.178-.2-8.534-.128-17.067-.263-25.6-.405v-2Z"/><path fill="#074645" d="m526 13 3 1-2.598 2.965c-5.337 6.112-10.631 12.205-15.539 18.672-2.987 3.789-6.163 7.414-9.316 11.066a604.356 604.356 0 0 0-11.336 13.586c-3.213 3.94-6.478 7.834-9.738 11.734a891.417 891.417 0 0 0-7.036 8.602C469.13 85.909 464.608 90.978 460 96c0-3.946 1.282-4.889 3.813-7.875l2.496-2.973a6280.06 6280.06 0 0 0 8.066-9.465l1.391-1.631c3.393-4.001 6.645-8.098 9.859-12.243 3.826-4.933 7.832-9.594 12.063-14.188 3.244-3.682 6.215-7.559 9.215-11.44 3.499-4.498 7.221-8.726 11.081-12.92 2.9-3.258 5.487-6.715 8.016-10.265Z"/><path fill="#053A39" d="M429 245c3.404 1.135 3.874 1.821 5.938 4.625a529.701 529.701 0 0 0 9.937 12.75l1.573 1.964c4.479 5.586 9.006 11.13 13.552 16.661 2.164 2.639 4.325 5.28 6.484 7.922 1.344 1.643 2.687 3.287 4.034 4.928 7.033 8.573 13.926 17.205 20.482 26.15h-3a75.463 75.463 0 0 1-5-5.625l-1.458-1.765c-4.385-5.336-8.639-10.777-12.89-16.22a1023.04 1023.04 0 0 0-7.714-9.765l-2.16-2.71L457 282h-2l-.621-2.023c-1.885-4.068-4.576-7.18-7.442-10.602l-1.757-2.134a1204.848 1204.848 0 0 0-7.97-9.557l-2.397-2.872-2.106-2.48c-1.736-2.372-2.748-4.564-3.707-7.332Z"/><path fill="#11897F" d="m222.844 233.938 3.236-.007c9.328.009 18.615.434 27.92 1.069v1c-7.955.763-15.809 1.104-23.793.963-3.727-.115-3.727-.115-7.207 1.037a57.721 57.721 0 0 1-4-.5c-5.12-.658-9.907-.191-15 .5v-2h-4l-1 2-1-1a58.389 58.389 0 0 0-4.113-.133l-2.533-.004-2.667.012-2.63-.012-2.545.004-2.33.004c-2.177.129-4.075.594-6.182 1.129l-4-1c-3.486-.194-6.851-.287-10.25.563-2.234.558-3.525.01-5.75-.563-1.58-.212-3.164-.4-4.75-.563l-2.422-.253L146 236v-1c7.617-.133 15.235-.264 22.852-.391 3.541-.06 7.081-.12 10.622-.182 14.456-.253 28.91-.473 43.37-.49Z"/><path fill="#119085" d="M347 5c3.745 3.656 7.228 7.457 10.625 11.438l1.578 1.843c4.036 4.749 7.902 9.614 11.721 14.537 3.098 3.98 6.295 7.853 9.576 11.682 4.269 4.984 8.349 10.088 12.375 15.27 3.543 4.539 7.23 8.934 10.976 13.307C409.096 79.23 414.048 85.61 419 92c-1.75 3.875-1.75 3.875-4 5l.766-2.16c.536-2.961.536-2.961-1.47-5.461l-2.546-2.817c-.936-1.06-1.87-2.123-2.8-3.187l-1.48-1.672c-2.412-2.795-4.652-5.719-6.908-8.64-4.094-5.263-8.324-10.385-12.652-15.456a429.849 429.849 0 0 1-9.687-11.818c-2.864-3.594-5.761-7.16-8.66-10.727l-1.702-2.093a3063.688 3063.688 0 0 0-9.736-11.907 977.305 977.305 0 0 1-8.188-10.125l-1.722-2.16C347 7 347 7 347 5Z"/><path fill="#119F95" d="m189 150 1.91.496c4.193.684 8.28.607 12.52.566l2.753-.011c3.873-.016 7.746-.044 11.62-.072 2.833-.018 5.668-.03 8.502-.042l2.627-.025c4.804-.019 9.33.276 14.068 1.088l-1 2-2.811-.007c-8.782-.02-17.564-.035-26.347-.045-4.514-.005-9.028-.012-13.541-.023-4.364-.011-8.728-.017-13.092-.02-1.657-.002-3.314-.005-4.971-.01-8.792-.028-17.493.05-26.238 1.105v-2h-8v-1c14.043-1.379 27.931-.71 42 0v-2Z"/><path fill="#022828" d="M605 359c3.329 3.247 6.39 6.571 9.313 10.188l2.351 2.906L619 375l2.148 2.656A971.063 971.063 0 0 1 627 385l1.832 2.297 1.668 2.14 1.469 1.872C633 393 633 393 633 396h-82v-1h80c-7.733-10.118-7.733-10.118-15.813-19.875C605 363.218 605 363.218 605 359Z"/><path fill="#084745" d="m456 97 3 1a741.327 741.327 0 0 1-15 18c-5.691 6.61-11.216 13.342-16.715 20.112-1.904 2.34-3.813 4.677-5.723 7.013l-1.866 2.302-1.755 2.143-1.572 1.93C415 151 415 151 413 152c1.458-4.533 4.022-7.678 7.125-11.188 1.004-1.159 2.006-2.319 3.008-3.48l1.49-1.72c1.847-2.162 3.616-4.38 5.377-6.612 3.073-3.878 6.233-7.669 9.438-11.438 8.688-9.971 8.688-9.971 16.562-20.562Z"/><path fill="#076868" d="M71 311c2.535.09 5.036.237 7.563.438l2.154.158c1.761.13 3.522.266 5.283.404l-1 2-2.555-.035c-1.095-.01-2.191-.018-3.32-.027l-3.305-.036c-2.772-.1-2.772-.1-4.82 1.098l-1.5 2.875c-2.585 4.716-6.245 8.363-9.898 12.27-3.138 3.443-5.988 7.06-8.813 10.761-1.77 2.07-3.551 3.556-5.789 5.094 1.173-2.773 2.654-4.824 4.625-7.063 2.69-2.696 2.69-2.696 2.375-5.937 1.652-2.094 1.652-2.094 3.938-4.5 4.306-4.634 8.337-9.428 12.312-14.348C70 312 70 312 71 311Z"/><path fill="#0F8A80" d="M314 96c9.133 8.856 16.978 18.927 24.875 28.875 3.12 3.914 6.322 7.748 9.563 11.563l1.398 1.653a999.239 999.239 0 0 0 6.902 8.077l2.512 2.957 2.266 2.633L363 154l-1 3a334.415 334.415 0 0 1-12.637-15.035 1443.417 1443.417 0 0 0-8.8-10.903l-1.71-2.103a2614.436 2614.436 0 0 0-9.478-11.584c-3.507-4.29-6.987-8.602-10.438-12.938l-1.484-1.844C314 98.23 314 98.23 314 96Z"/><path fill="#0D7C73" d="M255 236c8.975.673 16.514 7.075 22.25 13.625l1.809 2.121c2.035 2.363 4.14 4.649 6.253 6.941 3.513 3.925 6.941 7.904 10.25 12l1.34 1.583c3.128 3.961 3.541 6.764 3.098 11.73h-1l-.625-2.5c-2.267-5.77-6.25-10.203-10.25-14.875C286 264 286 264 286 262l-3-1a101.567 101.567 0 0 1-4.125-5.063c-6.905-8.6-13.72-14.527-23.875-18.937v-1Z"/><path fill="#064341" d="M382 189c3.308.222 4.124 1.14 6.375 3.668a295.41 295.41 0 0 1 2.625 3.52c.97 1.279 1.943 2.556 2.918 3.832l1.525 1.994c2.518 3.212 5.19 6.284 7.87 9.361C415 224.873 415 224.873 415 228h-2a132.837 132.837 0 0 1-4.875-6.125c-3.967-5.17-8.042-10.203-12.313-15.125C382 190.793 382 190.793 382 189Z"/><path fill="#075A5C" d="M634 392c.553 2.076 1 3.844 1 6l-85-1v-1h83l1-4Z"/><path fill="#119084" d="M304 167c4.214.5 6.673 3.078 9.625 5.875l1.59 1.486c8.01 7.58 15.188 15.81 21.785 24.639l1.762 2.336c1.418 1.884 2.83 3.772 4.238 5.664l-2 1v-2h-2c-1.198-1.323-1.198-1.323-2.547-3.191l-1.54-2.093-1.663-2.279c-4.59-6.138-9.34-12.011-14.563-17.625L317.022 179c-3.543-3.748-7.3-6.845-11.507-9.83L304 168v-1Z"/><path fill="#0C746D" d="M297 286h2c-.942 6.46-3.77 9.007-8.809 13.008-2.35 2.137-3.573 4.28-5.191 6.992-4.559 3.924-9.059 5.629-15 6v-2l1.941-.883C282.918 303.915 290.787 296.464 297 286Z"/><path fill="#11968C" d="M208 234c15.37-.112 30.66-.046 46 1v1c-7.955.763-15.809 1.104-23.793.963-3.727-.115-3.727-.115-7.207 1.037l-2-.875c-4.247-1.593-8.5-1.793-13-2.125v-1Z"/><path fill="#064546" d="M603 77c0 4.142-2.188 6.17-4.688 9.25l-1.464 1.834C591.098 95.226 585.06 102.122 579 109l-2-1c8.542-10.443 17.172-20.797 26-31Z"/><path fill="#074443" d="M629 45h2c-1.307 3.769-2.836 6.228-5.563 9.125C619.298 60.813 613.664 67.908 608 75l-3-1c.81-.92 1.622-1.84 2.457-2.79 6.274-7.161 12.397-14.373 18.115-21.992 1.098-1.44 2.258-2.835 3.428-4.218Z"/><path fill="#063E3E" d="m560 128 1 3a86.015 86.015 0 0 1-5.375 6.438C550.041 143.72 544.935 150.196 540 157l-3-1 2.09-2.457c10.745-12.54 10.745-12.54 20.91-25.543Z"/><path fill="#0C847B" d="m163 151.121 2.185.072c2.272.075 4.544.16 6.815.244 1.553.054 3.107.107 4.66.159 3.78.128 7.56.264 11.34.404v1l-1.845.076c-15.602.597-15.602.597-31.155 1.924v-2h-8v-1c5.395-.782 10.546-1.096 16-.879Z"/><path fill="#0E7168" d="m397 275 3 2c-.587 3.118-1.473 4.886-3.582 7.242l-1.576 1.793-1.654 1.84c-4.52 5.057-4.52 5.057-8.45 10.57L383 301h-2c1.583-3.607 3.798-6.358 6.313-9.375l2.421-2.938a163.59 163.59 0 0 1 3.97-4.562c2.179-2.405 3.251-3.715 3.608-7L397 275Z"/><path fill="#13998E" d="M279 155c7.754.529 16.66 3.207 22.25 8.813L303 166c-3.497-1.367-6.908-2.856-10.313-4.438A172.388 172.388 0 0 0 279 156v-1Z"/><path fill="#16BBB1" d="m77 30 2 2h3l-1.941 1.688c-4.924 4.344-9.502 8.714-13.684 13.78C65 49 65 49 63 50c1.992-4.677 5.469-7.902 8.906-11.563C73.74 36.303 74.897 34.56 76 32l1-2Z"/><path fill="#087675" d="M71 311a88.12 88.12 0 0 1 7.625.375l2.14.172c1.746.141 3.49.296 5.235.453l-1 2-2.555-.035c-1.095-.01-2.191-.018-3.32-.027l-3.305-.036c-2.772-.1-2.772-.1-4.82 1.098a113.158 113.158 0 0 0-3 5c-1-3-1-3-.188-5.063C69 313 69 313 71 311Z"/><path fill="#063F3E" d="M661 7h2c-1.598 3.642-3.848 6.444-6.375 9.5l-2.336 2.844A100.605 100.605 0 0 1 648 26l-2-1 1.162-1.33c1.74-1.992 3.476-3.987 5.213-5.983l1.828-2.091 1.758-2.022 1.619-1.856C659.177 9.846 659.177 9.846 661 7Z"/><path fill="#065354" d="M660 2h7l-3 6-2-1V5h-19V4h17V2Z"/><path fill="#036D70" d="m496 53 2 1c-.568.63-1.137 1.258-1.723 1.906-4.347 4.819-8.66 9.656-12.867 14.598C482 72 482 72 480 73c1.3-2.807 2.726-5.049 4.75-7.383l1.594-1.847L488 61.875l1.656-1.918C491.721 57.574 493.77 55.23 496 53Z"/><path fill="#118C81" d="M255 236c7.665.575 13.292 5.184 19 10l-1 3-1.398-1.355C266.504 242.92 261.337 239.818 255 237v-1Z"/><path fill="#139C91" d="M129 142c2.494 1.15 4.609 2.423 6.875 4 5.168 3.307 10.081 4.275 16.125 5v1c-6.433 1.643-10.292.21-16-3-2.51-1.548-4.695-3.137-7-5v-2Z"/><path fill="#064544" d="m394 172 3 1-1.934 2.082-2.503 2.73-2.497 2.708c-2.233 2.374-2.233 2.374-3.066 5.48-2.063 1.188-2.063 1.188-4 2 .535-4.107 2.72-6.178 5.5-9.125 3.114-3.183 3.114-3.183 5.5-6.875Z"/><path fill="#073F40" d="M644 27h2c-1.612 3.657-3.864 6.53-6.375 9.625l-2.336 2.914c-2.077 2.233-3.486 3.373-6.289 4.461 1.99-2.675 3.994-5.338 6-8l1.887-2.535L640.75 31l1.734-2.313L644 27Z"/><path fill="#15988F" d="M98.214 18.39 100 19c-.808.459-1.616.918-2.45 1.39l-3.238 1.86-3.199 1.828c-3.143 1.85-3.143 1.85-5.883 4.156C83 30 83 30 81 30c1.385-4.155 4.28-5.499 7.812-7.75l1.909-1.285c4.747-3.059 4.747-3.059 7.493-2.575Z"/><path fill="#063C3B" d="M416 228c4.541 4.266 8.247 9.036 12 14h-3c-2.262-2.3-2.262-2.3-4.688-5.313l-2.449-2.988C416 231 416 231 416 228Z"/><path fill="#0E8176" d="M382 135c0 3.927-1.325 4.957-3.813 7.938-3.007 3.616-3.007 3.616-5.824 7.378L371 152h-2c1.73-4.21 4.682-7.351 7.625-10.75l1.563-1.824c1.267-1.479 2.539-2.953 3.812-4.426Z"/><path fill="#016366" d="m422 304 3 1a85.132 85.132 0 0 1-13 13c1.564-3.522 3.695-6.271 6.125-9.25l2.195-2.703L422 304Z"/><path fill="#07403F" d="m408 156 2 1c-1.788 2.15-3.58 4.295-5.375 6.438l-1.54 1.853c-3.858 4.596-3.858 4.596-6.085 5.709 1.417-4.32 3.538-7.005 6.625-10.313l2.477-2.675L408 156Z"/><path fill="#0F8C83" d="M267 152v1c-14.597 1.333-14.597 1.333-22 0v-1c7.434-1.525 14.562-1.266 22 0Z"/><path fill="#0B7572" d="m319 370 2 1v3c-1.75 1.605-1.75 1.605-4 3.188l-2.25 1.605L313 380l-3-2 2.25-1.188c2.948-1.942 4.681-3.977 6.75-6.812Z"/><path fill="#16988E" d="m73 35 2 1-12 13c0-3.719.86-4.318 3.313-7l1.863-2.063C69.756 38.26 71.358 36.617 73 35Z"/><path fill="#056F72" d="M20 374c0 4.132-1.72 5.525-4.313 8.688l-2.425 3.011L11 388H8l12-14Z"/><path fill="#139F95" d="m189 150 2.125.5c3.014.524 5.822.571 8.875.5v2l3 1c-5.152.09-9.92-.153-15-1l1-3Z"/><path fill="#13B6AB" d="M243 151h2v2l3.688-.063c3.232-.005 6.161.275 9.312 1.063v1h-15l-1-2 1-2Z"/><path fill="#075052" d="M634 392c.553 2.076 1 3.844 1 6l-19-1v-1h17l1-4Z"/><path fill="#139489" d="M203 235h15c-3.625 1.812-5.373 2.319-9.25 2.625l-2.703.227L204 238l-1-3Z"/><path fill="#053F40" d="M428 309c3.452 1.426 5.101 3.097 7.25 6.125l1.578 2.195L438 319c-2.884-.345-3.82-.783-5.703-3.066l-1.547-2.497-1.578-2.503L428 309Z"/><path fill="#074444" d="M448 270h3c3.442 3.524 5.554 5.95 6 11l-2 1-.688-2.063c-1.668-3.733-3.87-6.659-6.312-9.937Z"/><path fill="#0D897F" d="m243 152-1 2-15-1v-1c5.687-.914 10.313-.914 16 0Z"/><path fill="#0C706B" d="m279 306 2 1c-2.518 3.123-3.726 3.945-7.75 4.75L270 312v-2a418.864 418.864 0 0 1 4.375-2.063l2.46-1.16L279 306Z"/><path fill="#084B4B" d="m535 2 1 2 2 1-8 7-1-2 6-8Z"/><path fill="#0B5B57" d="M297 389c-8.262 4.592-8.262 4.592-13 4 3.415-3.005 8.572-6.214 13-4Z"/><path fill="#0F877B" d="M342 207c3.935 3.06 6.681 5.491 9 10l-2 1a790.547 790.547 0 0 1-3.5-4.375l-1.969-2.46C342 209 342 209 342 207Z"/><path fill="#063B39" d="M603 77c0 3.562-.761 4.411-2.875 7.188l-1.617 2.167L597 88h-2c1.364-2.992 2.95-5.29 5.125-7.75l1.633-1.86L603 77Z"/><path fill="#065858" d="M8 389c-.813 2.438-.813 2.438-2 5l-3 1-2-2c3.625-4 3.625-4 7-4Z"/><path fill="#15B5AA" d="m271 153-1 2h-11l1-2c3.918-.813 7.18-1.376 11 0Z"/><path fill="#026A6C" d="M431 131c0 3.59-.664 4.109-3 6.688l-1.688 1.886L425 141l-2-1 8-9Z"/><path fill="#0F988F" d="M120 126c2.001 2.547 3.857 4.953 5 8-.453 2.125-.453 2.125-1 4a301.229 301.229 0 0 1-2-3.75l-1.125-2.11C120 130 120 130 120 126Z"/><path fill="#0A7A77" d="m302 385-1 3-7 1c1-3 1-3 3.438-4.25C300 384 300 384 302 385Z"/><path fill="#0A6868" d="M72 312c-1.625 5.75-1.625 5.75-5 8-.366-4.517-.366-4.517 1.375-6.813C70 312 70 312 72 312Z"/><path fill="#109186" d="m209 151 2 2c-7.625 1.25-7.625 1.25-11-1 3.242-1.08 5.604-1.217 9-1Z"/><path fill="#053434" d="M456 386c0 4.39-2.128 5.77-5 9l-2-1 7-8Z"/><path fill="#083D3D" d="M535 158h2c-1.37 2.95-2.878 5.525-5 8h-2c1.37-2.95 2.878-5.525 5-8Z"/><path fill="#063D3C" d="m568 119 1 2-5 6-2-1 6-7Z"/><path fill="#053234" d="m338 403 2 1-6 7-1-2 5-6Z"/><path fill="#0C8682" d="m282 303 3 1v2c-2 1.625-2 1.625-4 3l-2-1 3-5Z"/><path fill="#0D8F88" d="m300 281 2 1-2 7-2-1c-.125-2.375-.125-2.375 0-5l2-2Z"/><path fill="#053031" d="M456 278c3.243 2.39 5.509 4.205 7 8-3.356-1.389-5.073-2.917-7-6v-2Z"/><path fill="#073E3D" d="m583 101 1 2-5 6-2-1 6-7Z"/><path fill="#095250" d="M511 31c.688 1.813.688 1.813 1 4-1.438 1.75-1.438 1.75-3 3l-3-1 5-6Z"/><path fill="#1ABBB0" d="M164 237h6v1h-6v-1Z"/><path fill="#148482" d="m271 397 4 1Z"/><path fill="#1BB7AE" d="m142 237 4 1Z"/><path fill="#095E5F" d="M472 359h2l-1 2-1-2Z"/><path fill="#086162" d="m441 318 2 1-2 1v-2Z"/><path fill="#0C6363" d="m462 292 3 1Z"/><path fill="#1ABCB2" d="m215 237 3 1Z"/><path fill="#19B6AD" d="m138 237 3 1Z"/><path fill="#0B5C5F" d="m315 525 2 1Z"/><path fill="#0B5A5D" d="m251 525 2 1Z"/><path fill="#0F4F4F" d="m238 524 2 1Z"/><path fill="#128280" d="m279 396 2 1Z"/><path fill="#128783" d="m312 381 2 1Z"/><path fill="#15A49A" d="m292 275 2 1Z"/><path fill="#19B3A9" d="m261 241 2 1Z"/><path fill="#19BCAF" d="m195 237 2 1Z"/><path fill="#1ABAB1" d="m190 237 2 1Z"/><path fill="#1BB6AC" d="m131 236 2 1Z"/><path fill="#1BB3A8" d="m125 235 2 1Z"/><path fill="#1AB0A7" d="m102 228 2 1Z"/><path fill="#15ADA3" d="m351 215 2 1Z"/><path fill="#107B78" d="m389 201 2 1Z"/><path fill="#1CACA3" d="m39 157 2 1Z"/><path fill="#1FC9BB" d="m256 150 2 1Z"/><path fill="#21CABD" d="m240 150 2 1Z"/><path fill="#19A8A0" d="m400 117 2 1Z"/><path fill="#1AC5BB" d="m140 85 2 1Z"/><path fill="#1DC5B9" d="m148 83 2 1Z"/><path fill="#107472" d="m492 51 2 1Z"/><path fill="#22BDB1" d="m100 14 2 1Z"/></svg>